<svg id="Layer_1" data-name="Layer 1" xmlns="http://www.w3.org/2000/svg" viewBox="0 0 121.64 114.15"><defs><style>.cls-1{fill:#ffd46a;}</style></defs><path class="cls-1" d="M481.77,337.93v31.39H449.21v-6.93H473a1.34,1.34,0,0,0,1.38-1.3V337.93Z" transform="translate(-360.12 -255.17)"/><path class="cls-1" d="M481.77,255.17V284.9h-7.39V263.41a1.34,1.34,0,0,0-1.39-1.3H449.22v-6.94Z" transform="translate(-360.12 -255.17)"/><path class="cls-1" d="M392.68,255.17v6.94H368.9a1.34,1.34,0,0,0-1.38,1.3V284.9h-7.4V255.17Z" transform="translate(-360.12 -255.17)"/><path class="cls-1" d="M392.68,362.39v6.93H360.12V337.93h7.39v23.15a1.34,1.34,0,0,0,1.39,1.3Z" transform="translate(-360.12 -255.17)"/><path class="cls-1" d="M388,330.67h-9.49a1.3,1.3,0,1,1,0-2.6H387c.31.89.64,1.76,1,2.6Z" transform="translate(-360.12 -255.17)"/><path class="cls-1" d="M464.81,329.37a1.34,1.34,0,0,1-1.38,1.3H452.09c.34-.85.65-1.71,1-2.6h10.38a1.34,1.34,0,0,1,1.38,1.3Z" transform="translate(-360.12 -255.17)"/><path class="cls-1" d="M453.88,321.89c.5-9.93-2.3-16.18-5-19.83a18.59,18.59,0,0,0-7.63-6.31C426,290,413.46,290,404,295.61c-6.52,3.86-11.56,10.52-14.61,19.24a53.75,53.75,0,0,0-2.26,8.9c-7.69-9.95-9-21.07-3.56-31.61,7-13.6,24.37-24,39.9-24h.9c11.13.29,19.7,6,24.14,16a1.36,1.36,0,0,0,.8.72c6.34,2.15,10.3,5.72,11.75,10.61,2.66,8.94-3.27,20.31-7.14,26.4Z" transform="translate(-360.12 -255.17)"/><path class="cls-1" d="M441,317.08a1.46,1.46,0,0,1-1.95,0,8,8,0,0,0-10.75,0,1.46,1.46,0,0,1-2,0,1.25,1.25,0,0,1,0-1.81,10.89,10.89,0,0,1,14.66,0,1.26,1.26,0,0,1,0,1.84Zm-25.47,0a1.46,1.46,0,0,1-2,0,8,8,0,0,0-10.75,0,1.46,1.46,0,0,1-2,0,1.24,1.24,0,0,1,0-1.83l0,0a10.89,10.89,0,0,1,14.66,0,1.26,1.26,0,0,1,0,1.84Zm31.19-13.39a16.24,16.24,0,0,0-6.48-5.53c-14.38-5.41-26.09-5.54-34.81-.37-13.61,8.08-15.76,26.75-16,29.08.14.41.28.81.43,1.21h60.24c.17-.44.32-.89.48-1.34h0c1.43-9.56.09-17.53-3.89-23.05Z" transform="translate(-360.12 -255.17)"/><path class="cls-1" d="M432.41,338.47a17,17,0,0,1-22.92,0l0,0a1.24,1.24,0,0,1,0-1.83,1.44,1.44,0,0,1,1.92,0,14.09,14.09,0,0,0,19,0h0a1.45,1.45,0,0,1,2,0,1.23,1.23,0,0,1,0,1.8Zm-41.51-7.8c6.57,16.16,17.27,25.68,29.12,25.68s22.55-9.51,29.12-25.68Z" transform="translate(-360.12 -255.17)"/></svg>