<svg id="Layer_1" data-name="Layer 1" xmlns="http://www.w3.org/2000/svg" viewBox="0 0 104.66 96.92"><defs><style>.cls-1{fill:#ffd46a;fill-rule:evenodd;}</style></defs><path class="cls-1" d="M404.56,269.77c6.06,0,17,.53,23.24,4,6.27-3.45,17.18-4,23.24-4,1.22,0,2.23,0,2.92.05,0-.39,0-.86,0-1.07a4.33,4.33,0,0,1,0-.45V230.14a37.11,37.11,0,0,0-7-.67,33.31,33.31,0,0,0-18.44,5.3,1.1,1.1,0,0,1-1.31,0,33.55,33.55,0,0,0-18.44-5.3,37,37,0,0,0-7,.67V268.3c0,.08,0,.24,0,.45s0,.67-.05,1.06c.7,0,1.7,0,2.92,0ZM427.8,276a1,1,0,0,1-.57-.16c-5.7-3.47-16.65-4-22.67-4-1.86,0-3.19.05-3.68.07a1.3,1.3,0,0,1-.93-.36c-.47-.49-.51-1.26-.4-2.91,0-.15,0-.27,0-.33v-39a1,1,0,0,1,.84-1,39.87,39.87,0,0,1,8.31-.89,35.89,35.89,0,0,1,19.1,5.29,35.81,35.81,0,0,1,19.09-5.29,39.87,39.87,0,0,1,8.31.89,1.05,1.05,0,0,1,.84,1v39c0,.06,0,.18,0,.32.11,1.65.08,2.43-.4,2.91a1.22,1.22,0,0,1-.88.37h0c-.49,0-1.82-.07-3.68-.07-6,0-17,.52-22.67,4a1.1,1.1,0,0,1-.58.16Z" transform="translate(-374.67 -225.87)"/><path class="cls-1" d="M423,242.21a1.09,1.09,0,0,1-.82-.37c-4.45-5-16.55-3.92-16.68-3.9a1.07,1.07,0,0,1-1.18-.92,1,1,0,0,1,1-1.13c.54,0,13.36-1.24,18.54,4.62a1,1,0,0,1-.13,1.45,1,1,0,0,1-.69.25Z" transform="translate(-374.67 -225.87)"/><path class="cls-1" d="M423,248.56a1.08,1.08,0,0,1-.82-.36c-4.45-5-16.55-3.92-16.68-3.91a1.06,1.06,0,0,1-1.17-.92,1,1,0,0,1,.95-1.12c.55-.06,13.36-1.24,18.54,4.62a1,1,0,0,1-.13,1.45,1.09,1.09,0,0,1-.69.24Z" transform="translate(-374.67 -225.87)"/><path class="cls-1" d="M423,254.91a1.08,1.08,0,0,1-.82-.36c-4.45-5-16.55-3.92-16.68-3.9a1.08,1.08,0,0,1-1.18-.92,1,1,0,0,1,1-1.13c.54,0,13.36-1.24,18.54,4.62a1,1,0,0,1-.13,1.45,1,1,0,0,1-.69.24Z" transform="translate(-374.67 -225.87)"/><path class="cls-1" d="M423,261.27a1.08,1.08,0,0,1-.82-.36c-4.45-5-16.55-3.92-16.68-3.91a1.06,1.06,0,0,1-1.18-.92,1,1,0,0,1,1-1.12c.54-.06,13.36-1.24,18.54,4.62a1,1,0,0,1-.13,1.44,1,1,0,0,1-.69.25Z" transform="translate(-374.67 -225.87)"/><path class="cls-1" d="M423,267.62a1.08,1.08,0,0,1-.82-.36c-4.45-5-16.55-3.92-16.68-3.9a1.08,1.08,0,0,1-1.18-.92,1,1,0,0,1,1-1.13c.54-.05,13.36-1.24,18.54,4.62a1,1,0,0,1-.13,1.45,1,1,0,0,1-.69.24Z" transform="translate(-374.67 -225.87)"/><path class="cls-1" d="M432.58,242.21a1.07,1.07,0,0,1-.69-.25,1,1,0,0,1-.13-1.45c5.18-5.86,18-4.67,18.54-4.62a1,1,0,0,1,1,1.13,1.07,1.07,0,0,1-1.18.92c-.12,0-12.23-1.13-16.68,3.9a1.09,1.09,0,0,1-.82.37Z" transform="translate(-374.67 -225.87)"/><path class="cls-1" d="M432.58,248.56a1.11,1.11,0,0,1-.69-.24,1,1,0,0,1-.13-1.45c5.18-5.86,18-4.68,18.54-4.62a1,1,0,0,1,1,1.12,1.06,1.06,0,0,1-1.18.92c-.12,0-12.23-1.12-16.68,3.91a1.08,1.08,0,0,1-.82.36Z" transform="translate(-374.67 -225.87)"/><path class="cls-1" d="M432.58,254.91a1.06,1.06,0,0,1-.69-.24,1,1,0,0,1-.13-1.45c5.18-5.86,18-4.67,18.54-4.62a1,1,0,0,1,1,1.13,1.08,1.08,0,0,1-1.18.92c-.12,0-12.23-1.13-16.68,3.9a1.08,1.08,0,0,1-.82.36Z" transform="translate(-374.67 -225.87)"/><path class="cls-1" d="M432.58,261.27a1.07,1.07,0,0,1-.69-.25,1,1,0,0,1-.13-1.44c5.18-5.86,18-4.68,18.54-4.62a1,1,0,0,1,1,1.12,1.06,1.06,0,0,1-1.18.92c-.12,0-12.23-1.12-16.68,3.91a1.08,1.08,0,0,1-.82.36Z" transform="translate(-374.67 -225.87)"/><path class="cls-1" d="M432.58,267.62a1.06,1.06,0,0,1-.69-.24,1,1,0,0,1-.13-1.45c5.18-5.86,18-4.67,18.54-4.62a1,1,0,0,1,1,1.13,1.08,1.08,0,0,1-1.18.92c-.12,0-12.23-1.13-16.68,3.9a1.08,1.08,0,0,1-.82.36Z" transform="translate(-374.67 -225.87)"/><path class="cls-1" d="M427.8,276a1.05,1.05,0,0,1-1.07-1V234a1.08,1.08,0,0,1,2.15,0v41a1.07,1.07,0,0,1-1.08,1Z" transform="translate(-374.67 -225.87)"/><path class="cls-1" d="M474.85,308.27h-94.1a4.38,4.38,0,0,1-4.47-4.28V249.55a4.38,4.38,0,0,1,4.47-4.29h19.88a1,1,0,1,1,0,2.06H380.75a2.29,2.29,0,0,0-2.33,2.23V304a2.29,2.29,0,0,0,2.33,2.23h94.1a2.29,2.29,0,0,0,2.33-2.23V249.55a2.29,2.29,0,0,0-2.33-2.23H455a1,1,0,1,1,0-2.06h19.88a4.38,4.38,0,0,1,4.47,4.28V304a4.38,4.38,0,0,1-4.47,4.28Z" transform="translate(-374.67 -225.87)"/><path class="cls-1" d="M478.25,297.07H377.35a1,1,0,1,1,0-2.06h100.9a1,1,0,1,1,0,2.06Z" transform="translate(-374.67 -225.87)"/><path class="cls-1" d="M412.34,320.73h30.92l-7.1-12.46H419.45l-7.11,12.46Zm32.73,2H410.53a1.07,1.07,0,0,1-.92-.5,1,1,0,0,1,0-1l8.27-14.52a1.1,1.1,0,0,1,.95-.53h18a1.1,1.1,0,0,1,.94.53L446,321.18a1,1,0,0,1,.19.58,1.05,1.05,0,0,1-1.08,1Z" transform="translate(-374.67 -225.87)"/><path class="cls-1" d="M427.8,300.58a1.07,1.07,0,1,0,1.11,1.07,1.09,1.09,0,0,0-1.11-1.07Zm0,4.18a3.12,3.12,0,1,1,3.26-3.12,3.2,3.2,0,0,1-3.26,3.12Z" transform="translate(-374.67 -225.87)"/><path class="cls-1" d="M453.11,280.67H402.23a1,1,0,1,1,0-2.06h50.88a1,1,0,1,1,0,2.06Z" transform="translate(-374.67 -225.87)"/><path class="cls-1" d="M462.47,285.76h-69.6a1,1,0,1,1,0-2.06h69.6a1,1,0,1,1,0,2.06Z" transform="translate(-374.67 -225.87)"/><path class="cls-1" d="M472.12,291.67H383.49a1.05,1.05,0,0,1-1.08-1V251.69a1.05,1.05,0,0,1,1.08-1h17.14a1,1,0,1,1,0,2.06H384.56v36.9H471v-36.9H455a1,1,0,1,1,0-2.06h17.15a1.05,1.05,0,0,1,1.07,1v38.95a1.05,1.05,0,0,1-1.07,1Z" transform="translate(-374.67 -225.87)"/><path class="cls-1" d="M459.6,322.78H395.74a1,1,0,1,1,0-2H459.6a1,1,0,1,1,0,2Z" transform="translate(-374.67 -225.87)"/><path class="cls-1" d="M403,268.23c6.06,0,17,.53,23.24,4,6.27-3.45,17.18-4,23.24-4,1.22,0,2.23,0,2.92,0,0-.39,0-.85,0-1.06s0-.37,0-.45V228.6a37.13,37.13,0,0,0-7-.68,33.18,33.18,0,0,0-18.44,5.31,1.11,1.11,0,0,1-1.32,0,33.42,33.42,0,0,0-18.43-5.31,37,37,0,0,0-7,.68v38.15c0,.09,0,.25,0,.46s0,.67-.05,1.06c.69,0,1.7,0,2.92,0Zm23.24,6.21a1.14,1.14,0,0,1-.57-.16c-5.7-3.48-16.65-4-22.67-4-1.86,0-3.19,0-3.68.07a1.25,1.25,0,0,1-.93-.37c-.48-.48-.51-1.25-.4-2.91,0-.15,0-.26,0-.33v-39a1,1,0,0,1,.84-1,39.87,39.87,0,0,1,8.31-.89,35.92,35.92,0,0,1,19.09,5.28,36,36,0,0,1,19.1-5.28,39.87,39.87,0,0,1,8.31.89,1,1,0,0,1,.84,1v39c0,.07,0,.18,0,.33.11,1.65.07,2.42-.4,2.91a1.26,1.26,0,0,1-.88.37h-.05c-.49,0-1.82-.07-3.68-.07-6,0-17,.51-22.67,4a1.21,1.21,0,0,1-.58.16Z" transform="translate(-374.67 -225.87)"/><path class="cls-1" d="M421.41,240.67a1.12,1.12,0,0,1-.82-.37c-4.45-5-16.56-3.92-16.68-3.91a1,1,0,1,1-.22-2c.55-.06,13.36-1.24,18.54,4.62a1,1,0,0,1-.13,1.45,1.1,1.1,0,0,1-.69.25Z" transform="translate(-374.67 -225.87)"/><path class="cls-1" d="M421.41,247a1.08,1.08,0,0,1-.82-.37c-4.45-5-16.55-3.91-16.68-3.9a1,1,0,1,1-.22-2.05c.55,0,13.36-1.23,18.54,4.63a1,1,0,0,1-.13,1.44,1,1,0,0,1-.69.25Z" transform="translate(-374.67 -225.87)"/><path class="cls-1" d="M421.41,253.38a1.12,1.12,0,0,1-.82-.37c-4.44-5-16.55-3.92-16.68-3.9a1.06,1.06,0,0,1-1.17-.92,1,1,0,0,1,.95-1.13c.55-.05,13.36-1.24,18.54,4.62a1,1,0,0,1-.13,1.45,1.1,1.1,0,0,1-.69.25Z" transform="translate(-374.67 -225.87)"/><path class="cls-1" d="M421.41,259.73a1.12,1.12,0,0,1-.82-.37c-4.44-5-16.55-3.92-16.68-3.9a1,1,0,1,1-.22-2.05c.55,0,13.36-1.23,18.54,4.62a1,1,0,0,1-.13,1.45,1,1,0,0,1-.69.25Z" transform="translate(-374.67 -225.87)"/><path class="cls-1" d="M421.41,266.08a1.11,1.11,0,0,1-.82-.36c-4.44-5-16.55-3.92-16.68-3.91a1,1,0,1,1-.22-2c.55-.06,13.36-1.24,18.54,4.62a1,1,0,0,1-.13,1.45,1.09,1.09,0,0,1-.69.24Z" transform="translate(-374.67 -225.87)"/><path class="cls-1" d="M431,240.67a1.07,1.07,0,0,1-.69-.25,1,1,0,0,1-.13-1.45c5.18-5.85,18-4.67,18.54-4.62a1,1,0,0,1,1,1.13,1.07,1.07,0,0,1-1.18.92c-.12,0-12.23-1.13-16.68,3.9a1.09,1.09,0,0,1-.82.37Z" transform="translate(-374.67 -225.87)"/><path class="cls-1" d="M431,247a1.07,1.07,0,0,1-.69-.25,1,1,0,0,1-.13-1.44c5.18-5.86,18-4.68,18.54-4.63a1,1,0,0,1,1,1.13,1.06,1.06,0,0,1-1.18.92c-.12,0-12.23-1.13-16.68,3.9a1.05,1.05,0,0,1-.82.37Z" transform="translate(-374.67 -225.87)"/><path class="cls-1" d="M431,253.38a1.07,1.07,0,0,1-.69-.25,1,1,0,0,1-.13-1.45c5.18-5.86,18-4.67,18.54-4.62a1,1,0,0,1,1,1.13,1.07,1.07,0,0,1-1.18.92c-.12,0-12.23-1.13-16.68,3.9a1.09,1.09,0,0,1-.82.37Z" transform="translate(-374.67 -225.87)"/><path class="cls-1" d="M431,259.73a1.07,1.07,0,0,1-.69-.25,1,1,0,0,1-.13-1.45c5.18-5.85,18-4.67,18.54-4.62a1,1,0,0,1,1,1.13,1.06,1.06,0,0,1-1.18.92c-.12,0-12.23-1.13-16.68,3.9a1.09,1.09,0,0,1-.82.37Z" transform="translate(-374.67 -225.87)"/><path class="cls-1" d="M431,266.08a1.11,1.11,0,0,1-.69-.24,1,1,0,0,1-.13-1.45c5.18-5.86,18-4.68,18.54-4.62a1,1,0,0,1,1,1.13,1.06,1.06,0,0,1-1.18.91c-.12,0-12.23-1.12-16.68,3.91a1.08,1.08,0,0,1-.82.36Z" transform="translate(-374.67 -225.87)"/><path class="cls-1" d="M426.19,274.44a1.05,1.05,0,0,1-1.07-1v-41a1.08,1.08,0,0,1,2.15,0v41a1.06,1.06,0,0,1-1.08,1Z" transform="translate(-374.67 -225.87)"/><path class="cls-1" d="M473.24,306.73h-94.1a4.38,4.38,0,0,1-4.47-4.28V248a4.38,4.38,0,0,1,4.47-4.28H399a1,1,0,1,1,0,2.06H379.14a2.29,2.29,0,0,0-2.33,2.23v54.44a2.28,2.28,0,0,0,2.33,2.23h94.1a2.29,2.29,0,0,0,2.33-2.23V248a2.29,2.29,0,0,0-2.33-2.23H453.36a1,1,0,1,1,0-2.06h19.88a4.39,4.39,0,0,1,4.47,4.29v54.44a4.38,4.38,0,0,1-4.47,4.29Z" transform="translate(-374.67 -225.87)"/><path class="cls-1" d="M476.64,295.53H375.74a1,1,0,1,1,0-2.06h100.9a1,1,0,1,1,0,2.06Z" transform="translate(-374.67 -225.87)"/><path class="cls-1" d="M410.73,319.19h30.92l-7.1-12.46H417.84l-7.11,12.46Zm32.73,2.05H408.92a1.07,1.07,0,0,1-.92-.5,1,1,0,0,1,0-1l8.27-14.51a1.08,1.08,0,0,1,.95-.53h18a1.08,1.08,0,0,1,.94.53l8.22,14.43a1,1,0,0,1,.19.58,1.05,1.05,0,0,1-1.08,1Z" transform="translate(-374.67 -225.87)"/><path class="cls-1" d="M426.19,299a1.07,1.07,0,1,0,1.11,1.06,1.09,1.09,0,0,0-1.11-1.06Zm0,4.18a3.12,3.12,0,1,1,3.26-3.12,3.2,3.2,0,0,1-3.26,3.12Z" transform="translate(-374.67 -225.87)"/><path class="cls-1" d="M451.5,279.13H400.62a1,1,0,1,1,0-2.06H451.5a1,1,0,1,1,0,2.06Z" transform="translate(-374.67 -225.87)"/><path class="cls-1" d="M460.86,284.21h-69.6a1,1,0,1,1,0-2h69.6a1,1,0,1,1,0,2Z" transform="translate(-374.67 -225.87)"/><path class="cls-1" d="M470.5,290.13H381.88a1.06,1.06,0,0,1-1.08-1v-39a1.05,1.05,0,0,1,1.08-1H399a1,1,0,1,1,0,2.06H383v36.9h86.49V251.17H453.36a1,1,0,1,1,0-2.06h17.15a1.06,1.06,0,0,1,1.08,1v39a1.07,1.07,0,0,1-1.09,1Z" transform="translate(-374.67 -225.87)"/><path class="cls-1" d="M458,321.24H394.13a1,1,0,1,1,0-2.06H458a1,1,0,1,1,0,2.06Z" transform="translate(-374.67 -225.87)"/></svg>