<svg id="Layer_1" data-name="Layer 1" xmlns="http://www.w3.org/2000/svg" viewBox="0 0 170.99 133.88"><defs><style>.cls-1,.cls-2{fill:#ffd46a;}.cls-2,.cls-3{stroke:#000;stroke-linecap:round;stroke-linejoin:round;stroke-width:1.57px;}.cls-3{fill:#f7f6f5;}</style></defs><path class="cls-1" d="M380.1,388.83a4.07,4.07,0,1,1-4.07-4,4,4,0,0,1,4.07,4Z" transform="translate(-371.97 -289.59)"/><path class="cls-1" d="M383.73,300a2.27,2.27,0,1,1-2.27-2.22,2.25,2.25,0,0,1,2.27,2.22Z" transform="translate(-371.97 -289.59)"/><polygon class="cls-1" points="106.14 131.09 65.62 131.09 65.62 91.88 106.14 91.88 106.14 131.09 106.14 131.09"/><polygon class="cls-2" points="106.14 131.09 65.62 131.09 65.62 91.88 106.14 91.88 106.14 131.09 106.14 131.09"/><polygon class="cls-1" points="170.21 106.92 1.56 106.92 1.56 0.78 170.21 0.78 170.21 106.92 170.21 106.92"/><polygon class="cls-2" points="170.21 106.92 1.56 106.92 1.56 0.78 170.21 0.78 170.21 106.92 170.21 106.92"/><polygon class="cls-1" points="158.38 96.28 13.38 96.28 13.38 11.42 158.38 11.42 158.38 96.28 158.38 96.28"/><polygon class="cls-1" points="154.63 91.81 17.14 91.81 17.14 15.89 154.63 15.89 154.63 91.81 154.63 91.81"/><polygon class="cls-3" points="154.63 91.81 17.14 91.81 17.14 15.89 154.63 15.89 154.63 91.81 154.63 91.81"/><path class="cls-1" d="M472.08,393H443.63c-.42,0-.76-1-.76-2.18s.34-2.19.76-2.19h28.45c.41,0,.75,1,.75,2.19s-.34,2.18-.75,2.18Z" transform="translate(-371.97 -289.59)"/><polygon class="cls-1" points="119.19 133.1 52.58 133.1 52.58 125.58 119.19 125.58 119.19 133.1 119.19 133.1"/><polygon class="cls-2" points="119.19 133.1 52.58 133.1 52.58 125.58 119.19 125.58 119.19 133.1 119.19 133.1"/><path class="cls-1" d="M434.15,365.35a.26.26,0,0,1,.27-.26h15.87V346.86a.27.27,0,0,1,.53,0v18.49a.26.26,0,0,1-.26.26H434.42a.27.27,0,0,1-.27-.26Z" transform="translate(-371.97 -289.59)"/><path class="cls-2" d="M434.15,365.35a.26.26,0,0,1,.27-.26h15.87V346.86a.27.27,0,0,1,.53,0v18.49a.26.26,0,0,1-.26.26H434.42a.27.27,0,0,1-.27-.26Z" transform="translate(-371.97 -289.59)"/><path class="cls-1" d="M437.77,370.07a.26.26,0,0,1,.27-.26h16V346.14a.27.27,0,0,1,.53,0v23.93a.26.26,0,0,1-.26.26H438a.26.26,0,0,1-.27-.26Z" transform="translate(-371.97 -289.59)"/><path class="cls-2" d="M437.77,370.07a.26.26,0,0,1,.27-.26h16V346.14a.27.27,0,0,1,.53,0v23.93a.26.26,0,0,1-.26.26H438a.26.26,0,0,1-.27-.26Z" transform="translate(-371.97 -289.59)"/><path class="cls-1" d="M439.23,361.39a.26.26,0,0,1,.26-.26h7.73v-14.3a.26.26,0,0,1,.26-.27.27.27,0,0,1,.27.27v14.56a.27.27,0,0,1-.27.26h-8a.26.26,0,0,1-.26-.26Z" transform="translate(-371.97 -289.59)"/><path class="cls-2" d="M439.23,361.39a.26.26,0,0,1,.26-.26h7.73v-14.3a.26.26,0,0,1,.26-.27.27.27,0,0,1,.27.27v14.56a.27.27,0,0,1-.27.26h-8a.26.26,0,0,1-.26-.26Z" transform="translate(-371.97 -289.59)"/><path class="cls-1" d="M440.08,361.39a2,2,0,1,0-2,2,2,2,0,0,0,2-2Z" transform="translate(-371.97 -289.59)"/><path class="cls-2" d="M440.08,361.39a2,2,0,1,0-2,2,2,2,0,0,0,2-2Z" transform="translate(-371.97 -289.59)"/><path class="cls-1" d="M436.29,365.35a2,2,0,1,0-2,2,2,2,0,0,0,2-2Z" transform="translate(-371.97 -289.59)"/><path class="cls-2" d="M436.29,365.35a2,2,0,1,0-2,2,2,2,0,0,0,2-2Z" transform="translate(-371.97 -289.59)"/><path class="cls-1" d="M440.08,370.07a2,2,0,1,0-2,2,2,2,0,0,0,2-2Z" transform="translate(-371.97 -289.59)"/><path class="cls-2" d="M440.08,370.07a2,2,0,1,0-2,2,2,2,0,0,0,2-2Z" transform="translate(-371.97 -289.59)"/><path class="cls-1" d="M464.88,365.35V346.86a.27.27,0,0,1,.54,0v18.23h15.86a.26.26,0,0,1,.27.26.27.27,0,0,1-.27.26H465.15a.27.27,0,0,1-.27-.26Z" transform="translate(-371.97 -289.59)"/><path class="cls-2" d="M464.88,365.35V346.86a.27.27,0,0,1,.54,0v18.23h15.86a.26.26,0,0,1,.27.26.27.27,0,0,1-.27.26H465.15a.27.27,0,0,1-.27-.26Z" transform="translate(-371.97 -289.59)"/><path class="cls-1" d="M461.1,370.07V346.14a.27.27,0,0,1,.53,0v23.67h16a.26.26,0,1,1,0,.52H461.37a.26.26,0,0,1-.27-.26Z" transform="translate(-371.97 -289.59)"/><path class="cls-2" d="M461.1,370.07V346.14a.27.27,0,0,1,.53,0v23.67h16a.26.26,0,1,1,0,.52H461.37a.26.26,0,0,1-.27-.26Z" transform="translate(-371.97 -289.59)"/><path class="cls-1" d="M468,361.39V346.83a.27.27,0,0,1,.54,0v14.3h7.72a.26.26,0,1,1,0,.52h-8a.27.27,0,0,1-.27-.26Z" transform="translate(-371.97 -289.59)"/><path class="cls-2" d="M468,361.39V346.83a.27.27,0,0,1,.54,0v14.3h7.72a.26.26,0,1,1,0,.52h-8a.27.27,0,0,1-.27-.26Z" transform="translate(-371.97 -289.59)"/><path class="cls-1" d="M475.63,361.39a2,2,0,1,1,2,2,2,2,0,0,1-2-2Z" transform="translate(-371.97 -289.59)"/><path class="cls-2" d="M475.63,361.39a2,2,0,1,1,2,2,2,2,0,0,1-2-2Z" transform="translate(-371.97 -289.59)"/><path class="cls-1" d="M479.42,365.35a2,2,0,1,1,2,2,2,2,0,0,1-2-2Z" transform="translate(-371.97 -289.59)"/><path class="cls-2" d="M479.42,365.35a2,2,0,1,1,2,2,2,2,0,0,1-2-2Z" transform="translate(-371.97 -289.59)"/><path class="cls-1" d="M475.63,370.07a2,2,0,1,1,2,2,2,2,0,0,1-2-2Z" transform="translate(-371.97 -289.59)"/><path class="cls-2" d="M475.63,370.07a2,2,0,1,1,2,2,2,2,0,0,1-2-2Z" transform="translate(-371.97 -289.59)"/><path class="cls-1" d="M457.58,374.56V349a.27.27,0,0,1,.54,0v25.52a.27.27,0,0,1-.54,0Z" transform="translate(-371.97 -289.59)"/><path class="cls-2" d="M457.58,374.56V349a.27.27,0,0,1,.54,0v25.52a.27.27,0,0,1-.54,0Z" transform="translate(-371.97 -289.59)"/><path class="cls-1" d="M459.88,375a2,2,0,1,0-2,2,2,2,0,0,0,2-2Z" transform="translate(-371.97 -289.59)"/><path class="cls-2" d="M459.88,375a2,2,0,1,0-2,2,2,2,0,0,0,2-2Z" transform="translate(-371.97 -289.59)"/><path class="cls-1" d="M464.88,339V320.51a.26.26,0,0,1,.27-.26h16.13a.26.26,0,0,1,.27.26.27.27,0,0,1-.27.27H465.42V339a.27.27,0,0,1-.54,0Z" transform="translate(-371.97 -289.59)"/><path class="cls-2" d="M464.88,339V320.51a.26.26,0,0,1,.27-.26h16.13a.26.26,0,0,1,.27.26.27.27,0,0,1-.27.27H465.42V339a.27.27,0,0,1-.54,0Z" transform="translate(-371.97 -289.59)"/><path class="cls-1" d="M461.1,339.72V315.79a.27.27,0,0,1,.27-.26h16.29a.27.27,0,0,1,.27.26.26.26,0,0,1-.27.26h-16v23.67a.27.27,0,0,1-.53,0Z" transform="translate(-371.97 -289.59)"/><path class="cls-2" d="M461.1,339.72V315.79a.27.27,0,0,1,.27-.26h16.29a.27.27,0,0,1,.27.26.26.26,0,0,1-.27.26h-16v23.67a.27.27,0,0,1-.53,0Z" transform="translate(-371.97 -289.59)"/><path class="cls-1" d="M468,339V324.47a.27.27,0,0,1,.27-.27h8a.27.27,0,1,1,0,.53h-7.72V339a.27.27,0,1,1-.54,0Z" transform="translate(-371.97 -289.59)"/><path class="cls-2" d="M468,339V324.47a.27.27,0,0,1,.27-.27h8a.27.27,0,1,1,0,.53h-7.72V339a.27.27,0,1,1-.54,0Z" transform="translate(-371.97 -289.59)"/><path class="cls-1" d="M475.63,324.47a2,2,0,1,0,2-2,2,2,0,0,0-2,2Z" transform="translate(-371.97 -289.59)"/><path class="cls-2" d="M475.63,324.47a2,2,0,1,0,2-2,2,2,0,0,0-2,2Z" transform="translate(-371.97 -289.59)"/><path class="cls-1" d="M479.42,320.51a2,2,0,1,0,2-2,2,2,0,0,0-2,2Z" transform="translate(-371.97 -289.59)"/><path class="cls-2" d="M479.42,320.51a2,2,0,1,0,2-2,2,2,0,0,0-2,2Z" transform="translate(-371.97 -289.59)"/><path class="cls-1" d="M475.63,315.79a2,2,0,1,0,2-2,2,2,0,0,0-2,2Z" transform="translate(-371.97 -289.59)"/><path class="cls-2" d="M475.63,315.79a2,2,0,1,0,2-2,2,2,0,0,0-2,2Z" transform="translate(-371.97 -289.59)"/><path class="cls-1" d="M434.15,320.51a.26.26,0,0,1,.27-.26h16.14a.26.26,0,0,1,.26.26V339a.27.27,0,0,1-.53,0V320.78H434.42a.27.27,0,0,1-.27-.27Z" transform="translate(-371.97 -289.59)"/><path class="cls-2" d="M434.15,320.51a.26.26,0,0,1,.27-.26h16.14a.26.26,0,0,1,.26.26V339a.27.27,0,0,1-.53,0V320.78H434.42a.27.27,0,0,1-.27-.27Z" transform="translate(-371.97 -289.59)"/><path class="cls-1" d="M437.77,315.79a.27.27,0,0,1,.27-.26h16.3a.26.26,0,0,1,.26.26v23.93a.27.27,0,0,1-.53,0V316.05H438a.26.26,0,0,1-.27-.26Z" transform="translate(-371.97 -289.59)"/><path class="cls-2" d="M437.77,315.79a.27.27,0,0,1,.27-.26h16.3a.26.26,0,0,1,.26.26v23.93a.27.27,0,0,1-.53,0V316.05H438a.26.26,0,0,1-.27-.26Z" transform="translate(-371.97 -289.59)"/><path class="cls-1" d="M439.23,324.47a.27.27,0,0,1,.26-.27h8a.27.27,0,0,1,.27.27V339a.27.27,0,0,1-.27.27.26.26,0,0,1-.26-.27v-14.3h-7.73a.26.26,0,0,1-.26-.26Z" transform="translate(-371.97 -289.59)"/><path class="cls-2" d="M439.23,324.47a.27.27,0,0,1,.26-.27h8a.27.27,0,0,1,.27.27V339a.27.27,0,0,1-.27.27.26.26,0,0,1-.26-.27v-14.3h-7.73a.26.26,0,0,1-.26-.26Z" transform="translate(-371.97 -289.59)"/><path class="cls-1" d="M440.08,324.47a2,2,0,1,1-2-2,2,2,0,0,1,2,2Z" transform="translate(-371.97 -289.59)"/><path class="cls-2" d="M440.08,324.47a2,2,0,1,1-2-2,2,2,0,0,1,2,2Z" transform="translate(-371.97 -289.59)"/><path class="cls-1" d="M436.29,320.51a2,2,0,1,1-2-2,2,2,0,0,1,2,2Z" transform="translate(-371.97 -289.59)"/><path class="cls-2" d="M436.29,320.51a2,2,0,1,1-2-2,2,2,0,0,1,2,2Z" transform="translate(-371.97 -289.59)"/><path class="cls-1" d="M440.08,315.79a2,2,0,1,1-2-2,2,2,0,0,1,2,2Z" transform="translate(-371.97 -289.59)"/><path class="cls-2" d="M440.08,315.79a2,2,0,1,1-2-2,2,2,0,0,1,2,2Z" transform="translate(-371.97 -289.59)"/><path class="cls-1" d="M457.58,336.82V311.3a.27.27,0,0,1,.54,0v25.52a.27.27,0,0,1-.54,0Z" transform="translate(-371.97 -289.59)"/><path class="cls-2" d="M457.58,336.82V311.3a.27.27,0,0,1,.54,0v25.52a.27.27,0,0,1-.54,0Z" transform="translate(-371.97 -289.59)"/><path class="cls-1" d="M455.82,310.82a2,2,0,1,0,2-2,2,2,0,0,0-2,2Z" transform="translate(-371.97 -289.59)"/><path class="cls-2" d="M455.82,310.82a2,2,0,1,0,2-2,2,2,0,0,0-2,2Z" transform="translate(-371.97 -289.59)"/><path class="cls-1" d="M409.79,358.32a.26.26,0,0,1,.26-.26h15.59l10.42-9.24a.28.28,0,0,1,.38,0,.26.26,0,0,1,0,.37l-10.5,9.3a.23.23,0,0,1-.18.07H410.05a.26.26,0,0,1-.26-.26Z" transform="translate(-371.97 -289.59)"/><path class="cls-2" d="M409.79,358.32a.26.26,0,0,1,.26-.26h15.59l10.42-9.24a.28.28,0,0,1,.38,0,.26.26,0,0,1,0,.37l-10.5,9.3a.23.23,0,0,1-.18.07H410.05a.26.26,0,0,1-.26-.26Z" transform="translate(-371.97 -289.59)"/><path class="cls-1" d="M413.75,353.67a.26.26,0,0,1,.27-.26h11.62l10.42-9.24a.27.27,0,0,1,.38,0,.26.26,0,0,1,0,.37l-10.5,9.3a.23.23,0,0,1-.18.07H414a.26.26,0,0,1-.27-.26Z" transform="translate(-371.97 -289.59)"/><path class="cls-2" d="M413.75,353.67a.26.26,0,0,1,.27-.26h11.62l10.42-9.24a.27.27,0,0,1,.38,0,.26.26,0,0,1,0,.37l-10.5,9.3a.23.23,0,0,1-.18.07H414a.26.26,0,0,1-.27-.26Z" transform="translate(-371.97 -289.59)"/><path class="cls-1" d="M409.79,349a.27.27,0,0,1,.26-.27h15.59l10.42-9.23a.27.27,0,0,1,.38,0,.26.26,0,0,1,0,.37l-10.5,9.3a.23.23,0,0,1-.18.07H410.05a.26.26,0,0,1-.26-.26Z" transform="translate(-371.97 -289.59)"/><path class="cls-2" d="M409.79,349a.27.27,0,0,1,.26-.27h15.59l10.42-9.23a.27.27,0,0,1,.38,0,.26.26,0,0,1,0,.37l-10.5,9.3a.23.23,0,0,1-.18.07H410.05a.26.26,0,0,1-.26-.26Z" transform="translate(-371.97 -289.59)"/><path class="cls-1" d="M406.92,349a2,2,0,1,1,2,1.93,2,2,0,0,1-2-1.93Z" transform="translate(-371.97 -289.59)"/><path class="cls-2" d="M406.92,349a2,2,0,1,1,2,1.93,2,2,0,0,1-2-1.93Z" transform="translate(-371.97 -289.59)"/><path class="cls-1" d="M410.88,353.67a2,2,0,1,1,2,1.94,2,2,0,0,1-2-1.94Z" transform="translate(-371.97 -289.59)"/><path class="cls-2" d="M410.88,353.67a2,2,0,1,1,2,1.94,2,2,0,0,1-2-1.94Z" transform="translate(-371.97 -289.59)"/><path class="cls-1" d="M406.92,358.32a2,2,0,1,1,2,1.94,2,2,0,0,1-2-1.94Z" transform="translate(-371.97 -289.59)"/><path class="cls-2" d="M406.92,358.32a2,2,0,1,1,2,1.94,2,2,0,0,1-2-1.94Z" transform="translate(-371.97 -289.59)"/><path class="cls-1" d="M409.79,330a.26.26,0,0,1,.26-.26h15.69a.26.26,0,0,1,.18.06l10.5,9.31a.26.26,0,0,1,0,.37.28.28,0,0,1-.38,0l-10.42-9.24H410.05a.26.26,0,0,1-.26-.26Z" transform="translate(-371.97 -289.59)"/><path class="cls-2" d="M409.79,330a.26.26,0,0,1,.26-.26h15.69a.26.26,0,0,1,.18.06l10.5,9.31a.26.26,0,0,1,0,.37.28.28,0,0,1-.38,0l-10.42-9.24H410.05a.26.26,0,0,1-.26-.26Z" transform="translate(-371.97 -289.59)"/><path class="cls-1" d="M413.75,334.68a.27.27,0,0,1,.27-.26h11.72a.23.23,0,0,1,.18.07l10.5,9.3a.26.26,0,0,1,0,.37.27.27,0,0,1-.38,0L425.64,335H414a.27.27,0,0,1-.27-.27Z" transform="translate(-371.97 -289.59)"/><path class="cls-2" d="M413.75,334.68a.27.27,0,0,1,.27-.26h11.72a.23.23,0,0,1,.18.07l10.5,9.3a.26.26,0,0,1,0,.37.27.27,0,0,1-.38,0L425.64,335H414a.27.27,0,0,1-.27-.27Z" transform="translate(-371.97 -289.59)"/><path class="cls-1" d="M409.79,339.33a.26.26,0,0,1,.26-.26h15.69a.23.23,0,0,1,.18.07l10.5,9.3a.26.26,0,0,1,0,.37.27.27,0,0,1-.38,0l-10.42-9.23H410.05a.27.27,0,0,1-.26-.27Z" transform="translate(-371.97 -289.59)"/><path class="cls-2" d="M409.79,339.33a.26.26,0,0,1,.26-.26h15.69a.23.23,0,0,1,.18.07l10.5,9.3a.26.26,0,0,1,0,.37.27.27,0,0,1-.38,0l-10.42-9.23H410.05a.27.27,0,0,1-.26-.27Z" transform="translate(-371.97 -289.59)"/><path class="cls-1" d="M406.92,339.33a2,2,0,1,0,2-1.94,2,2,0,0,0-2,1.94Z" transform="translate(-371.97 -289.59)"/><path class="cls-2" d="M406.92,339.33a2,2,0,1,0,2-1.94,2,2,0,0,0-2,1.94Z" transform="translate(-371.97 -289.59)"/><path class="cls-1" d="M410.88,334.68a2,2,0,1,0,2-1.93,2,2,0,0,0-2,1.93Z" transform="translate(-371.97 -289.59)"/><path class="cls-2" d="M410.88,334.68a2,2,0,1,0,2-1.93,2,2,0,0,0-2,1.93Z" transform="translate(-371.97 -289.59)"/><path class="cls-1" d="M406.92,330a2,2,0,1,0,2-1.94,2,2,0,0,0-2,1.94Z" transform="translate(-371.97 -289.59)"/><path class="cls-2" d="M406.92,330a2,2,0,1,0,2-1.94,2,2,0,0,0-2,1.94Z" transform="translate(-371.97 -289.59)"/><path class="cls-1" d="M479.2,349a.26.26,0,0,1,.07-.18.28.28,0,0,1,.38,0l10.41,9.24h15.59a.26.26,0,1,1,0,.52H490a.24.24,0,0,1-.18-.07l-10.5-9.3a.27.27,0,0,1-.08-.19Z" transform="translate(-371.97 -289.59)"/><path class="cls-2" d="M479.2,349a.26.26,0,0,1,.07-.18.28.28,0,0,1,.38,0l10.41,9.24h15.59a.26.26,0,1,1,0,.52H490a.24.24,0,0,1-.18-.07l-10.5-9.3a.27.27,0,0,1-.08-.19Z" transform="translate(-371.97 -289.59)"/><path class="cls-1" d="M479.2,344.37a.24.24,0,0,1,.07-.18.27.27,0,0,1,.38,0l10.41,9.24h11.62a.26.26,0,1,1,0,.52H490a.24.24,0,0,1-.18-.07l-10.5-9.3a.27.27,0,0,1-.08-.19Z" transform="translate(-371.97 -289.59)"/><path class="cls-2" d="M479.2,344.37a.24.24,0,0,1,.07-.18.27.27,0,0,1,.38,0l10.41,9.24h11.62a.26.26,0,1,1,0,.52H490a.24.24,0,0,1-.18-.07l-10.5-9.3a.27.27,0,0,1-.08-.19Z" transform="translate(-371.97 -289.59)"/><path class="cls-1" d="M479.2,339.72a.24.24,0,0,1,.07-.18.27.27,0,0,1,.38,0l10.41,9.23h15.59a.27.27,0,1,1,0,.53H490a.24.24,0,0,1-.18-.07l-10.5-9.3a.27.27,0,0,1-.08-.19Z" transform="translate(-371.97 -289.59)"/><path class="cls-2" d="M479.2,339.72a.24.24,0,0,1,.07-.18.27.27,0,0,1,.38,0l10.41,9.23h15.59a.27.27,0,1,1,0,.53H490a.24.24,0,0,1-.18-.07l-10.5-9.3a.27.27,0,0,1-.08-.19Z" transform="translate(-371.97 -289.59)"/><path class="cls-1" d="M508.78,349a2,2,0,1,0-2,1.93,2,2,0,0,0,2-1.93Z" transform="translate(-371.97 -289.59)"/><path class="cls-2" d="M508.78,349a2,2,0,1,0-2,1.93,2,2,0,0,0,2-1.93Z" transform="translate(-371.97 -289.59)"/><path class="cls-1" d="M504.83,353.67a2,2,0,1,0-2,1.94,2,2,0,0,0,2-1.94Z" transform="translate(-371.97 -289.59)"/><path class="cls-2" d="M504.83,353.67a2,2,0,1,0-2,1.94,2,2,0,0,0,2-1.94Z" transform="translate(-371.97 -289.59)"/><path class="cls-1" d="M508.78,358.32a2,2,0,1,0-2,1.94,2,2,0,0,0,2-1.94Z" transform="translate(-371.97 -289.59)"/><path class="cls-2" d="M508.78,358.32a2,2,0,1,0-2,1.94,2,2,0,0,0,2-1.94Z" transform="translate(-371.97 -289.59)"/><path class="cls-1" d="M479.2,339.33a.27.27,0,0,1,.08-.19l10.5-9.31a.28.28,0,0,1,.18-.06h15.69a.26.26,0,0,1,.27.26.27.27,0,0,1-.27.26H490.06l-10.41,9.24a.28.28,0,0,1-.38,0,.24.24,0,0,1-.07-.18Z" transform="translate(-371.97 -289.59)"/><path class="cls-2" d="M479.2,339.33a.27.27,0,0,1,.08-.19l10.5-9.31a.28.28,0,0,1,.18-.06h15.69a.26.26,0,0,1,.27.26.27.27,0,0,1-.27.26H490.06l-10.41,9.24a.28.28,0,0,1-.38,0,.24.24,0,0,1-.07-.18Z" transform="translate(-371.97 -289.59)"/><path class="cls-1" d="M479.2,344a.27.27,0,0,1,.08-.19l10.5-9.3a.24.24,0,0,1,.18-.07h11.72a.27.27,0,1,1,0,.53H490.06l-10.41,9.23a.27.27,0,0,1-.38,0,.24.24,0,0,1-.07-.18Z" transform="translate(-371.97 -289.59)"/><path class="cls-2" d="M479.2,344a.27.27,0,0,1,.08-.19l10.5-9.3a.24.24,0,0,1,.18-.07h11.72a.27.27,0,1,1,0,.53H490.06l-10.41,9.23a.27.27,0,0,1-.38,0,.24.24,0,0,1-.07-.18Z" transform="translate(-371.97 -289.59)"/><path class="cls-1" d="M479.2,348.64a.28.28,0,0,1,.08-.2l10.5-9.3a.24.24,0,0,1,.18-.07h15.69a.27.27,0,1,1,0,.53H490.06l-10.41,9.23a.27.27,0,0,1-.38,0,.23.23,0,0,1-.07-.17Z" transform="translate(-371.97 -289.59)"/><path class="cls-2" d="M479.2,348.64a.28.28,0,0,1,.08-.2l10.5-9.3a.24.24,0,0,1,.18-.07h15.69a.27.27,0,1,1,0,.53H490.06l-10.41,9.23a.27.27,0,0,1-.38,0,.23.23,0,0,1-.07-.17Z" transform="translate(-371.97 -289.59)"/><path class="cls-1" d="M508.78,339.33a2,2,0,1,1-2-1.94,2,2,0,0,1,2,1.94Z" transform="translate(-371.97 -289.59)"/><path class="cls-2" d="M508.78,339.33a2,2,0,1,1-2-1.94,2,2,0,0,1,2,1.94Z" transform="translate(-371.97 -289.59)"/><path class="cls-1" d="M504.83,334.68a2,2,0,1,1-2-1.93,2,2,0,0,1,2,1.93Z" transform="translate(-371.97 -289.59)"/><path class="cls-2" d="M504.83,334.68a2,2,0,1,1-2-1.93,2,2,0,0,1,2,1.93Z" transform="translate(-371.97 -289.59)"/><path class="cls-1" d="M508.78,330a2,2,0,1,1-2-1.94,2,2,0,0,1,2,1.94Z" transform="translate(-371.97 -289.59)"/><path class="cls-2" d="M508.78,330a2,2,0,1,1-2-1.94,2,2,0,0,1,2,1.94Z" transform="translate(-371.97 -289.59)"/><polygon class="cls-1" points="64.29 47.14 107.47 47.14 107.47 59.54 64.29 59.54 64.29 47.14 64.29 47.14"/></svg>