<svg id="Layer_1" data-name="Layer 1" xmlns="http://www.w3.org/2000/svg" viewBox="0 0 80.24 92.63"><defs><style>.cls-1{fill:#fff;}.cls-2{fill:#876052;}.cls-3{fill:#fcda78;}</style></defs><path class="cls-1" d="M402.16,291h45.43v35.78c0,.79-.8,1.39-1.86,1.39H404c-1.06,0-1.86-.6-1.86-1.39V291Z" transform="translate(-385.17 -266.79)"/><path class="cls-2" d="M403,291.63v35.19c0,.47.43.79,1.06.79h41.71c.63,0,1.06-.32,1.06-.79V291.63Zm42.77,37.17H404c-1.52,0-2.66-.85-2.66-2V291c0-.33.36-.6.8-.6h45.43c.44,0,.8.27.8.6v35.78c0,1.13-1.14,2-2.66,2Z" transform="translate(-385.17 -266.79)"/><path class="cls-3" d="M460.61,291h-13v10.14h13a1,1,0,0,0,1.06-1V292a1,1,0,0,0-1.06-1Z" transform="translate(-385.17 -266.79)"/><path class="cls-2" d="M448.39,300.58h12.22a.38.38,0,0,0,.26-.4V292a.38.38,0,0,0-.26-.4H448.39v8.95Zm12.22,1.19h-13c-.44,0-.8-.27-.8-.59V291c0-.33.36-.6.8-.6h13a1.74,1.74,0,0,1,1.86,1.59v8.15a1.74,1.74,0,0,1-1.86,1.59Z" transform="translate(-385.17 -266.79)"/><path class="cls-3" d="M402.16,291H388.61a.54.54,0,0,0-.53.59v8.95a.54.54,0,0,0,.53.6h13a.55.55,0,0,0,.53-.6V291Z" transform="translate(-385.17 -266.79)"/><path class="cls-2" d="M388.87,300.58h12.49v-8.95H388.87v8.95Zm12.76,1.19h-13a1.23,1.23,0,0,1-1.33-1.19v-8.95a1.23,1.23,0,0,1,1.33-1.19h13.55c.44,0,.8.27.8.6v9.54a1.23,1.23,0,0,1-1.33,1.19Z" transform="translate(-385.17 -266.79)"/><path class="cls-3" d="M408.27,347.29h9.3V328.61c0-.2,0-.4-.27-.4h-8.5c-.26,0-.53.2-.53.4v18.68Z" transform="translate(-385.17 -266.79)"/><path class="cls-2" d="M409.07,346.69h7.7V328.8h-7.7v17.89Zm8.5,1.2h-9.3c-.44,0-.8-.27-.8-.6V328.61c0-.53.62-1,1.33-1h8.5a1,1,0,0,1,1.07,1v18.68c0,.33-.36.6-.8.6Z" transform="translate(-385.17 -266.79)"/><path class="cls-3" d="M432.18,347.29h9.3V328.61c0-.2-.27-.4-.53-.4h-8.5c-.27,0-.27.2-.27.4v18.68Z" transform="translate(-385.17 -266.79)"/><path class="cls-2" d="M433,346.69h7.7V328.8H433v17.89Zm8.5,1.2h-9.3c-.44,0-.8-.27-.8-.6V328.61a1,1,0,0,1,1.07-1H441c.71,0,1.33.47,1.33,1v18.68c0,.33-.36.6-.8.6Z" transform="translate(-385.17 -266.79)"/><path class="cls-3" d="M430.85,347.29h17.54v6c0,.2,0,.4-.27.4h-17c-.27,0-.27-.2-.27-.4v-6Z" transform="translate(-385.17 -266.79)"/><path class="cls-2" d="M431.65,353.06h15.94v-5.17H431.65v5.17Zm16.47,1.19h-17a1,1,0,0,1-1.06-1v-6a.71.71,0,0,1,.79-.6h17.54a.71.71,0,0,1,.79.6v6a1,1,0,0,1-1.06,1Z" transform="translate(-385.17 -266.79)"/><path class="cls-3" d="M402.16,347.29h17.53v6c0,.2,0,.4-.26.4h-17c-.26,0-.26-.2-.26-.4v-6Z" transform="translate(-385.17 -266.79)"/><path class="cls-2" d="M403,353.06H418.9v-5.17H403v5.17Zm16.47,1.19h-17a1,1,0,0,1-1.06-1v-6c0-.33.36-.6.8-.6h17.53c.44,0,.8.27.8.6v6a1,1,0,0,1-1.06,1Z" transform="translate(-385.17 -266.79)"/><path class="cls-1" d="M402.16,291h45.43v21.27c0,.39-.53.79-1.33.79H403.49c-.8,0-1.33-.4-1.33-.79V291Z" transform="translate(-385.17 -266.79)"/><path class="cls-2" d="M403,291.63v20.68s.16.2.53.2h42.77c.37,0,.53-.16.53-.2V291.63Zm43.3,22.07H403.49c-1.17,0-2.13-.63-2.13-1.39V291c0-.33.36-.6.8-.6h45.43c.44,0,.8.27.8.6v21.27c0,.76-1,1.39-2.13,1.39Z" transform="translate(-385.17 -266.79)"/><polygon class="cls-3" points="31.87 18.88 47.55 18.88 47.55 24.25 31.87 24.25 31.87 18.88 31.87 18.88"/><path class="cls-2" d="M417.83,290.44h14.09v-4.17H417.83v4.17Zm14.88,1.19H417c-.44,0-.8-.26-.8-.59v-5.37c0-.33.36-.6.8-.6h15.67c.44,0,.8.27.8.6V291c0,.33-.36.59-.8.59Z" transform="translate(-385.17 -266.79)"/><path class="cls-2" d="M413.05,268c-1.61,0-3.19,1.08-3.19,2.19v12.52c0,1.27,1.49,2.38,3.19,2.38H436.7c1.7,0,3.19-1.11,3.19-2.38V270.17c0-1.11-1.58-2.19-3.19-2.19Zm23.65,18.29H413.05c-2.55,0-4.78-1.67-4.78-3.58V270.17c0-1.77,2.28-3.38,4.78-3.38H436.7c2.5,0,4.78,1.61,4.78,3.38v12.52c0,1.91-2.23,3.58-4.78,3.58Z" transform="translate(-385.17 -266.79)"/><path class="cls-1" d="M440.69,282.09H409.08c-.44,0-.8-.26-.8-.59s.36-.6.8-.6h31.61c.44,0,.8.27.8.6s-.36.59-.8.59Z" transform="translate(-385.17 -266.79)"/><path class="cls-3" d="M460.34,318.07H447.59V297.6h12.75c.8,0,1.33.39,1.33,1v18.69c0,.39-.53.79-1.33.79Z" transform="translate(-385.17 -266.79)"/><path class="cls-2" d="M448.39,317.47h11.95c.38,0,.53-.15.53-.19V298.59c0-.27-.17-.4-.53-.4H448.39v19.28Zm11.95,1.2H447.59c-.44,0-.8-.27-.8-.6V297.6c0-.33.36-.6.8-.6h12.75c1.24,0,2.13.67,2.13,1.59v18.69c0,.76-1,1.39-2.13,1.39Z" transform="translate(-385.17 -266.79)"/><path class="cls-3" d="M401.1,318.07h-13V297.4h13a1,1,0,0,1,1.06,1v18.89c0,.39-.53.79-1.06.79Z" transform="translate(-385.17 -266.79)"/><path class="cls-2" d="M388.87,317.47H401.1c.09,0,.26-.13.26-.19V298.39a.38.38,0,0,0-.26-.4H388.87v19.48Zm12.23,1.2h-13c-.44,0-.8-.27-.8-.6V297.4c0-.33.36-.6.8-.6h13a1.75,1.75,0,0,1,1.86,1.59v18.89c0,.72-.89,1.39-1.86,1.39Z" transform="translate(-385.17 -266.79)"/><path class="cls-1" d="M441.49,317.28H408.28c-.44,0-.8-.27-.8-.6s.36-.6.8-.6h33.21c.44,0,.8.27.8.6s-.36.6-.8.6Z" transform="translate(-385.17 -266.79)"/><path class="cls-1" d="M441.49,320.85H408.28c-.44,0-.8-.26-.8-.59s.36-.6.8-.6h33.21c.44,0,.8.27.8.6s-.36.59-.8.59Z" transform="translate(-385.17 -266.79)"/><path class="cls-1" d="M441.49,324.63H408.28c-.44,0-.8-.27-.8-.6s.36-.59.8-.59h33.21c.44,0,.8.26.8.59s-.36.6-.8.6Z" transform="translate(-385.17 -266.79)"/><path class="cls-3" d="M444.67,282.49h-3.19a.76.76,0,0,1-.8-.6v-6.36a.75.75,0,0,1,.8-.59h3.19a.75.75,0,0,1,.8.59v6.36a.76.76,0,0,1-.8.6Z" transform="translate(-385.17 -266.79)"/><path class="cls-2" d="M441.5,281.89h3.14l0,0v-6.3l0,0H441.5s0,0,0,0v6.3l0,0Zm3.17,1.2h-3.19a1.46,1.46,0,0,1-1.59-1.2v-6.36a1.46,1.46,0,0,1,1.59-1.19h3.19a1.47,1.47,0,0,1,1.59,1.19v6.36a1.47,1.47,0,0,1-1.59,1.2Z" transform="translate(-385.17 -266.79)"/><path class="cls-3" d="M408.27,282.49h-3.45c-.27,0-.54-.4-.54-.6v-6.36c0-.2.27-.59.54-.59h3.45a.75.75,0,0,1,.8.59v6.36a.76.76,0,0,1-.8.6Z" transform="translate(-385.17 -266.79)"/><path class="cls-2" d="M405.09,281.89h3.16l0,0v-6.3s0,0,0,0h-3.16v6.36Zm3.18,1.2h-3.45a1.36,1.36,0,0,1-1.33-1.2v-6.36a1.36,1.36,0,0,1,1.33-1.19h3.45a1.46,1.46,0,0,1,1.59,1.19v6.36a1.46,1.46,0,0,1-1.59,1.2Z" transform="translate(-385.17 -266.79)"/><path class="cls-3" d="M452.11,347.29h-3.72v6.16s0,.2.26.2h3.19c.27,0,.27-.2.27-.2v-6.16Z" transform="translate(-385.17 -266.79)"/><path class="cls-2" d="M449.18,353.06h2.13v-5.17h-2.13v5.17Zm2.66,1.19h-3.19c-.66,0-1.06-.41-1.06-.8v-6.16c0-.33.36-.6.8-.6h3.72a.71.71,0,0,1,.79.6v6.16c0,.39-.39.8-1.06.8Z" transform="translate(-385.17 -266.79)"/><polygon class="cls-1" points="16.99 80.5 13.27 80.5 13.27 86.67 13.27 86.86 16.73 86.86 16.99 86.67 16.99 80.5 16.99 80.5"/><path class="cls-2" d="M399.24,353.06h2.12v-5.17h-2.12v5.17Zm2.65,1.19h-3.45c-.44,0-.8-.27-.8-.6v-6.36c0-.33.36-.6.8-.6h3.72c.44,0,.8.27.8.6v6.16a.53.53,0,0,1-.24.42l-.26.2a.92.92,0,0,1-.57.18Z" transform="translate(-385.17 -266.79)"/><path class="cls-1" d="M441.49,357H387.82a.71.71,0,0,1-.79-.6c0-.32.35-.59.79-.59h53.67c.44,0,.8.27.8.59s-.36.6-.8.6Z" transform="translate(-385.17 -266.79)"/><path class="cls-1" d="M456.37,359.42h-37.2a.62.62,0,1,1,0-1.2h37.2c.44,0,.8.27.8.6s-.36.6-.8.6Z" transform="translate(-385.17 -266.79)"/><path class="cls-1" d="M464.6,359.42h-4.51c-.44,0-.8-.27-.8-.6s.36-.6.8-.6h4.51c.45,0,.8.27.8.6s-.35.6-.8.6Z" transform="translate(-385.17 -266.79)"/><path class="cls-1" d="M403.5,359.42H386a.62.62,0,1,1,0-1.2H403.5a.62.62,0,1,1,0,1.2Z" transform="translate(-385.17 -266.79)"/><path class="cls-3" d="M438.82,307.54a1.4,1.4,0,1,1,0,2.78c-1.06,0-1.86-.6-1.86-1.39s.8-1.39,1.86-1.39Z" transform="translate(-385.17 -266.79)"/><path class="cls-2" d="M438.82,308.13c-.62,0-1.06.33-1.06.8s.44.79,1.06.79a.8.8,0,1,0,0-1.59Zm0,2.79c-1.51,0-2.65-.86-2.65-2s1.14-2,2.65-2a2,2,0,1,1,0,4Z" transform="translate(-385.17 -266.79)"/><path class="cls-3" d="M429.52,307.54c1.07,0,1.86.59,1.86,1.39s-.79,1.39-1.86,1.39-1.86-.6-1.86-1.39.8-1.39,1.86-1.39Z" transform="translate(-385.17 -266.79)"/><path class="cls-2" d="M429.52,308.13c-.62,0-1.06.33-1.06.8s.44.79,1.06.79,1.07-.32,1.07-.79-.44-.8-1.07-.8Zm0,2.79c-1.51,0-2.65-.86-2.65-2s1.14-2,2.65-2,2.66.85,2.66,2-1.14,2-2.66,2Z" transform="translate(-385.17 -266.79)"/><path class="cls-1" d="M420.23,307.54c1.06,0,1.86.59,1.86,1.39s-.8,1.39-1.86,1.39-1.86-.6-1.86-1.39.79-1.39,1.86-1.39Z" transform="translate(-385.17 -266.79)"/><path class="cls-2" d="M420.23,308.13c-.63,0-1.07.33-1.07.8s.44.79,1.07.79,1.06-.32,1.06-.79-.44-.8-1.06-.8Zm0,2.79c-1.52,0-2.66-.86-2.66-2s1.14-2,2.66-2,2.65.85,2.65,2-1.14,2-2.65,2Z" transform="translate(-385.17 -266.79)"/><path class="cls-3" d="M410.93,307.54c1.06,0,1.86.59,1.86,1.39s-.8,1.39-1.86,1.39-1.86-.6-1.86-1.39.79-1.39,1.86-1.39Z" transform="translate(-385.17 -266.79)"/><path class="cls-2" d="M410.93,308.13c-.63,0-1.07.33-1.07.8s.44.79,1.07.79,1.06-.32,1.06-.79-.44-.8-1.06-.8Zm0,2.79c-1.52,0-2.66-.86-2.66-2s1.14-2,2.66-2,2.65.85,2.65,2-1.14,2-2.65,2Z" transform="translate(-385.17 -266.79)"/><path class="cls-1" d="M454.51,323.64c-.44,0-.8-.27-.8-.6v-5c0-.33.36-.6.8-.6s.8.27.8.6v5c0,.33-.36.6-.8.6Z" transform="translate(-385.17 -266.79)"/><path class="cls-1" d="M454.51,330.59c-3,0-5.31-1.79-5.31-4.17a.71.71,0,0,1,.79-.6c.44,0,.8.27.8.6,0,1.73,1.56,3,3.72,3s3.72-1.25,3.72-3c0-1.37-1.39-2.78-3.72-2.78-.44,0-.8-.27-.8-.6s.36-.6.8-.6c3,0,5.31,1.75,5.31,4s-2.28,4.17-5.31,4.17Z" transform="translate(-385.17 -266.79)"/><path class="cls-1" d="M395.26,323.64c-.44,0-.8-.27-.8-.6v-5c0-.33.36-.6.8-.6s.8.27.8.6v5c0,.33-.36.6-.8.6Z" transform="translate(-385.17 -266.79)"/><path class="cls-1" d="M395.26,330.59c-3.07,0-5.58-1.87-5.58-4.17s2.56-4,5.58-4c.44,0,.8.27.8.6s-.36.6-.8.6c-2.16,0-4,1.27-4,2.78,0,1.67,1.75,3,4,3,2,0,3.72-1.36,3.72-3,0-.33.36-.6.8-.6s.8.27.8.6c0,2.26-2.44,4.17-5.32,4.17Z" transform="translate(-385.17 -266.79)"/><path class="cls-3" d="M408.27,347.29h9.3v-4.17c0-.2,0-.2-.27-.2h-8.76s-.27,0-.27.2v4.17Z" transform="translate(-385.17 -266.79)"/><path class="cls-2" d="M409.07,346.69h7.7v-3.18h-7.7v3.18Zm8.5,1.2h-9.3c-.44,0-.8-.27-.8-.6v-4.17c0-.5.54-.8,1.07-.8h8.76c.71,0,1.07.27,1.07.8v4.17c0,.33-.36.6-.8.6Z" transform="translate(-385.17 -266.79)"/><path class="cls-1" d="M432.18,347.29h9.3v-4.17c0-.2-.27-.2-.27-.2h-8.76c-.27,0-.27,0-.27.2v4.17Z" transform="translate(-385.17 -266.79)"/><path class="cls-2" d="M433,346.69h7.7v-3.18H433v3.18Zm8.5,1.2h-9.3c-.44,0-.8-.27-.8-.6v-4.17c0-.53.36-.8,1.07-.8h8.76c.53,0,1.07.3,1.07.8v4.17c0,.33-.36.6-.8.6Z" transform="translate(-385.17 -266.79)"/><polygon class="cls-3" points="22.57 28.23 56.85 28.23 56.85 38.56 22.57 38.56 22.57 28.23 22.57 28.23"/><path class="cls-2" d="M408.54,304.75h32.67v-9.14H408.54v9.14ZM442,306H407.74c-.44,0-.8-.27-.8-.6V295c0-.33.36-.59.8-.59H442c.44,0,.8.26.8.59v10.34c0,.33-.36.6-.8.6Z" transform="translate(-385.17 -266.79)"/><polygon class="cls-3" points="37.72 30.21 41.7 30.21 41.7 36.38 37.72 36.38 37.72 30.21 37.72 30.21"/><path class="cls-2" d="M423.68,302.57h2.39v-5h-2.39v5Zm3.19,1.19h-4a.71.71,0,0,1-.79-.6V297a.71.71,0,0,1,.79-.6h4a.71.71,0,0,1,.79.6v6.16a.71.71,0,0,1-.79.6Z" transform="translate(-385.17 -266.79)"/></svg>