<svg id="Layer_1" data-name="Layer 1" xmlns="http://www.w3.org/2000/svg" viewBox="0 0 178.55 143.98"><defs><style>.cls-1{fill:#fdd36a;}.cls-2{fill:#92d9f8;}.cls-3{fill:#707384;}</style></defs><path d="M349.34,335.87a1.68,1.68,0,1,0,1.68,1.68,1.68,1.68,0,0,0-1.68-1.68Zm0,5.27a3.59,3.59,0,1,1,3.63-3.59,3.63,3.63,0,0,1-3.63,3.59Z" transform="translate(-216.95 -220.27)"/><path d="M263.13,335.87a1.69,1.69,0,0,0-1.69,1.68,1.7,1.7,0,1,0,1.69-1.68Zm0,5.27a3.59,3.59,0,1,1,3.65-3.59,3.61,3.61,0,0,1-3.65,3.59Z" transform="translate(-216.95 -220.27)"/><path d="M318.58,364.25a1,1,0,0,1-1-1V348.23a1,1,0,0,1,1.94,0v15.06a1,1,0,0,1-1,1Z" transform="translate(-216.95 -220.27)"/><path d="M310.38,364.25a1,1,0,0,1-1-1V348.23a1,1,0,0,1,2,0v15.06a1,1,0,0,1-1,1Z" transform="translate(-216.95 -220.27)"/><path d="M302.16,364.25a1,1,0,0,1-1-1V348.23a1,1,0,0,1,1.95,0v15.06a1,1,0,0,1-1,1Z" transform="translate(-216.95 -220.27)"/><path d="M293.94,364.25a1,1,0,0,1-1-1V348.23a1,1,0,0,1,2,0v15.06a1,1,0,0,1-1,1Z" transform="translate(-216.95 -220.27)"/><path d="M285.74,364.25a1,1,0,0,1-1-1V348.23a1,1,0,0,1,1.95,0v15.06a1,1,0,0,1-1,1Z" transform="translate(-216.95 -220.27)"/><path d="M326.8,364.25a1,1,0,0,1-1-1V348.23a1,1,0,0,1,1.95,0v15.06a1,1,0,0,1-1,1Z" transform="translate(-216.95 -220.27)"/><path class="cls-1" d="M297.72,326.83a8.47,8.47,0,0,0,8.51-8.37,8.52,8.52,0,0,0,11.68,7.76,7.93,7.93,0,0,0,11.77-4.28c5.87,0,9.57-4.64,9.57-10.39a10.7,10.7,0,0,0-.46-3.1l.22-.09a10.31,10.31,0,0,0,0-15.21l.09-.09a10.37,10.37,0,0,0-4.27-14.69l-.2,0a7.9,7.9,0,0,0-4.24-4.78h-.2a10.53,10.53,0,0,0-10.61-10.26,11,11,0,0,0-3.7.65v.07a6.56,6.56,0,0,0-1.18-.09,8.55,8.55,0,0,0-6,2.44,8.31,8.31,0,0,0-2.51,5.93,8.46,8.46,0,0,0-8.51-8.37,6.38,6.38,0,0,0-1.17.09V264a11,11,0,0,0-3.7-.65,10.56,10.56,0,0,0-10.64,10.26H282a7.79,7.79,0,0,0-4.19,4.78l-.22,0a10.43,10.43,0,0,0-5.78,9.31,10.3,10.3,0,0,0,1.51,5.38l.08.09a10.35,10.35,0,0,0,0,15.21l.25.09a10.7,10.7,0,0,0-.47,3.1c0,5.75,3.7,10.39,9.58,10.39a7.92,7.92,0,0,0,11.76,4.28,8.64,8.64,0,0,0,3.17.61Zm-44.05,11.92V252a6.54,6.54,0,0,1,2-4.66,6.71,6.71,0,0,1,4.74-1.94h91.7a6.77,6.77,0,0,1,4.75,1.94,6.54,6.54,0,0,1,2,4.66v86.72a6.59,6.59,0,0,1-2,4.69,6.88,6.88,0,0,1-4.75,1.91h-91.7a6.71,6.71,0,0,1-4.74-1.94,6.44,6.44,0,0,1-2-4.66Zm93-85.49a2.67,2.67,0,1,0,2.68-2.64,2.64,2.64,0,0,0-2.68,2.64Zm0,84.29a2.67,2.67,0,1,0,2.68-2.64,2.67,2.67,0,0,0-2.68,2.64Zm-86.19,0a2.67,2.67,0,1,0,2.66-2.64,2.67,2.67,0,0,0-2.66,2.64Zm2.66-86.93a2.64,2.64,0,1,0,2.68,2.64,2.65,2.65,0,0,0-2.68-2.64Z" transform="translate(-216.95 -220.27)"/><path d="M263.13,251.57a1.69,1.69,0,1,0,1.71,1.69,1.69,1.69,0,0,0-1.71-1.69Zm0,5.28a3.6,3.6,0,1,1,3.65-3.59,3.61,3.61,0,0,1-3.65,3.59Zm86.21-5.28a1.69,1.69,0,1,0,0,3.37,1.69,1.69,0,0,0,0-3.37Zm0,5.28a3.6,3.6,0,1,1,3.63-3.59,3.63,3.63,0,0,1-3.63,3.59Zm-31.43,68.41a1,1,0,0,1,.54.15,6.8,6.8,0,0,0,3.72,1.07,6.88,6.88,0,0,0,6.58-4.81,1,1,0,0,1,.93-.68c5.07,0,8.6-3.88,8.6-9.44a9.58,9.58,0,0,0-.43-2.83,1,1,0,0,1,.57-1.16l.05,0a9.24,9.24,0,0,0,2.93-6.78,9.52,9.52,0,0,0-3-6.92.93.93,0,0,1,0-1.37h0a9.5,9.5,0,0,0,1.31-4.79,9.4,9.4,0,0,0-5-8.33h0a1,1,0,0,1-.93-.68,6.92,6.92,0,0,0-3.53-4.1,1,1,0,0,1-.95-.94,9.6,9.6,0,0,0-9.64-9.32,9.91,9.91,0,0,0-3.08.49h0a1,1,0,0,1-.79.21,5.84,5.84,0,0,0-1-.07,7.48,7.48,0,0,0-5.31,2.16,7.29,7.29,0,0,0-2.22,5.25,1,1,0,0,1-1.95,0,7.48,7.48,0,0,0-7.54-7.41,5.72,5.72,0,0,0-1,.07,1,1,0,0,1-.8-.21h0a9.85,9.85,0,0,0-3.07-.49,9.62,9.62,0,0,0-9.67,9.32,1,1,0,0,1-.95.94,6.75,6.75,0,0,0-3.47,4.09,1,1,0,0,1-1,.69,9.42,9.42,0,0,0-3.7,13.12h0a1,1,0,0,1,.29.69,1,1,0,0,1-.31.68,9.4,9.4,0,0,0-.12,13.69l.05,0a1,1,0,0,1,.6,1.17,9.9,9.9,0,0,0-.42,2.83c0,5.56,3.53,9.44,8.6,9.44a1,1,0,0,1,.93.68,6.93,6.93,0,0,0,10.3,3.74,1,1,0,0,1,.9-.08,7.66,7.66,0,0,0,2.8.54,7.49,7.49,0,0,0,7.54-7.41,1,1,0,0,1,1.95,0,7.48,7.48,0,0,0,7.53,7.41,7.58,7.58,0,0,0,2.8-.54,1,1,0,0,1,.37-.07Zm4.26,3.13a8.89,8.89,0,0,1-4.36-1.11,9.68,9.68,0,0,1-3.07.5,9.52,9.52,0,0,1-8.51-5.21,9.57,9.57,0,0,1-11.57,4.71,8.92,8.92,0,0,1-4.36,1.11,8.73,8.73,0,0,1-8.22-5.51c-5.74-.35-9.84-5-9.84-11.33a11.84,11.84,0,0,1,.32-2.69,11.3,11.3,0,0,1-.38-15.85,11.32,11.32,0,0,1,4.9-15.46,8.65,8.65,0,0,1,4.19-4.64,11.58,11.58,0,0,1,11.58-10.52,11.92,11.92,0,0,1,3.94.68,8.7,8.7,0,0,1,.93-.05,9.52,9.52,0,0,1,8.51,5.21,9.33,9.33,0,0,1,1.82-2.48,9.46,9.46,0,0,1,6.69-2.73,8.75,8.75,0,0,1,.94.05,11.92,11.92,0,0,1,3.94-.68,11.56,11.56,0,0,1,11.55,10.52,8.84,8.84,0,0,1,4.24,4.65A11.33,11.33,0,0,1,340.28,293a11.39,11.39,0,0,1,3.07,7.75,11.16,11.16,0,0,1-3.45,8.09,11.33,11.33,0,0,1,.33,2.7c0,6.32-4.1,11-9.85,11.33a8.84,8.84,0,0,1-8.21,5.51Zm-59,7.48a1.69,1.69,0,0,0-1.69,1.68,1.7,1.7,0,1,0,1.69-1.68Zm0,5.27a3.59,3.59,0,1,1,3.65-3.59,3.61,3.61,0,0,1-3.65,3.59Zm86.21-5.27a1.68,1.68,0,1,0,1.68,1.68,1.68,1.68,0,0,0-1.68-1.68Zm0,5.27a3.59,3.59,0,1,1,3.63-3.59,3.63,3.63,0,0,1-3.63,3.59Zm-89-94.75a5.75,5.75,0,0,0-4.05,1.66,5.54,5.54,0,0,0-1.69,4v86.72a5.49,5.49,0,0,0,1.68,4,5.76,5.76,0,0,0,4.06,1.67h91.7a5.85,5.85,0,0,0,4.07-1.65,5.68,5.68,0,0,0,1.68-4V252a5.54,5.54,0,0,0-1.69-4,5.76,5.76,0,0,0-4.06-1.66Zm91.7,99.92h-91.7a7.72,7.72,0,0,1-5.43-2.22,7.37,7.37,0,0,1-2.26-5.34V252a7.45,7.45,0,0,1,2.26-5.34,7.72,7.72,0,0,1,5.43-2.22h91.7a7.69,7.69,0,0,1,5.43,2.22,7.45,7.45,0,0,1,2.26,5.34v86.72a7.54,7.54,0,0,1-2.26,5.36,7.75,7.75,0,0,1-5.43,2.2Z" transform="translate(-216.95 -220.27)"/><path class="cls-2" d="M306.23,272.35v46.11a8.47,8.47,0,0,1-8.51,8.37,8.64,8.64,0,0,1-3.17-.61,7.92,7.92,0,0,1-11.76-4.28c-5.88,0-9.58-4.64-9.58-10.39a10.7,10.7,0,0,1,.47-3.1l-.25-.09a10.35,10.35,0,0,1,0-15.21l-.08-.09a10.3,10.3,0,0,1-1.51-5.38,10.43,10.43,0,0,1,5.78-9.31l.22,0a7.79,7.79,0,0,1,4.19-4.78h.2a10.56,10.56,0,0,1,10.64-10.26,11,11,0,0,1,3.7.65v.07a6.38,6.38,0,0,1,1.17-.09,8.46,8.46,0,0,1,8.51,8.37Z" transform="translate(-216.95 -220.27)"/><path d="M274,307.53l.05,0a1,1,0,0,1,.6,1.17,9.9,9.9,0,0,0-.42,2.83c0,5.56,3.53,9.44,8.6,9.44a1,1,0,0,1,.93.68,6.93,6.93,0,0,0,10.3,3.74,1,1,0,0,1,.9-.08,7.66,7.66,0,0,0,2.8.54,7.49,7.49,0,0,0,7.54-7.41V272.35a7.48,7.48,0,0,0-7.54-7.41,5.72,5.72,0,0,0-1,.07,1,1,0,0,1-.8-.21h0a9.85,9.85,0,0,0-3.07-.49,9.62,9.62,0,0,0-9.67,9.32,1,1,0,0,1-.95.94,6.75,6.75,0,0,0-3.47,4.09,1,1,0,0,1-1,.69,9.42,9.42,0,0,0-3.7,13.12h0a1,1,0,0,1,.29.69,1,1,0,0,1-.31.68,9.4,9.4,0,0,0-.12,13.69Zm16.34,20.86a8.73,8.73,0,0,1-8.22-5.51c-5.74-.35-9.84-5-9.84-11.33a11.84,11.84,0,0,1,.32-2.69,11.3,11.3,0,0,1-.38-15.85,11.32,11.32,0,0,1,4.9-15.46,8.65,8.65,0,0,1,4.19-4.64,11.58,11.58,0,0,1,11.58-10.52,11.92,11.92,0,0,1,3.94.68,8.7,8.7,0,0,1,.93-.05,9.43,9.43,0,0,1,9.49,9.33v46.11a9.42,9.42,0,0,1-9.49,9.32,9.57,9.57,0,0,1-3.06-.5,8.92,8.92,0,0,1-4.36,1.11Z" transform="translate(-216.95 -220.27)"/><path class="cls-3" d="M306.23,272.35a8.31,8.31,0,0,1,2.51-5.93,8.55,8.55,0,0,1,6-2.44,6.56,6.56,0,0,1,1.18.09V264a11,11,0,0,1,3.7-.65,10.53,10.53,0,0,1,10.61,10.26h.2a7.9,7.9,0,0,1,4.24,4.78l.2,0a10.37,10.37,0,0,1,4.27,14.69l-.09.09a10.31,10.31,0,0,1,0,15.21l-.22.09a10.7,10.7,0,0,1,.46,3.1c0,5.75-3.7,10.39-9.57,10.39a7.93,7.93,0,0,1-11.77,4.28,8.52,8.52,0,0,1-11.68-7.76V272.35Z" transform="translate(-216.95 -220.27)"/><path d="M317.91,325.26a1,1,0,0,1,.54.15,6.8,6.8,0,0,0,3.72,1.07,6.88,6.88,0,0,0,6.58-4.81,1,1,0,0,1,.93-.68c5.07,0,8.6-3.88,8.6-9.44a9.58,9.58,0,0,0-.43-2.83,1,1,0,0,1,.57-1.16l.05,0a9.26,9.26,0,0,0,2.93-6.78,9.52,9.52,0,0,0-3-6.92.93.93,0,0,1,0-1.37h0a9.5,9.5,0,0,0,1.31-4.79,9.4,9.4,0,0,0-5-8.33h0a1,1,0,0,1-.93-.68,6.92,6.92,0,0,0-3.53-4.1,1,1,0,0,1-.95-.94,9.6,9.6,0,0,0-9.64-9.32,9.91,9.91,0,0,0-3.08.49h0a1,1,0,0,1-.79.21,5.84,5.84,0,0,0-1-.07,7.48,7.48,0,0,0-5.31,2.16,7.29,7.29,0,0,0-2.22,5.25v46.11a7.48,7.48,0,0,0,7.53,7.41,7.58,7.58,0,0,0,2.8-.54,1,1,0,0,1,.37-.07Zm4.26,3.13a8.89,8.89,0,0,1-4.36-1.11,9.68,9.68,0,0,1-3.07.5,9.41,9.41,0,0,1-9.48-9.32V272.35a9.19,9.19,0,0,1,2.79-6.6,9.46,9.46,0,0,1,6.69-2.73,8.75,8.75,0,0,1,.94.05,11.92,11.92,0,0,1,3.94-.68,11.56,11.56,0,0,1,11.55,10.52,8.84,8.84,0,0,1,4.24,4.65A11.33,11.33,0,0,1,340.28,293a11.39,11.39,0,0,1,3.07,7.75,11.16,11.16,0,0,1-3.45,8.09,11.33,11.33,0,0,1,.33,2.7c0,6.32-4.1,11-9.85,11.33a8.84,8.84,0,0,1-8.21,5.51Z" transform="translate(-216.95 -220.27)"/><path d="M253.18,345.86a10,10,0,0,1-3-7.11V252a10,10,0,0,1,3-7.1,10.38,10.38,0,0,1,7.22-3h91.7a10.27,10.27,0,0,1,7.21,3,9.94,9.94,0,0,1,3,7.1v86.72a10,10,0,0,1-3,7.11,10.27,10.27,0,0,1-7.23,3h-91.7a10.22,10.22,0,0,1-7.2-3Zm.49-93.83v86.72a6.44,6.44,0,0,0,2,4.66,6.71,6.71,0,0,0,4.74,1.94h91.7a6.88,6.88,0,0,0,4.75-1.91,6.59,6.59,0,0,0,2-4.69V252a6.54,6.54,0,0,0-2-4.66,6.77,6.77,0,0,0-4.75-1.94h-91.7a6.71,6.71,0,0,0-4.74,1.94,6.54,6.54,0,0,0-2,4.66Z" transform="translate(-216.95 -220.27)"/><path d="M349.34,251.57a1.69,1.69,0,1,0,0,3.37,1.69,1.69,0,0,0,0-3.37Zm0,5.28a3.6,3.6,0,1,1,3.63-3.59,3.63,3.63,0,0,1-3.63,3.59Z" transform="translate(-216.95 -220.27)"/><path d="M263.13,251.57a1.69,1.69,0,1,0,1.71,1.69,1.69,1.69,0,0,0-1.71-1.69Zm0,5.28a3.6,3.6,0,1,1,3.65-3.59,3.61,3.61,0,0,1-3.65,3.59Z" transform="translate(-216.95 -220.27)"/><path d="M376.91,334.91h-3.62a1,1,0,0,1-.68-.28l-12.46-12.25a.94.94,0,0,1,0-1.35,1,1,0,0,1,1.38,0l12.17,12h3.21a1,1,0,1,1,0,1.91Z" transform="translate(-216.95 -220.27)"/><path d="M369.5,331.16a1,1,0,0,1-.69-1.63l6.59-6.48a1,1,0,0,1,.69-.28h8.28a1,1,0,1,1,0,1.92h-7.88l-6.3,6.19a1,1,0,0,1-.69.28Z" transform="translate(-216.95 -220.27)"/><path d="M388.56,296.35H360.84a1,1,0,1,1,0-1.91h27.72a1,1,0,1,1,0,1.91Z" transform="translate(-216.95 -220.27)"/><path d="M382.67,302.82h-13.3a1,1,0,0,1-.69-.28L362,296a.93.93,0,0,1,0-1.35,1,1,0,0,1,1.37,0l.13.12,6.31,6.19h12.9a1,1,0,1,1,0,1.91Z" transform="translate(-216.95 -220.27)"/><path d="M379.87,332a2,2,0,1,0,2,2,2,2,0,0,0-2-2Zm0,5.86a3.89,3.89,0,1,1,4-3.9,3.93,3.93,0,0,1-4,3.9Z" transform="translate(-216.95 -220.27)"/><path d="M387.36,321.77a2,2,0,1,0,2,2,2,2,0,0,0-2-2Zm0,5.86a3.89,3.89,0,1,1,3.95-3.9,3.94,3.94,0,0,1-3.95,3.9Z" transform="translate(-216.95 -220.27)"/><path d="M391.55,293.43a2,2,0,1,0,2,2,2,2,0,0,0-2-2Zm0,5.86a3.93,3.93,0,0,1-4-3.88v0a4,4,0,1,1,4,3.91Z" transform="translate(-216.95 -220.27)"/><path d="M360.84,269.82a1,1,0,0,1-.69-.28,1,1,0,0,1,0-1.36l1.35-1.31.1-.12,7.2-7.07,3.8-3.72a1,1,0,0,1,.68-.28h3.62a1,1,0,1,1,0,1.91H373.7L370.19,261l-7.1,7a.45.45,0,0,1-.11.13l-1.46,1.42a1,1,0,0,1-.68.27Z" transform="translate(-216.95 -220.27)"/><path d="M384.37,267.81h-8.28a1,1,0,0,1-.69-.27l-6.59-6.5a1,1,0,0,1,0-1.36,1,1,0,0,1,1.37,0l6.3,6.21h7.88a1,1,0,1,1,0,1.91Z" transform="translate(-216.95 -220.27)"/><path d="M362.66,296.28a.94.94,0,0,1-.7-.29.93.93,0,0,1,0-1.35l0,0,6.68-6.6a1,1,0,0,1,.69-.28h13.3a1,1,0,1,1,0,1.92h-12.9L363.33,296a1,1,0,0,1-.67.27Z" transform="translate(-216.95 -220.27)"/><path d="M379.87,254.65a2,2,0,1,0,2,2,2,2,0,0,0-2-2Zm0,5.86a3.89,3.89,0,1,1,4-3.88,3.92,3.92,0,0,1-4,3.88Z" transform="translate(-216.95 -220.27)"/><path d="M387.36,264.87a2,2,0,1,0,0,3.95,2,2,0,1,0,0-3.95Zm0,5.87a3.89,3.89,0,1,1,3.95-3.88,3.93,3.93,0,0,1-3.95,3.88Z" transform="translate(-216.95 -220.27)"/><path d="M285.74,226.51a1,1,0,0,1-1-1v-4.32a1,1,0,0,1,1.95,0v4.32a1,1,0,0,1-1,1Z" transform="translate(-216.95 -220.27)"/><path d="M294,243.31a1,1,0,0,1-1-.95V227.29a1,1,0,0,1,1.95,0v15.07a1,1,0,0,1-1,.95Z" transform="translate(-216.95 -220.27)"/><path d="M294,226.51a1,1,0,0,1-1-1v-4.32a1,1,0,0,1,1.95,0v4.32a1,1,0,0,1-1,1Z" transform="translate(-216.95 -220.27)"/><path d="M302.16,243.31a1,1,0,0,1-1-.95V227.29a1,1,0,0,1,1.95,0v15.07a1,1,0,0,1-1,.95Z" transform="translate(-216.95 -220.27)"/><path d="M302.16,226.51a1,1,0,0,1-1-1v-4.32a1,1,0,0,1,1.95,0v4.32a1,1,0,0,1-1,1Z" transform="translate(-216.95 -220.27)"/><path d="M310.38,243.31a1,1,0,0,1-1-.95V227.29a1,1,0,0,1,2,0v15.07a1,1,0,0,1-1,.95Z" transform="translate(-216.95 -220.27)"/><path d="M310.38,226.51a1,1,0,0,1-1-1v-4.32a1,1,0,0,1,2,0v4.32a1,1,0,0,1-1,1Z" transform="translate(-216.95 -220.27)"/><path d="M318.6,243.31a1,1,0,0,1-1-.95V227.29a1,1,0,0,1,1.94,0v15.07a1,1,0,0,1-1,.95Z" transform="translate(-216.95 -220.27)"/><path d="M318.6,226.51a1,1,0,0,1-1-1v-4.32a1,1,0,0,1,1.94,0v4.32a1,1,0,0,1-1,1Z" transform="translate(-216.95 -220.27)"/><path d="M326.8,243.31a1,1,0,0,1-1-.95V227.29a1,1,0,0,1,1.95,0v15.07a1,1,0,0,1-1,.95Z" transform="translate(-216.95 -220.27)"/><path d="M326.8,226.51a1,1,0,0,1-1-1v-4.32a1,1,0,0,1,1.95,0v4.32a1,1,0,0,1-1,1Z" transform="translate(-216.95 -220.27)"/><path d="M285.74,243.31a1,1,0,0,1-1-.95V227.29a1,1,0,0,1,1.95,0v15.07a1,1,0,0,1-1,.95Z" transform="translate(-216.95 -220.27)"/><path d="M239.15,334.91h-3.61a1,1,0,1,1,0-1.91h3.21l3.5-3.47,8.65-8.5a1,1,0,0,1,1.37,0,.94.94,0,0,1,0,1.35l-8.64,8.5-3.79,3.75a1,1,0,0,1-.69.28Z" transform="translate(-216.95 -220.27)"/><path d="M242.94,331.16a1,1,0,0,1-.69-.28L236,324.69h-7.89a1,1,0,1,1,0-1.92h8.29a1,1,0,0,1,.69.28l6.58,6.48a.94.94,0,0,1,0,1.35,1,1,0,0,1-.69.28Z" transform="translate(-216.95 -220.27)"/><path d="M251.58,296.35h-27.7a1,1,0,1,1,0-1.91h27.7a1,1,0,1,1,0,1.91Z" transform="translate(-216.95 -220.27)"/><path d="M243.07,302.82H229.78a1,1,0,1,1,0-1.91h12.89l6.43-6.3a1,1,0,0,1,1.38,0,.94.94,0,0,1,0,1.35l-.12.11-6.6,6.47a1,1,0,0,1-.69.28Z" transform="translate(-216.95 -220.27)"/><path d="M232.55,332a2,2,0,1,0,2,2,2,2,0,0,0-2-2Zm0,5.86a3.89,3.89,0,1,1,4-3.9,3.92,3.92,0,0,1-4,3.9Z" transform="translate(-216.95 -220.27)"/><path d="M225.08,321.77a2,2,0,1,0,0,4,2,2,0,1,0,0-4Zm0,5.86a3.89,3.89,0,1,1,4-3.9,3.93,3.93,0,0,1-4,3.9Z" transform="translate(-216.95 -220.27)"/><path d="M220.89,293.43a2,2,0,1,0,2,2,2,2,0,0,0-2-2Zm0,5.86a3.89,3.89,0,1,1,4-3.91v0a3.93,3.93,0,0,1-4,3.88Z" transform="translate(-216.95 -220.27)"/><path d="M251.58,269.82a1,1,0,0,1-.68-.28l-12.15-12h-3.21a1,1,0,1,1,0-1.91h3.61a1,1,0,0,1,.69.28l12.43,12.23a.94.94,0,0,1,0,1.35,1,1,0,0,1-.69.28Z" transform="translate(-216.95 -220.27)"/><path d="M236.36,267.81h-8.29a1,1,0,1,1,0-1.91H236l6.29-6.21a1,1,0,0,1,1.38,0,1,1,0,0,1,0,1.36l-6.58,6.5a1,1,0,0,1-.69.27Z" transform="translate(-216.95 -220.27)"/><path d="M249.79,296.28a1,1,0,0,1-.69-.28l0,0-6.41-6.32H229.78a1,1,0,1,1,0-1.92h13.29a1,1,0,0,1,.69.28l6.72,6.63a.94.94,0,0,1,0,1.35,1,1,0,0,1-.69.28Z" transform="translate(-216.95 -220.27)"/><path d="M232.55,254.65a2,2,0,1,0,2,2,2,2,0,0,0-2-2Zm0,5.86a3.89,3.89,0,1,1,4-3.88,3.91,3.91,0,0,1-4,3.88Z" transform="translate(-216.95 -220.27)"/><path d="M225.08,264.87a2,2,0,1,0,2,2,2,2,0,0,0-2-2Zm0,5.87a3.89,3.89,0,1,1,4-3.88,3.92,3.92,0,0,1-4,3.88Z" transform="translate(-216.95 -220.27)"/><path d="M290.3,328.39a8.67,8.67,0,0,1-1.22-17.27,1,1,0,1,1,.27,1.9,6.82,6.82,0,0,0-5.92,6.7,6.77,6.77,0,0,0,6.87,6.76,6.82,6.82,0,0,0,3.72-1.07,1,1,0,0,1,.9-.08,7.66,7.66,0,0,0,2.8.54,7.49,7.49,0,0,0,7.54-7.41,1,1,0,0,1,1.95,0,9.42,9.42,0,0,1-9.49,9.32,9.57,9.57,0,0,1-3.06-.5,8.92,8.92,0,0,1-4.36,1.11Z" transform="translate(-216.95 -220.27)"/><path d="M306.23,273.31a1,1,0,0,1-1-1,7.48,7.48,0,0,0-7.54-7.41,5.72,5.72,0,0,0-1,.07h0a7.49,7.49,0,0,0-6.49,7.34,1,1,0,0,1-1.95,0,9.41,9.41,0,0,1,8.16-9.23,8.56,8.56,0,0,1,1.32-.1,9.43,9.43,0,0,1,9.49,9.33,1,1,0,0,1-1,1Z" transform="translate(-216.95 -220.27)"/><path d="M282.79,322.9c-6.11,0-10.55-4.77-10.55-11.35a11.41,11.41,0,0,1,11-11.4,1,1,0,1,1,.09,1.91,9.48,9.48,0,0,0-9.15,9.49c0,5.56,3.53,9.44,8.6,9.44a1,1,0,1,1,0,1.91Z" transform="translate(-216.95 -220.27)"/><path d="M273.43,309.32a1,1,0,0,1-.66-.26,11.29,11.29,0,0,1,0-16.61,11.57,11.57,0,0,1,5.27-2.8,1,1,0,1,1,.45,1.86,9.68,9.68,0,0,0-4.39,2.33,9.41,9.41,0,0,0,0,13.83.94.94,0,0,1,0,1.35,1,1,0,0,1-.71.3Z" transform="translate(-216.95 -220.27)"/><path d="M273.33,294a1,1,0,0,1-.84-.47,11.32,11.32,0,0,1,4.67-16,1,1,0,0,1,1.31.42,1,1,0,0,1-.43,1.29,9.43,9.43,0,0,0-3.88,13.35,1,1,0,0,1-.34,1.31,1,1,0,0,1-.49.14Z" transform="translate(-216.95 -220.27)"/><path d="M292.85,285.21a11.53,11.53,0,0,1-11.61-11.42v-.18a11.56,11.56,0,0,1,11.61-11.22,11.92,11.92,0,0,1,4,.71,1,1,0,0,1,.58,1.23,1,1,0,0,1-1.25.57,9.79,9.79,0,0,0-3.36-.59,9.62,9.62,0,0,0-9.67,9.32v.16a9.61,9.61,0,0,0,9.67,9.51,1,1,0,1,1,0,1.91Z" transform="translate(-216.95 -220.27)"/><path d="M285.34,289.31a8.75,8.75,0,0,1-8.82-8.68,8.54,8.54,0,0,1,.37-2.52,8.64,8.64,0,0,1,4.71-5.36,1,1,0,0,1,1.29.46.94.94,0,0,1-.47,1.27,6.75,6.75,0,0,0-3.66,4.18,6.53,6.53,0,0,0-.3,2,6.83,6.83,0,0,0,6.88,6.76,1,1,0,1,1,0,1.92Z" transform="translate(-216.95 -220.27)"/><path d="M322.17,328.39a8.89,8.89,0,0,1-4.36-1.11,9.68,9.68,0,0,1-3.07.5,9.41,9.41,0,0,1-9.48-9.32,1,1,0,0,1,1.95,0,7.48,7.48,0,0,0,7.53,7.41,7.58,7.58,0,0,0,2.8-.54,1,1,0,0,1,.91.08,6.8,6.8,0,0,0,3.72,1.07,6.88,6.88,0,0,0,6.58-4.81,6.74,6.74,0,0,0-5.63-8.65,1,1,0,1,1,.27-1.9,8.65,8.65,0,0,1,7.59,8.6,8.41,8.41,0,0,1-.37,2.5,8.82,8.82,0,0,1-8.44,6.17Z" transform="translate(-216.95 -220.27)"/><path d="M323.25,273.31a1,1,0,0,1-1-1,7.49,7.49,0,0,0-6.5-7.34h0a5.84,5.84,0,0,0-1-.07,7.48,7.48,0,0,0-5.31,2.16,7.29,7.29,0,0,0-2.22,5.25,1,1,0,0,1-1.95,0,9.19,9.19,0,0,1,2.79-6.6,9.46,9.46,0,0,1,6.69-2.73,8.59,8.59,0,0,1,1.33.1,9.42,9.42,0,0,1,8.16,9.23,1,1,0,0,1-1,1Z" transform="translate(-216.95 -220.27)"/><path d="M329.68,322.9a1,1,0,1,1,0-1.91c5.07,0,8.6-3.88,8.6-9.44a9.82,9.82,0,0,0-.38-2.66.76.76,0,0,1-.06-.16,9.61,9.61,0,0,0-8.72-6.67,1,1,0,0,1-.92-1,1,1,0,0,1,1-.91A11.56,11.56,0,0,1,339.64,308a1.08,1.08,0,0,1,.08.19,11.58,11.58,0,0,1,.51,3.37c0,6.58-4.44,11.35-10.55,11.35Z" transform="translate(-216.95 -220.27)"/><path d="M339,309.32a1,1,0,0,1-.71-.3,1,1,0,0,1,.05-1.36,9.29,9.29,0,0,0,3-6.9,9.52,9.52,0,0,0-7.38-9.25,1,1,0,0,1-.72-1.16,1,1,0,0,1,1.17-.7,11.59,11.59,0,0,1,5.26,2.8,11.41,11.41,0,0,1,3.62,8.31,11.17,11.17,0,0,1-3.67,8.3,1,1,0,0,1-.67.26Z" transform="translate(-216.95 -220.27)"/><path d="M339.14,294a1,1,0,0,1-.5-.14.94.94,0,0,1-.33-1.31,9.43,9.43,0,0,0-3.89-13.35,1,1,0,0,1-.42-1.29,1,1,0,0,1,1.31-.42,11.34,11.34,0,0,1,4.67,16,1,1,0,0,1-.84.47Z" transform="translate(-216.95 -220.27)"/><path d="M319.62,285.21a1,1,0,1,1,0-1.91,9.59,9.59,0,0,0,9.64-9.51v-.18a9.59,9.59,0,0,0-9.64-9.3,9.85,9.85,0,0,0-3.37.59,1,1,0,0,1-1.24-.57,1,1,0,0,1,.57-1.23,12,12,0,0,1,4-.71,11.55,11.55,0,0,1,11.59,11.21v.19a11.52,11.52,0,0,1-11.59,11.42Z" transform="translate(-216.95 -220.27)"/><path d="M327.13,289.31a1,1,0,1,1,0-1.92,6.83,6.83,0,0,0,6.89-6.76,6.73,6.73,0,0,0-.28-2,6.92,6.92,0,0,0-3.72-4.19,1,1,0,0,1-.47-1.27,1,1,0,0,1,1.29-.46,8.78,8.78,0,0,1,4.76,5.36,8.49,8.49,0,0,1,.37,2.52,8.76,8.76,0,0,1-8.84,8.68Z" transform="translate(-216.95 -220.27)"/><path d="M306.23,319.41a1,1,0,0,1-1-1V272.35a1,1,0,0,1,1.95,0v46.11a1,1,0,0,1-1,1Z" transform="translate(-216.95 -220.27)"/><path d="M298.3,297.46a1,1,0,0,1-1-.84C296.75,292,294,292,293.9,292h0a1,1,0,1,1,0-1.92c.05,0,4.59,0,5.4,6.36a1,1,0,0,1-.85,1.06Z" transform="translate(-216.95 -220.27)"/><path d="M291,310.21h-.12a1,1,0,0,1-.85-1.07c.79-6.41,5.34-6.36,5.38-6.35a1,1,0,1,1,0,1.91h0c-.15,0-2.85.08-3.41,4.67a1,1,0,0,1-1,.84Z" transform="translate(-216.95 -220.27)"/><path d="M300.73,318.87a1,1,0,0,1-1-.84c-.57-4.69-3.39-4.69-3.42-4.68a1,1,0,1,1-.05-1.91c.05,0,4.62,0,5.4,6.36a1,1,0,0,1-.85,1.06Z" transform="translate(-216.95 -220.27)"/><path d="M295.88,282.33h-.11a1,1,0,0,1-.85-1.07c.78-6.42,5.35-6.36,5.4-6.36a1,1,0,0,1,.95,1,1,1,0,0,1-1,.93c-.15,0-2.87.07-3.43,4.67a1,1,0,0,1-1,.84Z" transform="translate(-216.95 -220.27)"/><path d="M313.35,297.46h-.12a1,1,0,0,1-.85-1.06c.81-6.39,5.36-6.35,5.4-6.36a1,1,0,1,1,0,1.92h0c-.14,0-2.86.09-3.44,4.67a1,1,0,0,1-1,.84Z" transform="translate(-216.95 -220.27)"/><path d="M320.66,310.21a1,1,0,0,1-1-.84c-.57-4.7-3.36-4.68-3.39-4.67a1,1,0,0,1-1-.93,1,1,0,0,1,.94-1c.05,0,4.6-.07,5.39,6.35a1,1,0,0,1-.85,1.07Z" transform="translate(-216.95 -220.27)"/><path d="M310.91,318.87h-.12a1,1,0,0,1-.85-1.06c.79-6.39,5.35-6.37,5.4-6.36a1,1,0,1,1,0,1.91h0c-.14,0-2.87.09-3.44,4.68a1,1,0,0,1-1,.84Z" transform="translate(-216.95 -220.27)"/><path d="M315.76,282.33a1,1,0,0,1-1-.84c-.57-4.62-3.31-4.67-3.43-4.67a1,1,0,0,1-1-.93,1,1,0,0,1,.95-1c.05,0,4.63-.06,5.41,6.36a1,1,0,0,1-.85,1.07Z" transform="translate(-216.95 -220.27)"/></svg>