<svg id="Layer_1" data-name="Layer 1" xmlns="http://www.w3.org/2000/svg" viewBox="0 0 114.75 115.86"><defs><style>.cls-1{fill:#ebebeb;}.cls-1,.cls-2{fill-rule:evenodd;}.cls-2{fill:#d6d6d6;}.cls-3{fill:#fdd36a;}.cls-4{fill:#92d9f8;}.cls-5{fill:#707384;}</style></defs><path class="cls-1" d="M330,360.84h15.8a4.8,4.8,0,0,0,4.8-4.87h0a4.8,4.8,0,0,0-4.8-4.86H320a4.8,4.8,0,0,1-4.8-4.86h0a4.79,4.79,0,0,1,4.8-4.86h53.33a4.79,4.79,0,0,1,4.8,4.86h0a4.82,4.82,0,0,1-4.37,4.86h-3.25a4.76,4.76,0,0,0-4.65,4.86h0a4.86,4.86,0,0,0,4.65,4.87h2.82a4.79,4.79,0,0,1,4.8,4.85h0a4.88,4.88,0,0,1-4.8,4.86H330a4.88,4.88,0,0,1-4.8-4.86h0a4.79,4.79,0,0,1,4.8-4.85Z" transform="translate(-315.21 -264.28)"/><path class="cls-2" d="M364.07,370.41h7.62a4.76,4.76,0,0,0,4.8-4.72h0a4.79,4.79,0,0,0-4.8-4.85h-7.62a5,5,0,0,1-4.79-4.87h0a4.88,4.88,0,0,1,4.79-4.86H425.3A4.76,4.76,0,0,1,430,356h0a4.86,4.86,0,0,1-4.66,4.87H405.13a4.79,4.79,0,0,0-4.8,4.85h0a4.76,4.76,0,0,0,4.8,4.72h2.4a4.89,4.89,0,0,1,4.8,4.87h0a4.79,4.79,0,0,1-4.8,4.85H364.07a4.87,4.87,0,0,1-4.79-4.85h0a5,5,0,0,1,4.79-4.87Z" transform="translate(-315.21 -264.28)"/><path class="cls-3" d="M372.67,324a4.7,4.7,0,0,0,4.68-4.69A4.69,4.69,0,0,0,382,324a4.57,4.57,0,0,0,1.74-.34,4.26,4.26,0,0,0,2.34.69,4.3,4.3,0,0,0,4.13-3.08c3.23,0,5.26-2.61,5.26-5.83a6.15,6.15,0,0,0-.26-1.74l.13-.05a5.86,5.86,0,0,0,0-8.53l.05,0a6,6,0,0,0,.83-3,5.85,5.85,0,0,0-3.18-5.22H393a4.38,4.38,0,0,0-2.33-2.67h-.11a5.82,5.82,0,0,0-7.86-5.39v0a4.76,4.76,0,0,0-3.95,1.32,4.71,4.71,0,0,0-1.37,3.33,4.69,4.69,0,0,0-4.68-4.69,4.63,4.63,0,0,0-.65,0v0a5.83,5.83,0,0,0-7.87,5.39H364a4.28,4.28,0,0,0-2.3,2.67h-.13a5.87,5.87,0,0,0-3.18,5.22,6,6,0,0,0,.83,3l.05,0a5.9,5.9,0,0,0,0,8.53l.14.05a6.15,6.15,0,0,0-.26,1.74c0,3.22,2,5.83,5.26,5.83a4.3,4.3,0,0,0,4.13,3.08,4.23,4.23,0,0,0,2.34-.69,4.57,4.57,0,0,0,1.74.34Zm-24.21,6.69V282.08a3.7,3.7,0,0,1,1.09-2.61,3.62,3.62,0,0,1,2.6-1.09h50.39a3.66,3.66,0,0,1,2.61,1.09,3.73,3.73,0,0,1,1.08,2.61v48.61a3.69,3.69,0,0,1-3.69,3.7H352.15a3.72,3.72,0,0,1-3.69-3.7Zm51.1-47.92a1.47,1.47,0,1,0,1.47-1.48,1.47,1.47,0,0,0-1.47,1.48Zm0,47.24a1.47,1.47,0,1,0,1.47-1.47,1.46,1.46,0,0,0-1.47,1.47Zm-47.36,0a1.47,1.47,0,1,0,1.46-1.47A1.46,1.46,0,0,0,352.2,330Zm1.46-48.72a1.48,1.48,0,1,0,1.48,1.48,1.47,1.47,0,0,0-1.48-1.48Z" transform="translate(-315.21 -264.28)"/><path d="M353.66,281.82a.95.95,0,0,0,0,1.89.95.95,0,0,0,0-1.89Zm0,3a2,2,0,1,1,2-2,2,2,0,0,1-2,2Zm47.37-3a.95.95,0,1,0,.93.95.94.94,0,0,0-.93-.95Zm0,3a2,2,0,1,1,2-2,2,2,0,0,1-2,2Zm-17.27,38.34a.55.55,0,0,1,.3.09,3.7,3.7,0,0,0,2,.6,3.8,3.8,0,0,0,3.62-2.7.53.53,0,0,1,.51-.38c2.78,0,4.72-2.18,4.72-5.29a5.46,5.46,0,0,0-.23-1.59.54.54,0,0,1,.31-.65h0a5.24,5.24,0,0,0,1.61-3.8,5.35,5.35,0,0,0-1.66-3.88.58.58,0,0,1-.17-.38.55.55,0,0,1,.16-.38h0a5.36,5.36,0,0,0,.72-2.68,5.3,5.3,0,0,0-2.75-4.67h0a.53.53,0,0,1-.51-.38,3.85,3.85,0,0,0-1.94-2.3.53.53,0,0,1-.52-.53,5.33,5.33,0,0,0-5.3-5.22,5.21,5.21,0,0,0-1.69.28h0a.53.53,0,0,1-.44.11,4,4,0,0,0-.55,0,4.09,4.09,0,0,0-2.92,1.21,4.15,4.15,0,0,0-1.22,3,.54.54,0,0,1-1.07,0,4.16,4.16,0,0,0-4.14-4.16,4,4,0,0,0-.55,0,.53.53,0,0,1-.44-.11h0A5.16,5.16,0,0,0,370,289a5.33,5.33,0,0,0-5.31,5.22.52.52,0,0,1-.52.53,3.75,3.75,0,0,0-1.91,2.3.55.55,0,0,1-.53.38,5.3,5.3,0,0,0-2.75,4.67,5.36,5.36,0,0,0,.72,2.68h0a.55.55,0,0,1,.16.38.58.58,0,0,1-.17.38,5.35,5.35,0,0,0-.07,7.68h0a.53.53,0,0,1,.33.65,5.82,5.82,0,0,0-.23,1.59c0,3.11,1.94,5.29,4.72,5.29a.55.55,0,0,1,.52.38,3.77,3.77,0,0,0,5.66,2.1.53.53,0,0,1,.49,0,4,4,0,0,0,1.54.31,4.16,4.16,0,0,0,4.14-4.16.54.54,0,1,1,1.07,0,4.16,4.16,0,0,0,4.14,4.16,4,4,0,0,0,1.54-.31.71.71,0,0,1,.2,0Zm2.34,1.76a4.77,4.77,0,0,1-2.39-.63,5.13,5.13,0,0,1-1.69.29,5.2,5.2,0,0,1-4.67-2.92,5.22,5.22,0,0,1-4.68,2.92,5.13,5.13,0,0,1-1.69-.29,4.84,4.84,0,0,1-6.9-2.46c-3.16-.2-5.41-2.81-5.41-6.35a7.06,7.06,0,0,1,.17-1.51,6.41,6.41,0,0,1-.2-8.88,6.42,6.42,0,0,1,2.69-8.67,4.85,4.85,0,0,1,2.3-2.6,6.41,6.41,0,0,1,6.36-5.89,6.28,6.28,0,0,1,2.17.38,3.89,3.89,0,0,1,.51,0,5.2,5.2,0,0,1,4.67,2.92,5.46,5.46,0,0,1,1-1.39,5.14,5.14,0,0,1,3.68-1.53,4.17,4.17,0,0,1,.52,0,6.19,6.19,0,0,1,2.16-.38,6.4,6.4,0,0,1,6.35,5.89,4.91,4.91,0,0,1,2.32,2.61,6.36,6.36,0,0,1,3.42,5.67,6.47,6.47,0,0,1-.73,3,6.46,6.46,0,0,1,1.68,4.34,6.27,6.27,0,0,1-1.9,4.53,6.64,6.64,0,0,1,.18,1.52c0,3.54-2.25,6.15-5.41,6.35a4.86,4.86,0,0,1-4.51,3.09Zm-32.44,4.19a.93.93,0,0,0-.92.94.93.93,0,1,0,1.86,0,.94.94,0,0,0-.94-.94Zm0,3a2,2,0,1,1,2-2,2,2,0,0,1-2,2Zm47.37-3a.95.95,0,0,0,0,1.89A1,1,0,0,0,402,330a.94.94,0,0,0-.93-.94Zm0,3a2,2,0,1,1,2-2,2,2,0,0,1-2,2Zm-48.88-53.12a3.18,3.18,0,0,0-3.15,3.17v48.61a3.16,3.16,0,0,0,3.15,3.16h50.39a3.14,3.14,0,0,0,3.15-3.16V282.08a3.16,3.16,0,0,0-3.15-3.17Zm50.39,56H352.15a4.23,4.23,0,0,1-4.22-4.23V282.08a4.25,4.25,0,0,1,4.22-4.24h50.39a4.25,4.25,0,0,1,4.22,4.24v48.61a4.26,4.26,0,0,1-1.24,3,4.18,4.18,0,0,1-3,1.23Z" transform="translate(-315.21 -264.28)"/><path class="cls-4" d="M377.35,293.47v25.84a4.7,4.7,0,0,1-4.68,4.69,4.57,4.57,0,0,1-1.74-.34,4.23,4.23,0,0,1-2.34.69,4.3,4.3,0,0,1-4.13-3.08c-3.22,0-5.26-2.61-5.26-5.83a6.15,6.15,0,0,1,.26-1.74l-.14-.05a5.9,5.9,0,0,1,0-8.53l-.05,0a6,6,0,0,1-.83-3,5.87,5.87,0,0,1,3.18-5.22h.13a4.28,4.28,0,0,1,2.3-2.67h.11a5.83,5.83,0,0,1,7.87-5.39v0a4.63,4.63,0,0,1,.65,0,4.69,4.69,0,0,1,4.68,4.69Z" transform="translate(-315.21 -264.28)"/><path d="M359.61,313.19h0a.53.53,0,0,1,.33.65,5.82,5.82,0,0,0-.23,1.59c0,3.11,1.94,5.29,4.72,5.29a.55.55,0,0,1,.52.38,3.77,3.77,0,0,0,5.66,2.1.53.53,0,0,1,.49,0,4,4,0,0,0,1.54.31,4.16,4.16,0,0,0,4.14-4.16V293.47a4.16,4.16,0,0,0-4.14-4.16,4,4,0,0,0-.55,0,.53.53,0,0,1-.44-.11h0A5.16,5.16,0,0,0,370,289a5.33,5.33,0,0,0-5.31,5.22.52.52,0,0,1-.52.53,3.75,3.75,0,0,0-1.91,2.3.54.54,0,0,1-.53.38,5.3,5.3,0,0,0-2.75,4.67,5.36,5.36,0,0,0,.72,2.68h0a.55.55,0,0,1,.16.38.58.58,0,0,1-.17.38,5.35,5.35,0,0,0-.07,7.68Zm9,11.69a4.8,4.8,0,0,1-4.51-3.09c-3.16-.2-5.41-2.81-5.41-6.35a7.06,7.06,0,0,1,.17-1.51,6.41,6.41,0,0,1-.2-8.88,6.42,6.42,0,0,1,2.69-8.67,4.85,4.85,0,0,1,2.3-2.6,6.41,6.41,0,0,1,6.36-5.89,6.28,6.28,0,0,1,2.17.38,3.89,3.89,0,0,1,.51,0,5.22,5.22,0,0,1,5.21,5.23v25.84a5.23,5.23,0,0,1-5.21,5.23,5.13,5.13,0,0,1-1.69-.29,4.77,4.77,0,0,1-2.39.63Z" transform="translate(-315.21 -264.28)"/><path class="cls-5" d="M377.35,293.47a4.71,4.71,0,0,1,1.37-3.33,4.76,4.76,0,0,1,3.95-1.32v0a5.82,5.82,0,0,1,7.86,5.39h.11a4.38,4.38,0,0,1,2.33,2.67h.11a5.85,5.85,0,0,1,3.18,5.22,6,6,0,0,1-.83,3l-.05,0a5.86,5.86,0,0,1,0,8.53l-.13.05a6.15,6.15,0,0,1,.26,1.74c0,3.22-2,5.83-5.26,5.83a4.3,4.3,0,0,1-4.13,3.08,4.26,4.26,0,0,1-2.34-.69A4.57,4.57,0,0,1,382,324a4.69,4.69,0,0,1-4.67-4.69V293.47Z" transform="translate(-315.21 -264.28)"/><path d="M383.76,323.12a.55.55,0,0,1,.3.09,3.7,3.7,0,0,0,2,.6,3.8,3.8,0,0,0,3.62-2.7.53.53,0,0,1,.51-.38c2.78,0,4.72-2.18,4.72-5.29a5.46,5.46,0,0,0-.23-1.59.54.54,0,0,1,.31-.65h0a5.24,5.24,0,0,0,1.61-3.8,5.35,5.35,0,0,0-1.66-3.88.58.58,0,0,1-.17-.38.55.55,0,0,1,.16-.38h0a5.36,5.36,0,0,0,.72-2.68,5.3,5.3,0,0,0-2.75-4.67h0a.53.53,0,0,1-.51-.38,3.85,3.85,0,0,0-1.94-2.3.53.53,0,0,1-.52-.53,5.33,5.33,0,0,0-5.3-5.22,5.21,5.21,0,0,0-1.69.28h0a.53.53,0,0,1-.44.11,4,4,0,0,0-.55,0,4.09,4.09,0,0,0-2.92,1.21,4.15,4.15,0,0,0-1.22,3v25.84a4.16,4.16,0,0,0,4.14,4.16,4,4,0,0,0,1.54-.31.71.71,0,0,1,.2,0Zm2.34,1.76a4.77,4.77,0,0,1-2.39-.63,5.13,5.13,0,0,1-1.69.29,5.23,5.23,0,0,1-5.21-5.23V293.47a5.23,5.23,0,0,1,1.53-3.7,5.14,5.14,0,0,1,3.68-1.53,4.17,4.17,0,0,1,.52,0,6.19,6.19,0,0,1,2.16-.38,6.4,6.4,0,0,1,6.35,5.89,4.91,4.91,0,0,1,2.32,2.61,6.36,6.36,0,0,1,3.42,5.67,6.47,6.47,0,0,1-.73,3,6.46,6.46,0,0,1,1.68,4.34,6.27,6.27,0,0,1-1.9,4.53,6.64,6.64,0,0,1,.18,1.52c0,3.54-2.25,6.15-5.41,6.35a4.86,4.86,0,0,1-4.51,3.09Z" transform="translate(-315.21 -264.28)"/><path d="M348.19,334.67a5.63,5.63,0,0,1-1.65-4V282.08a5.62,5.62,0,0,1,5.61-5.63h50.39a5.55,5.55,0,0,1,4,1.65,5.62,5.62,0,0,1,1.65,4v8.63h0v40a5.65,5.65,0,0,1-1.64,4,5.56,5.56,0,0,1-4,1.66H352.15a5.57,5.57,0,0,1-4-1.66Zm.27-52.59v48.61a3.72,3.72,0,0,0,3.69,3.7h50.39a3.69,3.69,0,0,0,3.69-3.7V282.08a3.73,3.73,0,0,0-1.08-2.61,3.66,3.66,0,0,0-2.61-1.09H352.15a3.62,3.62,0,0,0-2.6,1.09,3.7,3.7,0,0,0-1.09,2.61Z" transform="translate(-315.21 -264.28)"/><path d="M401,329.07a.95.95,0,0,0,0,1.89A1,1,0,0,0,402,330a.94.94,0,0,0-.93-.94Zm0,3a2,2,0,1,1,2-2,2,2,0,0,1-2,2Z" transform="translate(-315.21 -264.28)"/><path d="M401,281.82a.95.95,0,1,0,.93.95.94.94,0,0,0-.93-.95Zm0,3a2,2,0,1,1,2-2,2,2,0,0,1-2,2Z" transform="translate(-315.21 -264.28)"/><path d="M353.66,281.82a.95.95,0,0,0,0,1.89.95.95,0,0,0,0-1.89Zm0,3a2,2,0,1,1,2-2,2,2,0,0,1-2,2Z" transform="translate(-315.21 -264.28)"/><path d="M353.66,329.07a.93.93,0,0,0-.92.94.93.93,0,1,0,1.86,0,.94.94,0,0,0-.94-.94Zm0,3a2,2,0,1,1,2-2,2,2,0,0,1-2,2Z" transform="translate(-315.21 -264.28)"/><path d="M416.18,328.53h-2a.54.54,0,0,1-.38-.15L407,321.51a.54.54,0,0,1,.76-.76l6.68,6.71h1.77a.54.54,0,0,1,0,1.07Z" transform="translate(-315.21 -264.28)"/><path d="M412.11,326.43a.55.55,0,0,1-.38-.15.54.54,0,0,1,0-.76l3.62-3.63a.55.55,0,0,1,.38-.16h4.55a.54.54,0,0,1,0,1.07H416l-3.46,3.48a.55.55,0,0,1-.38.15Z" transform="translate(-315.21 -264.28)"/><path d="M422.58,306.92H407.35a.54.54,0,0,1,0-1.07h15.23a.54.54,0,1,1,0,1.07Z" transform="translate(-315.21 -264.28)"/><path d="M419.34,310.55H412a.55.55,0,0,1-.38-.16L408,306.71a.53.53,0,1,1,.74-.77l.07.06,3.47,3.48h7.08a.54.54,0,1,1,0,1.07Z" transform="translate(-315.21 -264.28)"/><path d="M417.81,326.9a1.11,1.11,0,1,0,1.11,1.1,1.1,1.1,0,0,0-1.11-1.1Zm0,3.28A2.18,2.18,0,1,1,420,328a2.18,2.18,0,0,1-2.18,2.18Z" transform="translate(-315.21 -264.28)"/><path d="M421.92,321.17a1.11,1.11,0,1,0,1.1,1.1,1.11,1.11,0,0,0-1.1-1.1Zm0,3.28a2.18,2.18,0,1,1,2.17-2.18,2.18,2.18,0,0,1-2.17,2.18Z" transform="translate(-315.21 -264.28)"/><path d="M424.23,305.28a1.11,1.11,0,1,0,1.09,1.11,1.1,1.1,0,0,0-1.09-1.11Zm0,3.29a2.18,2.18,0,0,1-2.18-2.18h0a2.17,2.17,0,1,1,2.18,2.19Z" transform="translate(-315.21 -264.28)"/><path d="M407.35,292.05a.51.51,0,0,1-.38-.16.54.54,0,0,1,0-.76l.75-.73a.13.13,0,0,1,.06-.07l4-4,2.08-2.09a.55.55,0,0,1,.38-.16h2a.54.54,0,0,1,0,1.07h-1.77l-1.92,1.94-3.9,3.9-.06.07-.81.8a.53.53,0,0,1-.37.15Z" transform="translate(-315.21 -264.28)"/><path d="M420.28,290.93h-4.55a.53.53,0,0,1-.38-.16l-3.62-3.64a.54.54,0,0,1,.76-.76l3.46,3.48h4.33a.54.54,0,0,1,0,1.08Z" transform="translate(-315.21 -264.28)"/><path d="M408.35,306.88a.54.54,0,0,1-.39-.16.54.54,0,0,1,0-.76h0l3.67-3.7a.52.52,0,0,1,.38-.15h7.3a.54.54,0,1,1,0,1.07h-7.08l-3.54,3.56a.53.53,0,0,1-.37.15Z" transform="translate(-315.21 -264.28)"/><path d="M417.81,283.55a1.11,1.11,0,1,0,1.11,1.11,1.1,1.1,0,0,0-1.11-1.11Zm0,3.28a2.18,2.18,0,1,1,2.18-2.17,2.17,2.17,0,0,1-2.18,2.17Z" transform="translate(-315.21 -264.28)"/><path d="M421.92,289.28a1.11,1.11,0,1,0,0,2.21,1.11,1.11,0,0,0,0-2.21Zm0,3.28a2.18,2.18,0,1,1,2.17-2.17,2.17,2.17,0,0,1-2.17,2.17Z" transform="translate(-315.21 -264.28)"/><path d="M366.08,267.77a.54.54,0,0,1-.53-.54v-2.41a.54.54,0,1,1,1.07,0v2.41a.54.54,0,0,1-.54.54Z" transform="translate(-315.21 -264.28)"/><path d="M370.6,277.19a.53.53,0,0,1-.53-.54v-8.44a.53.53,0,0,1,1.06,0v8.44a.53.53,0,0,1-.53.54Z" transform="translate(-315.21 -264.28)"/><path d="M370.6,267.77a.53.53,0,0,1-.53-.54v-2.41a.53.53,0,1,1,1.06,0v2.41a.53.53,0,0,1-.53.54Z" transform="translate(-315.21 -264.28)"/><path d="M375.11,277.19a.54.54,0,0,1-.54-.54v-8.44a.54.54,0,0,1,1.07,0v8.44a.54.54,0,0,1-.53.54Z" transform="translate(-315.21 -264.28)"/><path d="M375.11,267.77a.54.54,0,0,1-.54-.54v-2.41a.54.54,0,1,1,1.07,0v2.41a.54.54,0,0,1-.53.54Z" transform="translate(-315.21 -264.28)"/><path d="M379.62,277.19a.54.54,0,0,1-.53-.54v-8.44a.54.54,0,0,1,1.07,0v8.44a.54.54,0,0,1-.54.54Z" transform="translate(-315.21 -264.28)"/><path d="M379.62,267.77a.54.54,0,0,1-.53-.54v-2.41a.54.54,0,1,1,1.07,0v2.41a.54.54,0,0,1-.54.54Z" transform="translate(-315.21 -264.28)"/><path d="M384.14,277.19a.54.54,0,0,1-.53-.54v-8.44a.54.54,0,0,1,1.07,0v8.44a.54.54,0,0,1-.54.54Z" transform="translate(-315.21 -264.28)"/><path d="M384.14,267.77a.54.54,0,0,1-.53-.54v-2.41a.54.54,0,1,1,1.07,0v2.41a.54.54,0,0,1-.54.54Z" transform="translate(-315.21 -264.28)"/><path d="M388.64,277.19a.54.54,0,0,1-.53-.54v-8.44a.54.54,0,0,1,1.07,0v8.44a.54.54,0,0,1-.54.54Z" transform="translate(-315.21 -264.28)"/><path d="M388.64,267.77a.54.54,0,0,1-.53-.54v-2.41a.54.54,0,1,1,1.07,0v2.41a.54.54,0,0,1-.54.54Z" transform="translate(-315.21 -264.28)"/><path d="M366.08,277.19a.54.54,0,0,1-.53-.54v-8.44a.54.54,0,0,1,1.07,0v8.44a.54.54,0,0,1-.54.54Z" transform="translate(-315.21 -264.28)"/><path d="M388.64,348.38a.54.54,0,0,1-.53-.54v-2.42a.54.54,0,0,1,1.07,0v2.42a.54.54,0,0,1-.54.54Z" transform="translate(-315.21 -264.28)"/><path d="M384.13,345a.54.54,0,0,1-.54-.54V336a.54.54,0,0,1,1.07,0v8.44a.54.54,0,0,1-.53.54Z" transform="translate(-315.21 -264.28)"/><path d="M384.13,348.38a.54.54,0,0,1-.54-.54v-2.42a.54.54,0,0,1,1.07,0v2.42a.54.54,0,0,1-.53.54Z" transform="translate(-315.21 -264.28)"/><path d="M379.62,345a.54.54,0,0,1-.53-.54V336a.54.54,0,0,1,1.07,0v8.44a.54.54,0,0,1-.54.54Z" transform="translate(-315.21 -264.28)"/><path d="M379.62,348.38a.54.54,0,0,1-.53-.54v-2.42a.54.54,0,0,1,1.07,0v2.42a.54.54,0,0,1-.54.54Z" transform="translate(-315.21 -264.28)"/><path d="M375.11,345a.54.54,0,0,1-.54-.54V336a.54.54,0,0,1,1.07,0v8.44a.54.54,0,0,1-.53.54Z" transform="translate(-315.21 -264.28)"/><path d="M375.11,348.38a.54.54,0,0,1-.54-.54v-2.42a.54.54,0,0,1,1.07,0v2.42a.54.54,0,0,1-.53.54Z" transform="translate(-315.21 -264.28)"/><path d="M370.59,345a.54.54,0,0,1-.54-.54V336a.54.54,0,0,1,1.07,0v8.44a.54.54,0,0,1-.53.54Z" transform="translate(-315.21 -264.28)"/><path d="M370.59,348.38a.54.54,0,0,1-.54-.54v-2.42a.54.54,0,0,1,1.07,0v2.42a.54.54,0,0,1-.53.54Z" transform="translate(-315.21 -264.28)"/><path d="M366.08,345a.54.54,0,0,1-.53-.54V336a.54.54,0,0,1,1.07,0v8.44a.54.54,0,0,1-.54.54Z" transform="translate(-315.21 -264.28)"/><path d="M366.08,348.38a.54.54,0,0,1-.53-.54v-2.42a.54.54,0,0,1,1.07,0v2.42a.54.54,0,0,1-.54.54Z" transform="translate(-315.21 -264.28)"/><path d="M388.64,345a.54.54,0,0,1-.53-.54V336a.54.54,0,0,1,1.07,0v8.44a.54.54,0,0,1-.54.54Z" transform="translate(-315.21 -264.28)"/><path d="M340.49,328.53h-2a.54.54,0,0,1,0-1.07h1.77l1.92-1.94,4.75-4.77a.54.54,0,0,1,.76,0,.56.56,0,0,1,0,.76L343,326.28l-2.08,2.1a.54.54,0,0,1-.38.15Z" transform="translate(-315.21 -264.28)"/><path d="M342.57,326.43a.55.55,0,0,1-.38-.15l-3.46-3.48H334.4a.54.54,0,1,1,0-1.07H339a.53.53,0,0,1,.38.16l3.62,3.63a.54.54,0,0,1,0,.76.55.55,0,0,1-.38.15Z" transform="translate(-315.21 -264.28)"/><path d="M347.32,306.92H332.1a.54.54,0,1,1,0-1.07h15.22a.54.54,0,0,1,0,1.07Z" transform="translate(-315.21 -264.28)"/><path d="M342.64,310.55h-7.3a.54.54,0,1,1,0-1.07h7.08l3.53-3.54a.54.54,0,0,1,.76.76l-.06.06L343,310.39a.55.55,0,0,1-.38.16Z" transform="translate(-315.21 -264.28)"/><path d="M336.86,326.9A1.11,1.11,0,1,0,338,328a1.1,1.1,0,0,0-1.11-1.1Zm0,3.28A2.18,2.18,0,1,1,339,328a2.18,2.18,0,0,1-2.18,2.18Z" transform="translate(-315.21 -264.28)"/><path d="M332.75,321.17a1.11,1.11,0,0,0,0,2.21,1.11,1.11,0,1,0,0-2.21Zm0,3.28a2.18,2.18,0,1,1,2.18-2.18,2.17,2.17,0,0,1-2.18,2.18Z" transform="translate(-315.21 -264.28)"/><path d="M330.45,305.28a1.11,1.11,0,1,0,1.11,1.11,1.1,1.1,0,0,0-1.11-1.11Zm0,3.29a2.18,2.18,0,1,1,2.18-2.19h0a2.18,2.18,0,0,1-2.18,2.18Z" transform="translate(-315.21 -264.28)"/><path d="M347.32,292.05a.51.51,0,0,1-.38-.16l-6.67-6.7H338.5a.54.54,0,0,1,0-1.07h2a.55.55,0,0,1,.38.16l6.83,6.85a.56.56,0,0,1,0,.76.54.54,0,0,1-.38.16Z" transform="translate(-315.21 -264.28)"/><path d="M339,290.93H334.4a.54.54,0,0,1,0-1.08h4.33l3.46-3.48a.54.54,0,0,1,.76.76l-3.62,3.64a.53.53,0,0,1-.38.16Z" transform="translate(-315.21 -264.28)"/><path d="M346.33,306.88a.57.57,0,0,1-.38-.15v0l-3.52-3.54h-7.08a.54.54,0,1,1,0-1.07h7.3a.52.52,0,0,1,.38.15l3.69,3.72a.53.53,0,0,1-.38.91Z" transform="translate(-315.21 -264.28)"/><path d="M336.86,283.55a1.11,1.11,0,1,0,1.11,1.11,1.1,1.1,0,0,0-1.11-1.11Zm0,3.28a2.18,2.18,0,1,1,2.18-2.17,2.17,2.17,0,0,1-2.18,2.17Z" transform="translate(-315.21 -264.28)"/><path d="M332.75,289.28a1.11,1.11,0,1,0,1.11,1.11,1.1,1.1,0,0,0-1.11-1.11Zm0,3.28a2.18,2.18,0,1,1,2.18-2.17,2.17,2.17,0,0,1-2.18,2.17Z" transform="translate(-315.21 -264.28)"/><path d="M368.59,324.88a4.79,4.79,0,0,1-4.64-3.46,5,5,0,0,1-.2-1.4,4.88,4.88,0,0,1,4.17-4.82.54.54,0,0,1,.15,1.06,3.81,3.81,0,0,0-3.26,3.76,4,4,0,0,0,.16,1.09,3.78,3.78,0,0,0,5.67,2.1.53.53,0,0,1,.49,0,4,4,0,0,0,1.54.31,4.16,4.16,0,0,0,4.14-4.16.54.54,0,1,1,1.07,0,5.23,5.23,0,0,1-5.21,5.23,5.13,5.13,0,0,1-1.69-.29,4.77,4.77,0,0,1-2.39.63Z" transform="translate(-315.21 -264.28)"/><path d="M377.35,294a.54.54,0,0,1-.54-.53,4.16,4.16,0,0,0-4.14-4.16,4,4,0,0,0-.55,0h0a4.16,4.16,0,0,0-3.57,4.11.54.54,0,0,1-1.07,0,5.23,5.23,0,0,1,4.48-5.17,3.91,3.91,0,0,1,.73-.06,5.22,5.22,0,0,1,5.21,5.23.53.53,0,0,1-.53.53Z" transform="translate(-315.21 -264.28)"/><path d="M364.46,321.8c-3.35,0-5.79-2.67-5.79-6.36a6.51,6.51,0,0,1,.28-1.89,6.4,6.4,0,0,1,5.77-4.5.54.54,0,1,1,0,1.07,5.33,5.33,0,0,0-4.8,3.74,5.7,5.7,0,0,0-.23,1.58c0,3.11,1.94,5.29,4.72,5.29a.54.54,0,1,1,0,1.07Z" transform="translate(-315.21 -264.28)"/><path d="M359.32,314.19A.51.51,0,0,1,359,314a6.41,6.41,0,0,1,2.88-10.88.54.54,0,0,1,.65.4.53.53,0,0,1-.4.64,5.37,5.37,0,0,0-2.41,1.31,5.34,5.34,0,0,0,0,7.75.53.53,0,0,1,0,.76.52.52,0,0,1-.39.17Z" transform="translate(-315.21 -264.28)"/><path d="M359.26,305.61a.53.53,0,0,1-.46-.26,6.43,6.43,0,0,1,2.57-9,.54.54,0,0,1,.72.24.54.54,0,0,1-.23.72,5.29,5.29,0,0,0-2.89,4.74,5.4,5.4,0,0,0,.75,2.74.55.55,0,0,1-.18.74.55.55,0,0,1-.28.07Z" transform="translate(-315.21 -264.28)"/><path d="M370,300.67a6.4,6.4,0,0,1-6.38-6.4v-.09a6.41,6.41,0,0,1,6.38-6.29,6.57,6.57,0,0,1,2.22.39.55.55,0,0,1,.32.69.54.54,0,0,1-.69.32A5.39,5.39,0,0,0,370,289a5.33,5.33,0,0,0-5.31,5.22v.09A5.32,5.32,0,0,0,370,299.6a.54.54,0,0,1,.54.54.53.53,0,0,1-.54.53Z" transform="translate(-315.21 -264.28)"/><path d="M365.86,303a4.85,4.85,0,0,1-4.84-4.86,5.11,5.11,0,0,1,.2-1.41,4.82,4.82,0,0,1,2.59-3,.53.53,0,0,1,.71.26.53.53,0,0,1-.26.71,3.77,3.77,0,0,0-2,2.35,3.71,3.71,0,0,0-.16,1.1,3.78,3.78,0,0,0,3.77,3.79.54.54,0,1,1,0,1.07Z" transform="translate(-315.21 -264.28)"/><path d="M386.1,324.88a4.77,4.77,0,0,1-2.39-.63,5.13,5.13,0,0,1-1.69.29,5.23,5.23,0,0,1-5.21-5.23.54.54,0,1,1,1.07,0,4.16,4.16,0,0,0,4.14,4.16,4,4,0,0,0,1.54-.31.56.56,0,0,1,.5,0,3.7,3.7,0,0,0,2,.6,3.8,3.8,0,0,0,3.62-2.7,4,4,0,0,0,.16-1.09,3.75,3.75,0,0,0-3.26-3.76.54.54,0,0,1,.15-1.06A4.82,4.82,0,0,1,391,320a4.7,4.7,0,0,1-.21,1.4,4.86,4.86,0,0,1-4.64,3.46Z" transform="translate(-315.21 -264.28)"/><path d="M386.7,294a.54.54,0,0,1-.54-.53,4.16,4.16,0,0,0-3.57-4.11h0a4,4,0,0,0-.55,0,4.09,4.09,0,0,0-2.92,1.21,4.15,4.15,0,0,0-1.22,3,.54.54,0,0,1-1.07,0,5.23,5.23,0,0,1,1.53-3.7,5.14,5.14,0,0,1,3.68-1.53,3.91,3.91,0,0,1,.73.06,5.23,5.23,0,0,1,4.48,5.17.53.53,0,0,1-.53.53Z" transform="translate(-315.21 -264.28)"/><path d="M390.23,321.8a.54.54,0,0,1,0-1.07c2.78,0,4.72-2.18,4.72-5.29a5.51,5.51,0,0,0-.2-1.49.36.36,0,0,1,0-.09,5.29,5.29,0,0,0-4.79-3.74.54.54,0,0,1,.05-1.07,6.37,6.37,0,0,1,5.73,4.39l.05.11a6.85,6.85,0,0,1,.27,1.89c0,3.69-2.43,6.36-5.79,6.36Z" transform="translate(-315.21 -264.28)"/><path d="M395.36,314.19a.56.56,0,0,1-.4-.17.54.54,0,0,1,0-.76,5.27,5.27,0,0,0,1.68-3.87,5.35,5.35,0,0,0-1.66-3.88,5.29,5.29,0,0,0-2.4-1.31.52.52,0,0,1-.39-.64.53.53,0,0,1,.64-.4,6.38,6.38,0,0,1,2.89,1.58,6.44,6.44,0,0,1,2,4.65,6.36,6.36,0,0,1-2,4.66.54.54,0,0,1-.36.14Z" transform="translate(-315.21 -264.28)"/><path d="M395.43,305.61a.58.58,0,0,1-.28-.07.55.55,0,0,1-.18-.74,5.4,5.4,0,0,0,.75-2.74,5.28,5.28,0,0,0-2.88-4.74.54.54,0,0,1,.48-1,6.43,6.43,0,0,1,2.57,9,.53.53,0,0,1-.46.26Z" transform="translate(-315.21 -264.28)"/><path d="M384.7,300.67a.53.53,0,0,1-.53-.53.54.54,0,0,1,.53-.54,5.32,5.32,0,0,0,5.3-5.33v-.09a5.33,5.33,0,0,0-5.3-5.22,5.43,5.43,0,0,0-1.85.33.53.53,0,0,1-.68-.32.53.53,0,0,1,.31-.69,6.57,6.57,0,0,1,2.22-.39,6.4,6.4,0,0,1,6.37,6.28v.1a6.39,6.39,0,0,1-6.37,6.4Z" transform="translate(-315.21 -264.28)"/><path d="M388.83,303a.54.54,0,1,1,0-1.07,3.79,3.79,0,0,0,3.79-3.79,4,4,0,0,0-.16-1.1,3.84,3.84,0,0,0-2-2.35.53.53,0,1,1,.45-1,4.87,4.87,0,0,1-2,9.28Z" transform="translate(-315.21 -264.28)"/><path d="M377.35,319.85a.54.54,0,0,1-.54-.54V293.47a.54.54,0,1,1,1.07,0v25.84a.54.54,0,0,1-.53.54Z" transform="translate(-315.21 -264.28)"/><path d="M373,307.54a.53.53,0,0,1-.53-.47c-.32-2.58-1.83-2.62-1.89-2.62h0a.52.52,0,0,1-.53-.52.54.54,0,0,1,.52-.55s2.52,0,3,3.56a.55.55,0,0,1-.47.6Z" transform="translate(-315.21 -264.28)"/><path d="M369,314.69h-.07a.54.54,0,0,1-.46-.6c.43-3.6,2.93-3.56,3-3.56a.54.54,0,0,1,0,1.07h0c-.08,0-1.56,0-1.87,2.62a.53.53,0,0,1-.53.47Z" transform="translate(-315.21 -264.28)"/><path d="M374.32,319.54a.53.53,0,0,1-.52-.47c-.32-2.63-1.87-2.63-1.88-2.62a.53.53,0,0,1-.55-.52.52.52,0,0,1,.52-.55s2.54,0,3,3.56a.55.55,0,0,1-.47.6Z" transform="translate(-315.21 -264.28)"/><path d="M371.66,299.06h-.06a.53.53,0,0,1-.47-.6c.43-3.59,2.94-3.56,3-3.56a.54.54,0,0,1,.52.55.54.54,0,0,1-.55.52c-.08,0-1.57,0-1.88,2.62a.53.53,0,0,1-.53.47Z" transform="translate(-315.21 -264.28)"/><path d="M381.26,307.54h-.07a.55.55,0,0,1-.47-.6c.45-3.58,2.95-3.56,3-3.56a.54.54,0,0,1,0,1.07h0c-.08,0-1.57.05-1.89,2.62a.53.53,0,0,1-.52.47Z" transform="translate(-315.21 -264.28)"/><path d="M385.27,314.69a.53.53,0,0,1-.53-.47c-.31-2.64-1.85-2.62-1.86-2.62a.54.54,0,0,1-.55-.52.53.53,0,0,1,.52-.55s2.52,0,2.95,3.56a.54.54,0,0,1-.46.6Z" transform="translate(-315.21 -264.28)"/><path d="M379.92,319.54h-.07a.55.55,0,0,1-.47-.6c.43-3.58,2.94-3.57,3-3.56a.54.54,0,0,1,0,1.07h0c-.08,0-1.58.05-1.88,2.62a.55.55,0,0,1-.53.47Z" transform="translate(-315.21 -264.28)"/><path d="M382.58,299.06a.53.53,0,0,1-.53-.47c-.31-2.59-1.82-2.62-1.88-2.62a.52.52,0,0,1-.55-.52.54.54,0,0,1,.52-.55s2.54,0,3,3.56a.53.53,0,0,1-.46.6Z" transform="translate(-315.21 -264.28)"/></svg>