<svg id="Layer_1" data-name="Layer 1" xmlns="http://www.w3.org/2000/svg" viewBox="0 0 126.85 74.8"><defs><style>.cls-1{fill:#ffd46a;}</style></defs><path class="cls-1" d="M458.65,300.13a3.62,3.62,0,0,1-3.23-1.07c-3.25-3.23-.27-8.22,2.86-8.72a4.32,4.32,0,0,1,4.46,2.83,15.28,15.28,0,0,1,.3,2c-.39,2.84-1.93,4.61-4.39,4.93Zm-3.25,8.28a1.19,1.19,0,0,1-1.33-1.31,1.17,1.17,0,0,1,1.28-1.25,1.29,1.29,0,1,1,0,2.56Zm-52.91-25.59,3.64-9.43a2.64,2.64,0,0,1,2.43-1.51h43.29a2.61,2.61,0,0,1,2.44,1.56l3.4,9.38Zm3.86,24.53c-.54.36-1.06.95-1.64,1a1.18,1.18,0,0,1-1.37-1.28,1.23,1.23,0,0,1,1.46-1.23c.56.08,1,.63,1.56,1,0,.17,0,.34,0,.51Zm-5.92-7.47A5.68,5.68,0,0,1,397.2,294a4.32,4.32,0,0,1,3.9-3.74,5.18,5.18,0,0,1,4.68,3.5c.18.62.26,1.27.38,1.9-.11,3.26-3,5.41-5.73,4.18Zm66-9.73a47.4,47.4,0,0,0-4.58-3.33c-1.2-.74-.55-1.6-.5-2.45s.81-.83,1.45-.88c1-.08,2,0,3-.2.58-.1,1.44-.45,1.55-.83a2.07,2.07,0,0,0-.6-1.7,3.89,3.89,0,0,0-1.86-.76,10.15,10.15,0,0,0-2,0c-2.26,0-2.36-.32-2.71,2a9,9,0,0,1-.31,1.05c-.26-.53-.44-.86-.59-1.2-1.09-2.57-2.16-5.14-3.28-7.69a5.3,5.3,0,0,0-5.16-3.32c-1.24,0-2.48-.15-3.73-.19-12.66-.4-25.31-.36-38,.23a5.23,5.23,0,0,0-5,3.24q-1.9,4.35-3.79,8.72h-.33a10.69,10.69,0,0,0-.38-1.87c-.14-.36-.57-.84-.91-.87a20.24,20.24,0,0,0-4,0,3.17,3.17,0,0,0-1.81,1.07c-.89,1-.36,2,1.06,2.17,1.12.12,2.25.08,3.35.24.47.06,1.22.41,1.26.7.1.83.93,1.78-.4,2.55a34.39,34.39,0,0,0-4.15,2.92,5.36,5.36,0,0,0-2.37,4.93c.1,1,0,2,0,3l.24,18.84a2.14,2.14,0,0,0,2.38,2c2.37,0,4.73,0,7.1,0a2.05,2.05,0,0,0,2.29-2.36c0-.6,0-1.2,0-1.91a446.77,446.77,0,0,0,52.65,0c0,.78,0,1.39,0,2a2,2,0,0,0,2.11,2.26q3.72.07,7.46,0a2,2,0,0,0,2.16-2.18c0-.45-.05-.91,0-1.37.09-6.71.16-13.41.29-20.11a5.41,5.41,0,0,0-2-4.64Z" transform="translate(-366.66 -243.67)"/><path class="cls-1" d="M433.45,271.17h-6.73l.49-1.92a.94.94,0,0,1,1-.9H432a.93.93,0,0,1,1,.9l.49,1.92Z" transform="translate(-366.66 -243.67)"/><path class="cls-1" d="M439.14,264.66a1,1,0,0,1-.82-.38,11.31,11.31,0,0,0-8.5-3.62c-5.49,0-7.91,3.29-7.93,3.32a1.08,1.08,0,0,1-1.41.27.9.9,0,0,1-.28-1.3c.12-.17,3.05-4.17,9.62-4.17A13.35,13.35,0,0,1,440,263.17a.89.89,0,0,1-.21,1.31,1.08,1.08,0,0,1-.6.18Z" transform="translate(-366.66 -243.67)"/><path class="cls-1" d="M448.93,261.59a1,1,0,0,1-.82-.38,25,25,0,0,0-18.58-8,23.92,23.92,0,0,0-13.24,3.68,17.19,17.19,0,0,0-4.2,3.7,1.05,1.05,0,0,1-1.4.26.88.88,0,0,1-.29-1.29c.24-.34,6-8.22,19.13-8.22a26.62,26.62,0,0,1,20.21,8.72.89.89,0,0,1-.21,1.31,1.08,1.08,0,0,1-.6.18Z" transform="translate(-366.66 -243.67)"/><path class="cls-1" d="M456.91,257.42a1,1,0,0,1-.82-.38,30.19,30.19,0,0,0-6.85-5.76,37,37,0,0,0-19.95-5.73,34.63,34.63,0,0,0-19.13,5.33,23.82,23.82,0,0,0-6,5.35,1.08,1.08,0,0,1-1.41.27.9.9,0,0,1-.29-1.3,25.62,25.62,0,0,1,6.49-5.8,36.83,36.83,0,0,1,20.38-5.73,39.08,39.08,0,0,1,21.17,6.11,31.59,31.59,0,0,1,7.26,6.15.89.89,0,0,1-.21,1.31,1.08,1.08,0,0,1-.6.18Z" transform="translate(-366.66 -243.67)"/><path class="cls-1" d="M478,303.58a.62.62,0,0,1,.28-.51,6.79,6.79,0,0,0,2.68-5.35,6,6,0,0,0-2.46-5,.6.6,0,0,1-.19-.88.72.72,0,0,1,.95-.19,7.18,7.18,0,0,1,3.08,6.07,8.05,8.05,0,0,1-3.24,6.38.71.71,0,0,1-1-.14.54.54,0,0,1-.14-.38Z" transform="translate(-366.66 -243.67)"/><path class="cls-1" d="M480.27,309.75a.62.62,0,0,1,.28-.51,15.07,15.07,0,0,0,5.89-11.71,13.5,13.5,0,0,0-2.72-8.34,11.73,11.73,0,0,0-2.74-2.64.6.6,0,0,1-.2-.88.72.72,0,0,1,1-.18,14.18,14.18,0,0,1,6.08,12,16,16,0,0,1-6.45,12.73.74.74,0,0,1-1-.13.6.6,0,0,1-.13-.38Z" transform="translate(-366.66 -243.67)"/><path class="cls-1" d="M483.35,314.78a.64.64,0,0,1,.28-.52A20.45,20.45,0,0,0,487.9,310a21,21,0,0,0,4.23-12.56,19.56,19.56,0,0,0-3.94-12.05,16.3,16.3,0,0,0-4-3.81.61.61,0,0,1-.19-.89.74.74,0,0,1,1-.18,17.9,17.9,0,0,1,4.28,4.09,20.78,20.78,0,0,1,4.24,12.84A22.14,22.14,0,0,1,489,310.72a21.61,21.61,0,0,1-4.54,4.57.74.74,0,0,1-1-.13.64.64,0,0,1-.14-.38Z" transform="translate(-366.66 -243.67)"/><path class="cls-1" d="M382.18,303.58a.62.62,0,0,0-.28-.51,6.79,6.79,0,0,1-2.68-5.35,6,6,0,0,1,2.46-5,.61.61,0,0,0,.19-.88.73.73,0,0,0-1-.19,7.21,7.21,0,0,0-3.08,6.07,8.08,8.08,0,0,0,3.24,6.38.73.73,0,0,0,1-.14.59.59,0,0,0,.14-.38Z" transform="translate(-366.66 -243.67)"/><path class="cls-1" d="M379.91,309.75a.62.62,0,0,0-.28-.51,15.07,15.07,0,0,1-5.89-11.71,13.5,13.5,0,0,1,2.72-8.34,11.73,11.73,0,0,1,2.74-2.64.6.6,0,0,0,.19-.88.71.71,0,0,0-.95-.18,14.18,14.18,0,0,0-6.08,12,16,16,0,0,0,6.45,12.73.72.72,0,0,0,1-.13.56.56,0,0,0,.14-.38Z" transform="translate(-366.66 -243.67)"/><path class="cls-1" d="M376.83,314.78a.64.64,0,0,0-.28-.52,20.18,20.18,0,0,1-4.27-4.31,21,21,0,0,1-4.23-12.56A19.56,19.56,0,0,1,372,285.34a16.3,16.3,0,0,1,4-3.81.62.62,0,0,0,.19-.89.74.74,0,0,0-1-.18,17.83,17.83,0,0,0-4.29,4.09,20.78,20.78,0,0,0-4.23,12.84,22.14,22.14,0,0,0,4.52,13.33,21.61,21.61,0,0,0,4.54,4.57.74.74,0,0,0,1-.13.64.64,0,0,0,.14-.38Z" transform="translate(-366.66 -243.67)"/></svg>