<svg id="Layer_1" data-name="Layer 1" xmlns="http://www.w3.org/2000/svg" viewBox="0 0 66.63 54.49"><defs><style>.cls-1{fill:#ffd46a;}.cls-2{fill:#876052;}.cls-3{fill:#fcda78;}.cls-4{fill:#fff;}</style></defs><path class="cls-1" d="M398.83,297.64c-7.87,11-19.59,17.87-32.81,17.87s-24.95-6.9-32.82-17.87c7.87-11,19.59-17.87,32.82-17.87s24.94,6.9,32.81,17.87Z" transform="translate(-332.7 -270.9)"/><path class="cls-2" d="M333.81,297.64c8,11.06,19.77,17.4,32.21,17.4s24.16-6.34,32.2-17.4c-8-11.06-19.76-17.4-32.2-17.4s-24.17,6.34-32.21,17.4ZM366,316a37.89,37.89,0,0,1-18.67-4.89,44.49,44.49,0,0,1-14.56-13.19.42.42,0,0,1,0-.52,44.52,44.52,0,0,1,14.56-13.2,38.15,38.15,0,0,1,37.34,0,44.62,44.62,0,0,1,14.56,13.2.45.45,0,0,1,0,.52,44.59,44.59,0,0,1-14.56,13.19A37.92,37.92,0,0,1,366,316Z" transform="translate(-332.7 -270.9)"/><path class="cls-1" d="M366,283.37c8.37,0,15.23,6.43,15.23,14.27S374.39,311.9,366,311.9s-15.24-6.42-15.24-14.26,6.87-14.27,15.24-14.27Z" transform="translate(-332.7 -270.9)"/><path class="cls-2" d="M366,283.84c-8.13,0-14.74,6.19-14.74,13.8s6.61,13.79,14.74,13.79,14.73-6.18,14.73-13.79-6.61-13.8-14.73-13.8Zm0,28.54c-8.68,0-15.74-6.62-15.74-14.74S357.34,282.9,366,282.9s15.73,6.61,15.73,14.74-7.06,14.74-15.73,14.74Z" transform="translate(-332.7 -270.9)"/><path class="cls-3" d="M366,293.09a4.56,4.56,0,1,1-4.86,4.55,4.71,4.71,0,0,1,4.86-4.55Z" transform="translate(-332.7 -270.9)"/><path class="cls-2" d="M366,293.56a4.08,4.08,0,1,0,4.35,4.08,4.23,4.23,0,0,0-4.35-4.08Zm0,9.1a5,5,0,1,1,5.35-5,5.21,5.21,0,0,1-5.35,5Z" transform="translate(-332.7 -270.9)"/><path class="cls-4" d="M358,281.18c-.28,0-.5-.11-.5-.24v-.46l-3-1.38h0l-4.36-2.17c-.09-.05-.14-.11-.14-.17V272.5c0-.13.23-.24.5-.24s.51.11.51.24v4.16l4.2,2.1,3.17,1.44c.1.05.16.11.16.17v.57c0,.13-.22.24-.5.24Z" transform="translate(-332.7 -270.9)"/><path class="cls-4" d="M362.34,280.78c-.28,0-.5-.11-.5-.24v-.63l-7.39-3.54c-.09-.05-.15-.11-.15-.17v-.8c0-.14.23-.25.51-.25s.5.11.5.25v.7l7.39,3.54c.09.05.14.11.14.17v.73c0,.13-.22.24-.5.24Z" transform="translate(-332.7 -270.9)"/><path class="cls-4" d="M356.48,277.32a.75.75,0,0,1-.35-.07c-.2-.09-.2-.24,0-.34l3-1.45v-1.75c0-.13.22-.24.5-.24s.5.11.5.24v1.85c0,.06-.05.12-.14.17l-3.18,1.52a.83.83,0,0,1-.36.07Z" transform="translate(-332.7 -270.9)"/><path class="cls-4" d="M366,280.7c-.27,0-.5-.11-.5-.24v-7.71c0-.14.23-.25.5-.25s.51.11.51.25v7.71c0,.13-.23.24-.51.24Z" transform="translate(-332.7 -270.9)"/><path class="cls-4" d="M366,278.85a.81.81,0,0,1-.35-.07l-3.18-1.53c-.1,0-.15-.1-.15-.17v-3c0-.13.23-.24.5-.24s.5.11.5.24V277l3,1.46c.19.09.19.24,0,.34a.83.83,0,0,1-.36.07Z" transform="translate(-332.7 -270.9)"/><path class="cls-3" d="M350.45,271.14c.83,0,1.34.32,1.34.64s-.51.72-1.34.72-1.51-.32-1.51-.72.67-.64,1.51-.64Z" transform="translate(-332.7 -270.9)"/><path class="cls-2" d="M350.45,271.38c-.57,0-1,.22-1,.4s.44.48,1,.48.83-.26.83-.48-.29-.4-.83-.4Zm0,1.37c-1.11,0-2-.44-2-1s.94-.88,2-.88,1.84.45,1.84.88-.78,1-1.84,1Z" transform="translate(-332.7 -270.9)"/><path class="cls-4" d="M359.66,272.34c.66,0,1.33.32,1.33.73s-.67.64-1.33.64c-.84,0-1.51-.32-1.51-.64s.67-.73,1.51-.73Z" transform="translate(-332.7 -270.9)"/><path class="cls-2" d="M359.66,272.58c-.57,0-1,.22-1,.49s.44.4,1,.4c.39,0,.83-.22.83-.4s-.45-.49-.83-.49Zm0,1.37c-1.08,0-2-.41-2-.88s.9-1,2-1,1.84.45,1.84,1-.9.88-1.84.88Z" transform="translate(-332.7 -270.9)"/><path class="cls-4" d="M374.06,281.18c-.28,0-.5-.11-.5-.24v-.57c0-.06.05-.12.15-.17l3.18-1.44,4.2-2.1V272.5c0-.13.23-.24.5-.24s.5.11.5.24v4.26c0,.06,0,.12-.14.17l-4.35,2.17h0l-3,1.38v.46c0,.13-.22.24-.5.24Z" transform="translate(-332.7 -270.9)"/><path class="cls-4" d="M369.71,280.78c-.28,0-.51-.11-.51-.24v-.73c0-.06.06-.12.15-.17l7.39-3.54v-.7c0-.14.22-.25.5-.25s.5.11.5.25v.8c0,.06-.05.12-.15.17l-7.38,3.54v.63c0,.13-.23.24-.5.24Z" transform="translate(-332.7 -270.9)"/><path class="cls-4" d="M375.57,277.32a.83.83,0,0,1-.36-.07L372,275.73c-.09-.05-.15-.11-.15-.17v-1.85c0-.13.23-.24.5-.24s.51.11.51.24v1.75l3,1.45c.2.1.2.25,0,.34a.81.81,0,0,1-.35.07Z" transform="translate(-332.7 -270.9)"/><path class="cls-4" d="M381.59,271.14c-.84,0-1.34.32-1.34.64s.5.72,1.34.72,1.5-.32,1.5-.72-.67-.64-1.5-.64Z" transform="translate(-332.7 -270.9)"/><path class="cls-2" d="M381.59,271.38c-.55,0-.84.21-.84.4s.22.48.84.48,1-.21,1-.48-.44-.4-1-.4Zm0,1.37c-1.07,0-1.85-.41-1.85-1s.69-.88,1.85-.88,2,.41,2,.88-.9,1-2,1Z" transform="translate(-332.7 -270.9)"/><path class="cls-4" d="M372.38,272.34c-.67,0-1.34.32-1.34.73s.67.64,1.34.64c.84,0,1.51-.32,1.51-.64s-.67-.73-1.51-.73Z" transform="translate(-332.7 -270.9)"/><path class="cls-2" d="M372.38,272.58c-.39,0-.84.22-.84.49s.45.4.84.4c.56,0,1-.22,1-.4s-.44-.49-1-.49Zm0,1.37c-.95,0-1.84-.43-1.84-.88s.86-1,1.84-1,2,.44,2,1-.94.88-2,.88Z" transform="translate(-332.7 -270.9)"/><path class="cls-4" d="M350.45,323.89c-.27,0-.5-.12-.5-.27V319c0-.07.05-.13.14-.18l4.36-2.39h0l3-1.51v-.51c0-.14.22-.26.5-.26s.5.12.5.26V315c0,.07-.06.14-.16.19l-3.17,1.59-4.2,2.3v4.56c0,.15-.23.27-.51.27Z" transform="translate(-332.7 -270.9)"/><path class="cls-4" d="M354.81,320.71c-.28,0-.51-.12-.51-.26v-.88a.25.25,0,0,1,.15-.19l7.39-3.89v-.69c0-.14.22-.26.5-.26s.5.12.5.26v.8a.23.23,0,0,1-.14.19l-7.39,3.89v.77c0,.14-.23.26-.5.26Z" transform="translate(-332.7 -270.9)"/><path class="cls-4" d="M359.66,322.56c-.28,0-.5-.11-.5-.26v-2l-3-1.51c-.21-.1-.21-.27,0-.38a.88.88,0,0,1,.71,0L360,320a.23.23,0,0,1,.15.19v2.12c0,.15-.22.26-.5.26Z" transform="translate(-332.7 -270.9)"/><path class="cls-4" d="M366,323.62c-.27,0-.5-.12-.5-.26v-8.47c0-.14.23-.26.5-.26s.51.12.51.26v8.47c0,.14-.23.26-.51.26Z" transform="translate(-332.7 -270.9)"/><path class="cls-4" d="M362.84,322.12c-.27,0-.5-.11-.5-.26V318.6a.23.23,0,0,1,.15-.19l3.18-1.68a.88.88,0,0,1,.71,0c.19.11.19.27,0,.38l-3,1.6v3.15c0,.15-.22.26-.5.26Z" transform="translate(-332.7 -270.9)"/><path class="cls-3" d="M350.45,325.12c.83,0,1.34-.35,1.34-.7s-.51-.8-1.34-.8-1.51.36-1.51.8.67.7,1.51.7Z" transform="translate(-332.7 -270.9)"/><path class="cls-2" d="M350.45,323.89c-.57,0-1,.23-1,.53s.44.44,1,.44.83-.23.83-.44-.21-.53-.83-.53Zm0,1.5c-1.07,0-2-.46-2-1s.9-1.06,2-1.06,1.84.44,1.84,1.06c0,.47-.69,1-1.84,1Z" transform="translate(-332.7 -270.9)"/><path class="cls-3" d="M359.66,323.8c.66,0,1.33-.35,1.33-.79s-.67-.71-1.33-.71c-.84,0-1.51.35-1.51.71s.67.79,1.51.79Z" transform="translate(-332.7 -270.9)"/><path class="cls-2" d="M359.66,322.56c-.57,0-1,.24-1,.45s.44.52,1,.52c.38,0,.83-.23.83-.52s-.44-.45-.83-.45Zm0,1.5c-1.11,0-2-.47-2-1.05s.93-1,2-1,1.84.47,1.84,1-.86,1.05-1.84,1.05Z" transform="translate(-332.7 -270.9)"/><path class="cls-4" d="M381.59,323.89c-.27,0-.5-.12-.5-.27v-4.56l-4.2-2.3-3.18-1.59a.23.23,0,0,1-.15-.19v-.62c0-.14.22-.26.5-.26s.5.12.5.26v.51l3,1.51h0l4.35,2.39c.09.05.14.11.14.18v4.67c0,.15-.22.27-.5.27Z" transform="translate(-332.7 -270.9)"/><path class="cls-4" d="M377.24,320.71c-.28,0-.5-.12-.5-.26v-.77l-7.39-3.89a.25.25,0,0,1-.15-.19v-.8c0-.14.23-.26.51-.26s.5.12.5.26v.69l7.38,3.89a.23.23,0,0,1,.15.19v.88c0,.14-.22.26-.5.26Z" transform="translate(-332.7 -270.9)"/><path class="cls-4" d="M372.38,322.56c-.27,0-.5-.11-.5-.26v-2.12c0-.07.06-.14.16-.19l3.18-1.59a.88.88,0,0,1,.71,0c.19.11.18.28,0,.38l-3,1.51v2c0,.15-.23.26-.51.26Z" transform="translate(-332.7 -270.9)"/><path class="cls-3" d="M381.59,325.12c-.84,0-1.34-.35-1.34-.7s.5-.8,1.34-.8,1.5.36,1.5.8-.67.7-1.5.7Z" transform="translate(-332.7 -270.9)"/><path class="cls-2" d="M381.59,323.89c-.62,0-.84.28-.84.53s.29.44.84.44,1-.24,1-.44-.44-.53-1-.53Zm0,1.5c-1.16,0-1.85-.5-1.85-1,0-.62.78-1.06,1.85-1.06s2,.47,2,1.06-.93,1-2,1Z" transform="translate(-332.7 -270.9)"/><path class="cls-4" d="M372.38,323.8c-.67,0-1.34-.35-1.34-.79s.67-.71,1.34-.71c.84,0,1.51.35,1.51.71s-.67.79-1.51.79Z" transform="translate(-332.7 -270.9)"/><path class="cls-2" d="M372.38,322.56c-.39,0-.84.24-.84.45s.45.52.84.52c.56,0,1-.23,1-.52s-.44-.45-1-.45Zm0,1.5c-1,0-1.84-.49-1.84-1.05s.89-1,1.84-1,2,.45,2,1-.9,1.05-2,1.05Z" transform="translate(-332.7 -270.9)"/><path class="cls-4" d="M366,294.66a.49.49,0,0,1-.5-.47V290a.51.51,0,0,1,1,0v4.23a.49.49,0,0,1-.51.47Z" transform="translate(-332.7 -270.9)"/><path class="cls-4" d="M368.53,295.76a.54.54,0,0,1-.35-.14.45.45,0,0,1,0-.67l3.35-3.13a.53.53,0,0,1,.71,0,.45.45,0,0,1,0,.66l-3.35,3.14a.54.54,0,0,1-.36.14Z" transform="translate(-332.7 -270.9)"/><path class="cls-4" d="M374.23,298.11h-4.52a.47.47,0,1,1,0-.94h4.52a.47.47,0,1,1,0,.94Z" transform="translate(-332.7 -270.9)"/><path class="cls-4" d="M371.88,303.6a.52.52,0,0,1-.35-.14l-3.35-3.14a.44.44,0,0,1,0-.66.51.51,0,0,1,.71,0l3.35,3.13a.47.47,0,0,1,0,.67.54.54,0,0,1-.36.14Z" transform="translate(-332.7 -270.9)"/><path class="cls-4" d="M366,305.79a.49.49,0,0,1-.5-.47v-4.23a.51.51,0,0,1,1,0v4.23a.49.49,0,0,1-.51.47Z" transform="translate(-332.7 -270.9)"/><path class="cls-4" d="M360.16,303.6a.54.54,0,0,1-.35-.14.45.45,0,0,1,0-.67l3.35-3.13a.51.51,0,0,1,.71,0,.45.45,0,0,1,0,.66l-3.35,3.14a.54.54,0,0,1-.36.14Z" transform="translate(-332.7 -270.9)"/><path class="cls-4" d="M362.34,298.11h-4.52a.47.47,0,1,1,0-.94h4.52a.47.47,0,1,1,0,.94Z" transform="translate(-332.7 -270.9)"/><path class="cls-4" d="M363.51,295.76a.52.52,0,0,1-.35-.14l-3.35-3.14a.44.44,0,0,1,0-.66.53.53,0,0,1,.71,0l3.35,3.13a.46.46,0,0,1,0,.67.54.54,0,0,1-.36.14Z" transform="translate(-332.7 -270.9)"/></svg>