<svg id="Layer_1" data-name="Layer 1" xmlns="http://www.w3.org/2000/svg" viewBox="0 0 66.63 36.69"><defs><style>.cls-1{fill:#ffd46a;}.cls-2{fill:#876052;}.cls-3{fill:#fcda78;}.cls-4{fill:#fff;}</style></defs><path class="cls-1" d="M398.83,298c-8,10.89-19.77,17.67-33,17.54s-24.88-7.15-32.63-18.2c8-10.9,19.76-17.68,33-17.54s24.87,7.15,32.63,18.2Z" transform="translate(-332.7 -279.29)"/><path class="cls-2" d="M333.81,297.31c7.93,11.15,19.59,17.6,32,17.73s24.23-6.1,32.38-17.08c-7.93-11.14-19.59-17.6-32-17.72s-24.22,6.09-32.38,17.07Zm32,18.67a38,38,0,0,1-18.62-5.08,44.54,44.54,0,0,1-14.42-13.33.45.45,0,0,1,0-.53,44.59,44.59,0,0,1,14.69-13,38.12,38.12,0,0,1,37.34.37,44.61,44.61,0,0,1,14.43,13.34.43.43,0,0,1,0,.52,44.51,44.51,0,0,1-14.69,13,38.1,38.1,0,0,1-18.72,4.7Z" transform="translate(-332.7 -279.29)"/><path class="cls-1" d="M366.16,283.37c8.37.09,15.17,6.58,15.09,14.42s-7,14.2-15.38,14.11-15.17-6.58-15.09-14.42,7-14.19,15.38-14.11Z" transform="translate(-332.7 -279.29)"/><path class="cls-2" d="M366.16,283.84c-8.13-.08-14.8,6-14.87,13.65s6.47,13.86,14.59,13.94,14.79-6,14.87-13.64-6.47-13.87-14.59-14Zm-.29,28.53c-8.68-.08-15.67-6.77-15.59-14.89s7.21-14.66,15.88-14.58,15.67,6.77,15.59,14.9-7.2,14.66-15.88,14.57Z" transform="translate(-332.7 -279.29)"/><path class="cls-3" d="M366.06,293.09a4.56,4.56,0,1,1-4.9,4.5,4.71,4.71,0,0,1,4.9-4.5Z" transform="translate(-332.7 -279.29)"/><path class="cls-2" d="M366.06,293.56a4.08,4.08,0,1,0,4.31,4.12,4.24,4.24,0,0,0-4.31-4.12Zm-.09,9.09a5,5,0,1,1,5.4-5,5.2,5.2,0,0,1-5.4,5Z" transform="translate(-332.7 -279.29)"/><path class="cls-4" d="M366.05,294.66a.48.48,0,0,1-.49-.48l0-4.23a.5.5,0,0,1,1,0l0,4.23a.49.49,0,0,1-.51.47Z" transform="translate(-332.7 -279.29)"/><path class="cls-4" d="M368.55,295.78a.52.52,0,0,1-.35-.14.45.45,0,0,1,0-.66l3.38-3.11a.53.53,0,0,1,.71,0,.46.46,0,0,1,0,.67l-3.38,3.1a.53.53,0,0,1-.36.13Z" transform="translate(-332.7 -279.29)"/><path class="cls-4" d="M374.22,298.19l-4.52-.05a.48.48,0,0,1-.5-.47.5.5,0,0,1,.51-.47l4.52.05a.49.49,0,0,1,.5.48.48.48,0,0,1-.51.46Z" transform="translate(-332.7 -279.29)"/><path class="cls-4" d="M371.82,303.65a.52.52,0,0,1-.35-.14l-3.32-3.17a.45.45,0,0,1,0-.66.52.52,0,0,1,.71,0l3.32,3.16a.46.46,0,0,1,0,.67.53.53,0,0,1-.36.13Z" transform="translate(-332.7 -279.29)"/><path class="cls-4" d="M365.94,305.79a.49.49,0,0,1-.5-.48l.05-4.23a.47.47,0,0,1,.5-.46.48.48,0,0,1,.5.47l0,4.23a.49.49,0,0,1-.51.47Z" transform="translate(-332.7 -279.29)"/><path class="cls-4" d="M360.1,303.54a.55.55,0,0,1-.35-.15.45.45,0,0,1,0-.66l3.38-3.1a.53.53,0,0,1,.71,0,.46.46,0,0,1,0,.67l-3.38,3.1a.54.54,0,0,1-.36.14Z" transform="translate(-332.7 -279.29)"/><path class="cls-4" d="M362.34,298.07l-4.52,0a.5.5,0,0,1-.5-.48.49.49,0,0,1,.51-.47l4.52.05a.47.47,0,1,1,0,.94Z" transform="translate(-332.7 -279.29)"/><path class="cls-4" d="M363.53,295.73a.5.5,0,0,1-.35-.14l-3.32-3.17a.45.45,0,0,1,0-.66.52.52,0,0,1,.71,0l3.31,3.17a.45.45,0,0,1,0,.67.53.53,0,0,1-.36.13Z" transform="translate(-332.7 -279.29)"/></svg>