<svg id="Layer_1" data-name="Layer 1" xmlns="http://www.w3.org/2000/svg" viewBox="0 0 66.63 48.83"><defs><style>.cls-1{fill:#ffd46a;}.cls-2{fill:#876052;}.cls-3{fill:#fcda78;}.cls-4{fill:#fff;}</style></defs><path class="cls-1" d="M398.83,297.64c-7.87,11-19.59,17.87-32.81,17.87s-24.95-6.9-32.82-17.87c7.87-11,19.59-17.87,32.82-17.87s24.94,6.9,32.81,17.87Z" transform="translate(-332.7 -273.47)"/><path class="cls-2" d="M333.81,297.64c8,11.06,19.77,17.4,32.21,17.4s24.16-6.34,32.2-17.4c-8-11.06-19.76-17.4-32.2-17.4s-24.17,6.34-32.21,17.4ZM366,316a37.89,37.89,0,0,1-18.67-4.89,44.49,44.49,0,0,1-14.56-13.19.42.42,0,0,1,0-.52,44.52,44.52,0,0,1,14.56-13.2,38.15,38.15,0,0,1,37.34,0,44.62,44.62,0,0,1,14.56,13.2.45.45,0,0,1,0,.52,44.59,44.59,0,0,1-14.56,13.19A37.92,37.92,0,0,1,366,316Z" transform="translate(-332.7 -273.47)"/><path class="cls-1" d="M366,283.37c8.37,0,15.23,6.43,15.23,14.27S374.39,311.9,366,311.9s-15.24-6.42-15.24-14.26,6.87-14.27,15.24-14.27Z" transform="translate(-332.7 -273.47)"/><path class="cls-2" d="M366,283.84c-8.13,0-14.74,6.19-14.74,13.8s6.61,13.79,14.74,13.79,14.73-6.18,14.73-13.79-6.61-13.8-14.73-13.8Zm0,28.54c-8.68,0-15.74-6.62-15.74-14.74S357.34,282.9,366,282.9s15.73,6.61,15.73,14.74-7.06,14.74-15.73,14.74Z" transform="translate(-332.7 -273.47)"/><path class="cls-3" d="M366,293.09a4.56,4.56,0,1,1-4.86,4.55,4.71,4.71,0,0,1,4.86-4.55Z" transform="translate(-332.7 -273.47)"/><path class="cls-2" d="M366,293.56a4.08,4.08,0,1,0,4.35,4.08,4.23,4.23,0,0,0-4.35-4.08Zm0,9.1a5,5,0,1,1,5.35-5,5.21,5.21,0,0,1-5.35,5Z" transform="translate(-332.7 -273.47)"/><path class="cls-4" d="M358,281.18c-.28,0-.5-.08-.5-.18v-.35l-3-1h0L350.09,278c-.09,0-.14-.08-.14-.12v-3.2c0-.1.23-.18.5-.18s.51.08.51.18v3.12l4.2,1.57,3.17,1.08c.1,0,.16.09.16.14V281c0,.1-.22.18-.5.18Z" transform="translate(-332.7 -273.47)"/><path class="cls-4" d="M362.34,280.88c-.28,0-.5-.08-.5-.18v-.47l-7.39-2.66c-.09,0-.15-.08-.15-.13v-.6c0-.1.23-.18.51-.18s.5.08.5.18v.53L362.7,280c.09,0,.14.08.14.12v.55c0,.1-.22.18-.5.18Z" transform="translate(-332.7 -273.47)"/><path class="cls-4" d="M356.48,278.29a.91.91,0,0,1-.35-.06c-.2-.07-.2-.18,0-.25l3-1.09v-1.31c0-.1.22-.18.5-.18s.5.08.5.18V277c0,.05-.05.1-.14.13l-3.18,1.14a1,1,0,0,1-.36.06Z" transform="translate(-332.7 -273.47)"/><path class="cls-4" d="M366,280.82c-.27,0-.5-.08-.5-.18v-5.79c0-.1.23-.18.5-.18s.51.08.51.18v5.79c0,.1-.23.18-.51.18Z" transform="translate(-332.7 -273.47)"/><path class="cls-4" d="M366,279.43a1.29,1.29,0,0,1-.35-.05l-3.18-1.15c-.1,0-.15-.08-.15-.12v-2.23c0-.1.23-.18.5-.18s.5.08.5.18V278l3,1.09c.19.07.19.19,0,.26a1.3,1.3,0,0,1-.36.05Z" transform="translate(-332.7 -273.47)"/><path class="cls-3" d="M350.45,273.65c.83,0,1.34.24,1.34.48s-.51.54-1.34.54-1.51-.24-1.51-.54.67-.48,1.51-.48Z" transform="translate(-332.7 -273.47)"/><path class="cls-2" d="M350.45,273.83c-.57,0-1,.16-1,.3s.44.36,1,.36.83-.19.83-.36-.29-.3-.83-.3Zm0,1c-1.11,0-2-.32-2-.72s.94-.66,2-.66,1.84.33,1.84.66-.78.72-1.84.72Z" transform="translate(-332.7 -273.47)"/><path class="cls-4" d="M359.66,274.55c.66,0,1.33.24,1.33.54s-.67.49-1.33.49c-.84,0-1.51-.24-1.51-.49s.67-.54,1.51-.54Z" transform="translate(-332.7 -273.47)"/><path class="cls-2" d="M359.66,274.73c-.57,0-1,.16-1,.36s.44.31,1,.31c.39,0,.83-.16.83-.31s-.45-.36-.83-.36Zm0,1c-1.08,0-2-.31-2-.67s.9-.72,2-.72,1.84.34,1.84.72-.9.67-1.84.67Z" transform="translate(-332.7 -273.47)"/><path class="cls-4" d="M374.06,281.18c-.28,0-.5-.08-.5-.18v-.42c0-.05.05-.1.15-.14l3.18-1.08,4.2-1.57v-3.12c0-.1.23-.18.5-.18s.5.08.5.18v3.2s0,.09-.14.12l-4.35,1.63h0l-3,1V281c0,.1-.22.18-.5.18Z" transform="translate(-332.7 -273.47)"/><path class="cls-4" d="M369.71,280.88c-.28,0-.51-.08-.51-.18v-.55s.06-.09.15-.12l7.39-2.66v-.53c0-.1.22-.18.5-.18s.5.08.5.18v.6c0,.05-.05.1-.15.13l-7.38,2.66v.47c0,.1-.23.18-.5.18Z" transform="translate(-332.7 -273.47)"/><path class="cls-4" d="M375.57,278.29a1,1,0,0,1-.36-.06L372,277.09c-.09,0-.15-.08-.15-.13v-1.38c0-.1.23-.18.5-.18s.51.08.51.18v1.31l3,1.09c.2.07.2.18,0,.25a1,1,0,0,1-.35.06Z" transform="translate(-332.7 -273.47)"/><path class="cls-4" d="M381.59,273.65c-.84,0-1.34.24-1.34.48s.5.54,1.34.54,1.5-.24,1.5-.54-.67-.48-1.5-.48Z" transform="translate(-332.7 -273.47)"/><path class="cls-2" d="M381.59,273.83c-.55,0-.84.15-.84.3s.22.36.84.36,1-.16,1-.36-.44-.3-1-.3Zm0,1c-1.07,0-1.85-.3-1.85-.72s.69-.66,1.85-.66,2,.31,2,.66-.9.72-2,.72Z" transform="translate(-332.7 -273.47)"/><path class="cls-4" d="M372.38,274.55c-.67,0-1.34.24-1.34.54s.67.49,1.34.49c.84,0,1.51-.24,1.51-.49s-.67-.54-1.51-.54Z" transform="translate(-332.7 -273.47)"/><path class="cls-2" d="M372.38,274.73c-.39,0-.84.16-.84.36s.45.31.84.31c.56,0,1-.17,1-.31s-.44-.36-1-.36Zm0,1c-.95,0-1.84-.32-1.84-.67s.86-.72,1.84-.72,2,.33,2,.72-.94.67-2,.67Z" transform="translate(-332.7 -273.47)"/><path class="cls-4" d="M350.45,321.21c-.27,0-.5-.08-.5-.19v-3.4c0-.05.05-.09.14-.13l4.36-1.73h0l3-1.09v-.37c0-.1.22-.19.5-.19s.5.09.5.19v.45c0,.05-.06.1-.16.14L355.16,316,351,317.7V321c0,.11-.23.19-.51.19Z" transform="translate(-332.7 -273.47)"/><path class="cls-4" d="M354.81,318.9c-.28,0-.51-.08-.51-.19v-.64c0-.05.06-.1.15-.13l7.39-2.83v-.5c0-.1.22-.19.5-.19s.5.09.5.19v.58c0,.05,0,.1-.14.13l-7.39,2.83v.56c0,.11-.23.19-.5.19Z" transform="translate(-332.7 -273.47)"/><path class="cls-4" d="M359.66,320.25c-.28,0-.5-.09-.5-.19V318.6l-3-1.09c-.21-.08-.21-.2,0-.28a1.15,1.15,0,0,1,.71,0l3.18,1.15c.1,0,.15.09.15.14v1.54c0,.1-.22.19-.5.19Z" transform="translate(-332.7 -273.47)"/><path class="cls-4" d="M366,321c-.27,0-.5-.09-.5-.19v-6.15c0-.11.23-.2.5-.2s.51.09.51.2v6.15c0,.1-.23.19-.51.19Z" transform="translate(-332.7 -273.47)"/><path class="cls-4" d="M362.84,319.93c-.27,0-.5-.09-.5-.19v-2.37c0-.05.05-.1.15-.14l3.18-1.22a1.23,1.23,0,0,1,.71,0c.19.08.19.2,0,.28l-3,1.16v2.29c0,.1-.22.19-.5.19Z" transform="translate(-332.7 -273.47)"/><path class="cls-3" d="M350.45,322.11c.83,0,1.34-.26,1.34-.51s-.51-.58-1.34-.58-1.51.26-1.51.58.67.51,1.51.51Z" transform="translate(-332.7 -273.47)"/><path class="cls-2" d="M350.45,321.21c-.57,0-1,.17-1,.39s.44.32,1,.32.83-.17.83-.32-.21-.39-.83-.39Zm0,1.09c-1.07,0-2-.33-2-.7s.9-.77,2-.77,1.84.32,1.84.77-.69.7-1.84.7Z" transform="translate(-332.7 -273.47)"/><path class="cls-3" d="M359.66,321.15c.66,0,1.33-.26,1.33-.58s-.67-.51-1.33-.51c-.84,0-1.51.25-1.51.51s.67.58,1.51.58Z" transform="translate(-332.7 -273.47)"/><path class="cls-2" d="M359.66,320.25c-.57,0-1,.17-1,.32s.44.38,1,.38c.38,0,.83-.16.83-.38s-.44-.32-.83-.32Zm0,1.09c-1.11,0-2-.35-2-.77s.93-.7,2-.7,1.84.34,1.84.7-.86.77-1.84.77Z" transform="translate(-332.7 -273.47)"/><path class="cls-4" d="M381.59,321.21c-.27,0-.5-.08-.5-.19V317.7l-4.2-1.67-3.18-1.15c-.1,0-.15-.09-.15-.14v-.45c0-.1.22-.19.5-.19s.5.09.5.19v.37l3,1.09h0l4.35,1.73c.09,0,.14.08.14.13V321c0,.11-.22.19-.5.19Z" transform="translate(-332.7 -273.47)"/><path class="cls-4" d="M377.24,318.9c-.28,0-.5-.08-.5-.19v-.56l-7.39-2.83c-.09,0-.15-.08-.15-.13v-.58c0-.1.23-.19.51-.19s.5.09.5.19v.5l7.38,2.83c.1,0,.15.08.15.13v.64c0,.11-.22.19-.5.19Z" transform="translate(-332.7 -273.47)"/><path class="cls-4" d="M372.38,320.25c-.27,0-.5-.09-.5-.19v-1.54s.06-.1.16-.14l3.18-1.15a1.15,1.15,0,0,1,.71,0c.19.08.18.2,0,.28l-3,1.09v1.46c0,.1-.23.19-.51.19Z" transform="translate(-332.7 -273.47)"/><path class="cls-3" d="M381.59,322.11c-.84,0-1.34-.26-1.34-.51s.5-.58,1.34-.58,1.5.26,1.5.58-.67.51-1.5.51Z" transform="translate(-332.7 -273.47)"/><path class="cls-2" d="M381.59,321.21c-.62,0-.84.21-.84.39s.29.32.84.32,1-.18,1-.32-.44-.39-1-.39Zm0,1.09c-1.16,0-1.85-.36-1.85-.7s.78-.77,1.85-.77,2,.34,2,.77-.93.7-2,.7Z" transform="translate(-332.7 -273.47)"/><path class="cls-4" d="M372.38,321.15c-.67,0-1.34-.26-1.34-.58s.67-.51,1.34-.51c.84,0,1.51.25,1.51.51s-.67.58-1.51.58Z" transform="translate(-332.7 -273.47)"/><path class="cls-2" d="M372.38,320.25c-.39,0-.84.17-.84.32s.45.38.84.38c.56,0,1-.16,1-.38s-.44-.32-1-.32Zm0,1.09c-1,0-1.84-.36-1.84-.77s.89-.7,1.84-.7,2,.32,2,.7-.9.77-2,.77Z" transform="translate(-332.7 -273.47)"/><path class="cls-4" d="M366,294.66a.49.49,0,0,1-.5-.47V290a.51.51,0,0,1,1,0v4.23a.49.49,0,0,1-.51.47Z" transform="translate(-332.7 -273.47)"/><path class="cls-4" d="M368.53,295.76a.54.54,0,0,1-.35-.14.45.45,0,0,1,0-.67l3.35-3.13a.53.53,0,0,1,.71,0,.45.45,0,0,1,0,.66l-3.35,3.14a.54.54,0,0,1-.36.14Z" transform="translate(-332.7 -273.47)"/><path class="cls-4" d="M374.23,298.11h-4.52a.47.47,0,1,1,0-.94h4.52a.47.47,0,1,1,0,.94Z" transform="translate(-332.7 -273.47)"/><path class="cls-4" d="M371.88,303.6a.52.52,0,0,1-.35-.14l-3.35-3.14a.44.44,0,0,1,0-.66.51.51,0,0,1,.71,0l3.35,3.13a.47.47,0,0,1,0,.67.54.54,0,0,1-.36.14Z" transform="translate(-332.7 -273.47)"/><path class="cls-4" d="M366,305.79a.49.49,0,0,1-.5-.47v-4.23a.51.51,0,0,1,1,0v4.23a.49.49,0,0,1-.51.47Z" transform="translate(-332.7 -273.47)"/><path class="cls-4" d="M360.16,303.6a.54.54,0,0,1-.35-.14.45.45,0,0,1,0-.67l3.35-3.13a.51.51,0,0,1,.71,0,.45.45,0,0,1,0,.66l-3.35,3.14a.54.54,0,0,1-.36.14Z" transform="translate(-332.7 -273.47)"/><path class="cls-4" d="M362.34,298.11h-4.52a.47.47,0,1,1,0-.94h4.52a.47.47,0,1,1,0,.94Z" transform="translate(-332.7 -273.47)"/><path class="cls-4" d="M363.51,295.76a.52.52,0,0,1-.35-.14l-3.35-3.14a.44.44,0,0,1,0-.66.53.53,0,0,1,.71,0l3.35,3.13a.46.46,0,0,1,0,.67.54.54,0,0,1-.36.14Z" transform="translate(-332.7 -273.47)"/></svg>