<svg id="Layer_1" data-name="Layer 1" xmlns="http://www.w3.org/2000/svg" viewBox="0 0 66.63 51.21"><defs><style>.cls-1{fill:#ffd46a;}.cls-2{fill:#876052;}.cls-3{fill:#fcda78;}.cls-4{fill:#fff;}</style></defs><path class="cls-1" d="M398.83,297.64c-7.87,11-19.59,17.87-32.81,17.87s-24.95-6.9-32.82-17.87c7.87-11,19.59-17.87,32.82-17.87s24.94,6.9,32.81,17.87Z" transform="translate(-332.7 -272.04)"/><path class="cls-2" d="M333.81,297.64c8,11.06,19.77,17.4,32.21,17.4s24.16-6.34,32.2-17.4c-8-11.06-19.76-17.4-32.2-17.4s-24.17,6.34-32.21,17.4ZM366,316a37.89,37.89,0,0,1-18.67-4.89,44.49,44.49,0,0,1-14.56-13.19.42.42,0,0,1,0-.52,44.52,44.52,0,0,1,14.56-13.2,38.15,38.15,0,0,1,37.34,0,44.62,44.62,0,0,1,14.56,13.2.45.45,0,0,1,0,.52,44.59,44.59,0,0,1-14.56,13.19A37.92,37.92,0,0,1,366,316Z" transform="translate(-332.7 -272.04)"/><path class="cls-1" d="M366,283.37c8.37,0,15.23,6.43,15.23,14.27S374.39,311.9,366,311.9s-15.24-6.42-15.24-14.26,6.87-14.27,15.24-14.27Z" transform="translate(-332.7 -272.04)"/><path class="cls-2" d="M366,283.84c-8.13,0-14.74,6.19-14.74,13.8s6.61,13.79,14.74,13.79,14.73-6.18,14.73-13.79-6.61-13.8-14.73-13.8Zm0,28.54c-8.68,0-15.74-6.62-15.74-14.74S357.34,282.9,366,282.9s15.73,6.61,15.73,14.74-7.06,14.74-15.73,14.74Z" transform="translate(-332.7 -272.04)"/><path class="cls-3" d="M366,293.09a4.56,4.56,0,1,1-4.86,4.55,4.71,4.71,0,0,1,4.86-4.55Z" transform="translate(-332.7 -272.04)"/><path class="cls-2" d="M366,293.56a4.08,4.08,0,1,0,4.35,4.08,4.23,4.23,0,0,0-4.35-4.08Zm0,9.1a5,5,0,1,1,5.35-5,5.21,5.21,0,0,1-5.35,5Z" transform="translate(-332.7 -272.04)"/><path class="cls-4" d="M358,281.18c-.28,0-.5-.1-.5-.22v-.4l-3-1.22h0l-4.36-1.93c-.09,0-.14-.09-.14-.15v-3.78c0-.12.23-.21.5-.21s.51.09.51.21v3.7l4.2,1.86,3.17,1.28c.1,0,.16.1.16.15v.5c0,.12-.22.22-.5.22Z" transform="translate(-332.7 -272.04)"/><path class="cls-4" d="M362.34,280.82c-.28,0-.5-.09-.5-.21v-.56l-7.39-3.14c-.09,0-.15-.1-.15-.16V276c0-.12.23-.21.51-.21s.5.09.5.21v.63l7.39,3.14c.09,0,.14.1.14.16v.64c0,.12-.22.21-.5.21Z" transform="translate(-332.7 -272.04)"/><path class="cls-4" d="M356.48,277.75a.91.91,0,0,1-.35-.06c-.2-.08-.2-.22,0-.3l3-1.3v-1.55c0-.12.22-.21.5-.21s.5.09.5.21v1.64c0,.06-.05.11-.14.15l-3.18,1.36a1,1,0,0,1-.36.06Z" transform="translate(-332.7 -272.04)"/><path class="cls-4" d="M366,280.75c-.27,0-.5-.1-.5-.21v-6.85c0-.12.23-.22.5-.22s.51.1.51.22v6.85c0,.11-.23.21-.51.21Z" transform="translate(-332.7 -272.04)"/><path class="cls-4" d="M366,279.11a1,1,0,0,1-.35-.06l-3.18-1.36q-.15-.06-.15-.15V274.9c0-.12.23-.22.5-.22s.5.1.5.22v2.55l3,1.29c.19.09.19.22,0,.31a1,1,0,0,1-.36.06Z" transform="translate(-332.7 -272.04)"/><path class="cls-3" d="M350.45,272.26c.83,0,1.34.28,1.34.57s-.51.64-1.34.64-1.51-.28-1.51-.64.67-.57,1.51-.57Z" transform="translate(-332.7 -272.04)"/><path class="cls-2" d="M350.45,272.47c-.57,0-1,.19-1,.36s.44.43,1,.43.83-.23.83-.43-.29-.36-.83-.36Zm0,1.22c-1.11,0-2-.39-2-.86s.94-.79,2-.79,1.84.4,1.84.79-.78.86-1.84.86Z" transform="translate(-332.7 -272.04)"/><path class="cls-4" d="M359.66,273.33c.66,0,1.33.28,1.33.64s-.67.57-1.33.57c-.84,0-1.51-.28-1.51-.57s.67-.64,1.51-.64Z" transform="translate(-332.7 -272.04)"/><path class="cls-2" d="M359.66,273.54c-.57,0-1,.19-1,.43s.44.36,1,.36c.39,0,.83-.19.83-.36s-.45-.43-.83-.43Zm0,1.22c-1.08,0-2-.37-2-.79s.9-.86,2-.86,1.84.41,1.84.86-.9.79-1.84.79Z" transform="translate(-332.7 -272.04)"/><path class="cls-4" d="M374.06,281.18c-.28,0-.5-.1-.5-.22v-.5s.05-.11.15-.15l3.18-1.28,4.2-1.86v-3.7c0-.12.23-.21.5-.21s.5.09.5.21v3.78c0,.06,0,.11-.14.15l-4.35,1.93h0l-3,1.22v.4c0,.12-.22.22-.5.22Z" transform="translate(-332.7 -272.04)"/><path class="cls-4" d="M369.71,280.82c-.28,0-.51-.09-.51-.21V280c0-.06.06-.12.15-.16l7.39-3.14V276c0-.12.22-.21.5-.21s.5.09.5.21v.71c0,.06-.05.12-.15.16l-7.38,3.14v.56c0,.12-.23.21-.5.21Z" transform="translate(-332.7 -272.04)"/><path class="cls-4" d="M375.57,277.75a1,1,0,0,1-.36-.06L372,276.33c-.09,0-.15-.09-.15-.15v-1.64c0-.12.23-.21.5-.21s.51.09.51.21v1.55l3,1.3c.2.08.2.22,0,.3a1,1,0,0,1-.35.06Z" transform="translate(-332.7 -272.04)"/><path class="cls-4" d="M381.59,272.26c-.84,0-1.34.28-1.34.57s.5.64,1.34.64,1.5-.28,1.5-.64-.67-.57-1.5-.57Z" transform="translate(-332.7 -272.04)"/><path class="cls-2" d="M381.59,272.47c-.55,0-.84.19-.84.36s.22.43.84.43,1-.19,1-.43-.44-.36-1-.36Zm0,1.22c-1.07,0-1.85-.36-1.85-.86s.69-.79,1.85-.79,2,.37,2,.79-.9.86-2,.86Z" transform="translate(-332.7 -272.04)"/><path class="cls-4" d="M372.38,273.33c-.67,0-1.34.28-1.34.64s.67.57,1.34.57c.84,0,1.51-.28,1.51-.57s-.67-.64-1.51-.64Z" transform="translate(-332.7 -272.04)"/><path class="cls-2" d="M372.38,273.54c-.39,0-.84.19-.84.43s.45.36.84.36c.56,0,1-.19,1-.36s-.44-.43-1-.43Zm0,1.22c-.95,0-1.84-.39-1.84-.79s.86-.86,1.84-.86,2,.39,2,.86-.94.79-2,.79Z" transform="translate(-332.7 -272.04)"/><path class="cls-4" d="M350.45,322c-.27,0-.5-.1-.5-.22V318s.05-.11.14-.15l4.36-1.93h0l3-1.23v-.41c0-.11.22-.21.5-.21s.5.1.5.21v.5c0,.06-.06.12-.16.16l-3.17,1.28-4.2,1.87v3.7c0,.12-.23.22-.51.22Z" transform="translate(-332.7 -272.04)"/><path class="cls-4" d="M354.81,319.46c-.28,0-.51-.09-.51-.21v-.72s.06-.11.15-.15l7.39-3.15v-.56c0-.12.22-.21.5-.21s.5.09.5.21v.65c0,.05,0,.11-.14.15l-7.39,3.15v.63c0,.12-.23.21-.5.21Z" transform="translate(-332.7 -272.04)"/><path class="cls-4" d="M359.66,321c-.28,0-.5-.1-.5-.22v-1.62l-3-1.23c-.21-.08-.21-.21,0-.3a1,1,0,0,1,.71,0l3.18,1.29c.1,0,.15.1.15.15v1.72c0,.12-.22.22-.5.22Z" transform="translate(-332.7 -272.04)"/><path class="cls-4" d="M366,321.82c-.27,0-.5-.09-.5-.21v-6.87c0-.12.23-.21.5-.21s.51.09.51.21v6.87c0,.12-.23.21-.51.21Z" transform="translate(-332.7 -272.04)"/><path class="cls-4" d="M362.84,320.61c-.27,0-.5-.1-.5-.22v-2.64q0-.09.15-.15l3.18-1.36a1,1,0,0,1,.71,0c.19.08.19.22,0,.3l-3,1.3v2.55c0,.12-.22.22-.5.22Z" transform="translate(-332.7 -272.04)"/><path class="cls-3" d="M350.45,323c.83,0,1.34-.29,1.34-.57s-.51-.65-1.34-.65-1.51.29-1.51.65.67.57,1.51.57Z" transform="translate(-332.7 -272.04)"/><path class="cls-2" d="M350.45,322c-.57,0-1,.19-1,.43s.44.36,1,.36.83-.19.83-.36-.21-.43-.83-.43Zm0,1.21c-1.07,0-2-.36-2-.78s.9-.86,2-.86,1.84.36,1.84.86-.69.78-1.84.78Z" transform="translate(-332.7 -272.04)"/><path class="cls-3" d="M359.66,322c.66,0,1.33-.29,1.33-.65s-.67-.57-1.33-.57c-.84,0-1.51.29-1.51.57s.67.65,1.51.65Z" transform="translate(-332.7 -272.04)"/><path class="cls-2" d="M359.66,321c-.57,0-1,.19-1,.35s.44.43,1,.43c.38,0,.83-.18.83-.43s-.44-.35-.83-.35Zm0,1.21c-1.11,0-2-.38-2-.86s.93-.78,2-.78,1.84.38,1.84.78-.86.86-1.84.86Z" transform="translate(-332.7 -272.04)"/><path class="cls-4" d="M381.59,322c-.27,0-.5-.1-.5-.22v-3.7l-4.2-1.87L373.71,315c-.1,0-.15-.1-.15-.16v-.5c0-.11.22-.21.5-.21s.5.1.5.21v.41l3,1.23h0l4.35,1.93c.09,0,.14.1.14.15v3.79c0,.12-.22.22-.5.22Z" transform="translate(-332.7 -272.04)"/><path class="cls-4" d="M377.24,319.46c-.28,0-.5-.09-.5-.21v-.63l-7.39-3.15c-.09,0-.15-.1-.15-.15v-.65c0-.12.23-.21.51-.21s.5.09.5.21v.56l7.38,3.15c.1,0,.15.1.15.15v.72c0,.12-.22.21-.5.21Z" transform="translate(-332.7 -272.04)"/><path class="cls-4" d="M372.38,321c-.27,0-.5-.1-.5-.22V319s.06-.11.16-.15l3.18-1.29a1,1,0,0,1,.71,0c.19.09.18.22,0,.3l-3,1.23v1.62c0,.12-.23.22-.51.22Z" transform="translate(-332.7 -272.04)"/><path class="cls-3" d="M381.59,323c-.84,0-1.34-.29-1.34-.57s.5-.65,1.34-.65,1.5.29,1.5.65-.67.57-1.5.57Z" transform="translate(-332.7 -272.04)"/><path class="cls-2" d="M381.59,322c-.62,0-.84.23-.84.43s.29.36.84.36,1-.2,1-.36-.44-.43-1-.43Zm0,1.21c-1.16,0-1.85-.4-1.85-.78s.78-.86,1.85-.86,2,.38,2,.86-.93.78-2,.78Z" transform="translate(-332.7 -272.04)"/><path class="cls-4" d="M372.38,322c-.67,0-1.34-.29-1.34-.65s.67-.57,1.34-.57c.84,0,1.51.29,1.51.57s-.67.65-1.51.65Z" transform="translate(-332.7 -272.04)"/><path class="cls-2" d="M372.38,321c-.39,0-.84.19-.84.35s.45.43.84.43c.56,0,1-.19,1-.43s-.44-.35-1-.35Zm0,1.21c-1,0-1.84-.4-1.84-.86s.89-.78,1.84-.78,2,.36,2,.78-.9.86-2,.86Z" transform="translate(-332.7 -272.04)"/><path class="cls-4" d="M366,294.66a.49.49,0,0,1-.5-.47V290a.51.51,0,0,1,1,0v4.23a.49.49,0,0,1-.51.47Z" transform="translate(-332.7 -272.04)"/><path class="cls-4" d="M368.53,295.76a.54.54,0,0,1-.35-.14.45.45,0,0,1,0-.67l3.35-3.13a.53.53,0,0,1,.71,0,.45.45,0,0,1,0,.66l-3.35,3.14a.54.54,0,0,1-.36.14Z" transform="translate(-332.7 -272.04)"/><path class="cls-4" d="M374.23,298.11h-4.52a.47.47,0,1,1,0-.94h4.52a.47.47,0,1,1,0,.94Z" transform="translate(-332.7 -272.04)"/><path class="cls-4" d="M371.88,303.6a.52.52,0,0,1-.35-.14l-3.35-3.14a.44.44,0,0,1,0-.66.51.51,0,0,1,.71,0l3.35,3.13a.47.47,0,0,1,0,.67.54.54,0,0,1-.36.14Z" transform="translate(-332.7 -272.04)"/><path class="cls-4" d="M366,305.79a.49.49,0,0,1-.5-.47v-4.23a.51.51,0,0,1,1,0v4.23a.49.49,0,0,1-.51.47Z" transform="translate(-332.7 -272.04)"/><path class="cls-4" d="M360.16,303.6a.54.54,0,0,1-.35-.14.45.45,0,0,1,0-.67l3.35-3.13a.51.51,0,0,1,.71,0,.45.45,0,0,1,0,.66l-3.35,3.14a.54.54,0,0,1-.36.14Z" transform="translate(-332.7 -272.04)"/><path class="cls-4" d="M362.34,298.11h-4.52a.47.47,0,1,1,0-.94h4.52a.47.47,0,1,1,0,.94Z" transform="translate(-332.7 -272.04)"/><path class="cls-4" d="M363.51,295.76a.52.52,0,0,1-.35-.14l-3.35-3.14a.44.44,0,0,1,0-.66.53.53,0,0,1,.71,0l3.35,3.13a.46.46,0,0,1,0,.67.54.54,0,0,1-.36.14Z" transform="translate(-332.7 -272.04)"/></svg>