<svg id="Layer_1" data-name="Layer 1" xmlns="http://www.w3.org/2000/svg" viewBox="0 0 105.69 36.92"><defs><style>.cls-1{fill:#ffd46a;}.cls-2{fill:#876052;}.cls-3{fill:#fcda78;}.cls-4{fill:#fff;}</style></defs><path class="cls-1" d="M398.83,298c-8,10.89-19.77,17.67-33,17.54s-24.88-7.15-32.63-18.2c8-10.9,19.76-17.68,33-17.54s24.87,7.15,32.63,18.2Z" transform="translate(-313.28 -279.29)"/><path class="cls-2" d="M333.81,297.31c7.93,11.15,19.59,17.6,32,17.73s24.23-6.1,32.38-17.08c-7.93-11.14-19.59-17.6-32-17.72s-24.22,6.09-32.38,17.07Zm32,18.67a38,38,0,0,1-18.62-5.08,44.54,44.54,0,0,1-14.42-13.33.45.45,0,0,1,0-.53,44.59,44.59,0,0,1,14.69-13,38.12,38.12,0,0,1,37.34.37,44.61,44.61,0,0,1,14.43,13.34.43.43,0,0,1,0,.52,44.51,44.51,0,0,1-14.69,13,38.1,38.1,0,0,1-18.72,4.7Z" transform="translate(-313.28 -279.29)"/><path class="cls-1" d="M366.16,283.37c8.37.09,15.17,6.58,15.09,14.42s-7,14.2-15.38,14.11-15.17-6.58-15.09-14.42,7-14.19,15.38-14.11Z" transform="translate(-313.28 -279.29)"/><path class="cls-2" d="M366.16,283.84c-8.13-.08-14.8,6-14.87,13.65s6.47,13.86,14.59,13.94,14.79-6,14.87-13.64-6.47-13.87-14.59-14Zm-.29,28.53c-8.68-.08-15.67-6.77-15.59-14.89s7.21-14.66,15.88-14.58,15.67,6.77,15.59,14.9-7.2,14.66-15.88,14.57Z" transform="translate(-313.28 -279.29)"/><path class="cls-3" d="M366.06,293.09a4.56,4.56,0,1,1-4.9,4.5,4.71,4.71,0,0,1,4.9-4.5Z" transform="translate(-313.28 -279.29)"/><path class="cls-2" d="M366.06,293.56a4.08,4.08,0,1,0,4.31,4.12,4.24,4.24,0,0,0-4.31-4.12Zm-.09,9.09a5,5,0,1,1,5.4-5,5.2,5.2,0,0,1-5.4,5Z" transform="translate(-313.28 -279.29)"/><path class="cls-4" d="M398.67,290a.48.48,0,0,1,.49-.48l.89,0,2.78-2.94h0l4.37-4.21a.42.42,0,0,1,.33-.13l8.31.27a.49.49,0,0,1,.45.52.47.47,0,0,1-.48.48l-8.12-.26-4.22,4.06-2.92,3.08a.47.47,0,0,1-.35.15l-1.1,0a.49.49,0,0,1-.45-.52Z" transform="translate(-313.28 -279.29)"/><path class="cls-4" d="M399.31,294.39a.49.49,0,0,1,.49-.49l1.21,0,7.16-7.15a.48.48,0,0,1,.34-.14l1.56.05a.51.51,0,0,1,0,1l-1.37,0-7.16,7.16a.43.43,0,0,1-.34.13l-1.41,0a.49.49,0,0,1-.45-.52Z" transform="translate(-313.28 -279.29)"/><path class="cls-4" d="M406.24,288.76a.61.61,0,0,1,.15-.36.45.45,0,0,1,.67,0l2.74,3.12,3.4.12a.48.48,0,0,1,.46.51.49.49,0,0,1-.49.49l-3.6-.12a.42.42,0,0,1-.33-.16l-2.87-3.28a.53.53,0,0,1-.13-.35Z" transform="translate(-313.28 -279.29)"/><path class="cls-4" d="M399.35,298.07a.48.48,0,0,1,.48-.48l15,.5a.48.48,0,0,1,.46.51.49.49,0,0,1-.49.49l-15-.5a.49.49,0,0,1-.45-.52Z" transform="translate(-313.28 -279.29)"/><path class="cls-4" d="M403,298.19a.5.5,0,0,1,.15-.35l3.08-3.08a.43.43,0,0,1,.34-.13l5.8.19a.5.5,0,0,1,0,1l-5.6-.18-2.94,2.93a.43.43,0,0,1-.66,0,.53.53,0,0,1-.13-.36Z" transform="translate(-313.28 -279.29)"/><path class="cls-3" d="M418.51,283.12a1.28,1.28,0,0,1-1.3,1.3,1.32,1.32,0,0,1-1.37-1.38,1.35,1.35,0,1,1,2.67.08Z" transform="translate(-313.28 -279.29)"/><path class="cls-2" d="M418,283.11a.88.88,0,1,0-1.73-.06.85.85,0,0,0,.92.87.8.8,0,0,0,.81-.81Zm-2.67-.09a1.82,1.82,0,1,1,3.61.12,1.77,1.77,0,0,1-1.79,1.78,1.8,1.8,0,0,1-1.82-1.9Z" transform="translate(-313.28 -279.29)"/><path class="cls-4" d="M415.85,292.25a1.41,1.41,0,0,1-1.45,1.29,1.4,1.4,0,0,1-1.21-1.38,1.43,1.43,0,0,1,1.3-1.46,1.45,1.45,0,0,1,1.36,1.55Z" transform="translate(-313.28 -279.29)"/><path class="cls-2" d="M415.38,292.23a.87.87,0,1,0-1.72-.05.91.91,0,0,0,.75.86.94.94,0,0,0,1-.81Zm-2.66-.08a1.94,1.94,0,0,1,1.79-2,2,2,0,0,1,1.81,2.07,1.9,1.9,0,0,1-1.94,1.78,1.87,1.87,0,0,1-1.66-1.89Z" transform="translate(-313.28 -279.29)"/><path class="cls-4" d="M398.14,306.07a.49.49,0,0,1,.49-.48l1.09,0a.51.51,0,0,1,.34.17l2.71,3.27,3.94,4.33,8.12.27a.51.51,0,0,1,0,1l-8.31-.28a.44.44,0,0,1-.32-.15l-4.09-4.49v0l-2.58-3.11-.9,0a.49.49,0,0,1-.45-.52Z" transform="translate(-313.28 -279.29)"/><path class="cls-4" d="M399.07,301.75a.49.49,0,0,1,.48-.49l1.41.05a.42.42,0,0,1,.33.16l6.67,7.61,1.37,0a.51.51,0,0,1,.46.52.49.49,0,0,1-.49.49l-1.57-.05a.49.49,0,0,1-.33-.16l-6.66-7.61-1.22,0a.49.49,0,0,1-.45-.52Z" transform="translate(-313.28 -279.29)"/><path class="cls-4" d="M405.61,307.83a.51.51,0,0,1,.15-.35l3.08-3.08a.48.48,0,0,1,.34-.14l3.6.12a.51.51,0,0,1,0,1l-3.41-.12-2.94,2.94a.45.45,0,0,1-.66,0,.53.53,0,0,1-.13-.36Z" transform="translate(-313.28 -279.29)"/><path class="cls-4" d="M417.48,314.25a1.29,1.29,0,0,0-1.21-1.38,1.31,1.31,0,0,0-1.46,1.29,1.35,1.35,0,1,0,2.67.09Z" transform="translate(-313.28 -279.29)"/><path class="cls-2" d="M417,314.23a.8.8,0,0,0-.76-.86.84.84,0,0,0-1,.8.88.88,0,1,0,1.73.06Zm-2.67-.09a1.81,1.81,0,0,1,1.94-1.78,1.78,1.78,0,0,1,1.67,1.9,1.82,1.82,0,1,1-3.61-.12Z" transform="translate(-313.28 -279.29)"/><path class="cls-4" d="M415.43,305a1.43,1.43,0,0,0-1.37-1.39,1.4,1.4,0,0,0-1.29,1.3,1.43,1.43,0,0,0,1.2,1.54,1.45,1.45,0,0,0,1.46-1.45Z" transform="translate(-313.28 -279.29)"/><path class="cls-2" d="M415,305a.94.94,0,0,0-.91-.87.91.91,0,0,0-.81.81,1,1,0,0,0,.75,1,1,1,0,0,0,1-1Zm-2.66-.09a1.88,1.88,0,0,1,1.78-1.78,1.91,1.91,0,0,1,1.82,1.9,2,2,0,0,1-1.95,1.95,1.94,1.94,0,0,1-1.65-2.07Z" transform="translate(-313.28 -279.29)"/><path class="cls-4" d="M316.63,281.59a.48.48,0,0,1,.48-.49l8.31.18a.42.42,0,0,1,.32.15l4.14,4.44v0l2.62,3.08.89,0a.48.48,0,0,1,.46.51.48.48,0,0,1-.48.49l-1.1,0a.42.42,0,0,1-.33-.16l-2.75-3.24-4-4.29-8.12-.18a.48.48,0,0,1-.46-.51Z" transform="translate(-313.28 -279.29)"/><path class="cls-4" d="M322.18,286.06a.49.49,0,0,1,.48-.49l1.56,0a.45.45,0,0,1,.33.15l6.76,7.54,1.21,0a.51.51,0,0,1,0,1l-1.41,0a.49.49,0,0,1-.33-.16L324,286.61l-1.37,0a.49.49,0,0,1-.46-.52Z" transform="translate(-313.28 -279.29)"/><path class="cls-4" d="M318.78,290.85a.49.49,0,0,1,.48-.5l3.56.08,2.75-3a.45.45,0,0,1,.66,0,.52.52,0,0,1,0,.71l-2.9,3.12a.45.45,0,0,1-.34.15l-3.76-.08a.49.49,0,0,1-.46-.51Z" transform="translate(-313.28 -279.29)"/><path class="cls-4" d="M316.76,297.16a.49.49,0,0,1,.48-.49l15.05.33a.5.5,0,0,1,.46.51.51.51,0,0,1-.49.5l-15-.33a.49.49,0,0,1-.46-.52Z" transform="translate(-313.28 -279.29)"/><path class="cls-4" d="M319.49,294a.5.5,0,0,1,.48-.49l5.8.13a.45.45,0,0,1,.33.15l2.91,3.25a.53.53,0,0,1,0,.71.46.46,0,0,1-.67,0l-2.77-3.09-5.61-.12a.5.5,0,0,1-.46-.52Z" transform="translate(-313.28 -279.29)"/><path class="cls-3" d="M314.44,281.53a1.27,1.27,0,0,0,1.22,1.37,1.32,1.32,0,0,0,1.44-1.31,1.45,1.45,0,0,0-1.38-1.53,1.43,1.43,0,0,0-1.28,1.47Z" transform="translate(-313.28 -279.29)"/><path class="cls-2" d="M316.63,281.58a.87.87,0,1,0-1.72,0,.79.79,0,0,0,.76.86.85.85,0,0,0,1-.82Zm-2.66-.06a1.92,1.92,0,0,1,1.76-2,2,2,0,0,1,1.84,2.05,1.79,1.79,0,0,1-1.92,1.8,1.76,1.76,0,0,1-1.68-1.88Z" transform="translate(-313.28 -279.29)"/><path class="cls-3" d="M316.58,290.79a1.43,1.43,0,0,0,1.39,1.37,1.41,1.41,0,0,0,1.28-1.31,1.43,1.43,0,0,0-1.22-1.53,1.45,1.45,0,0,0-1.45,1.47Z" transform="translate(-313.28 -279.29)"/><path class="cls-2" d="M318.78,290.84a1,1,0,0,0-.76-1,1,1,0,0,0-1,1,1,1,0,0,0,.93.86.92.92,0,0,0,.8-.82Zm-2.67-.06a2,2,0,0,1,1.93-2,1.94,1.94,0,0,1,1.68,2.05,1.88,1.88,0,0,1-1.77,1.8,1.91,1.91,0,0,1-1.84-1.88Z" transform="translate(-313.28 -279.29)"/><path class="cls-4" d="M316,312.72a.48.48,0,0,1,.48-.49l8.12.18,4.18-4.12,2.88-3.11A.45.45,0,0,1,332,305l1.1,0a.5.5,0,0,1,0,1l-.9,0-2.74,3h0L325,313.28a.41.41,0,0,1-.33.13l-8.3-.18a.48.48,0,0,1-.46-.51Z" transform="translate(-313.28 -279.29)"/><path class="cls-4" d="M321.69,308.49a.48.48,0,0,1,.48-.49l1.37,0,7.08-7.23a.4.4,0,0,1,.33-.14l1.41,0a.5.5,0,0,1,0,1l-1.22,0-7.07,7.23a.48.48,0,0,1-.34.14l-1.57,0a.47.47,0,0,1-.45-.51Z" transform="translate(-313.28 -279.29)"/><path class="cls-4" d="M318.5,303.57a.5.5,0,0,1,.48-.5l3.76.09a.46.46,0,0,1,.34.16l2.75,3.24a.52.52,0,0,1,0,.71.46.46,0,0,1-.67,0l-2.61-3.08-3.56-.08a.49.49,0,0,1-.46-.51Z" transform="translate(-313.28 -279.29)"/><path class="cls-3" d="M313.75,312.67a1.29,1.29,0,0,1,1.29-1.32,1.32,1.32,0,0,1,1.38,1.37,1.35,1.35,0,1,1-2.67-.05Z" transform="translate(-313.28 -279.29)"/><path class="cls-2" d="M316,312.71a.84.84,0,0,0-.92-.85.8.8,0,0,0-.81.82.88.88,0,1,0,1.73,0Zm-2.67,0a1.77,1.77,0,0,1,1.77-1.81,1.81,1.81,0,0,1,1.84,1.88,1.82,1.82,0,1,1-3.61-.07Z" transform="translate(-313.28 -279.29)"/><path class="cls-4" d="M316.31,303.51a1.42,1.42,0,0,1,1.44-1.31,1.4,1.4,0,0,1,1.22,1.37,1.34,1.34,0,1,1-2.66-.06Z" transform="translate(-313.28 -279.29)"/><path class="cls-2" d="M318.5,303.56a.91.91,0,0,0-.76-.85.92.92,0,0,0-1,.81.87.87,0,1,0,1.72,0Zm-2.66-.06a1.91,1.91,0,0,1,1.92-1.8,1.88,1.88,0,0,1,1.68,1.88,1.81,1.81,0,1,1-3.6-.08Z" transform="translate(-313.28 -279.29)"/><path class="cls-4" d="M366.05,294.66a.48.48,0,0,1-.49-.48l0-4.23a.5.5,0,0,1,1,0l0,4.23a.49.49,0,0,1-.51.47Z" transform="translate(-313.28 -279.29)"/><path class="cls-4" d="M368.55,295.78a.52.52,0,0,1-.35-.14.45.45,0,0,1,0-.66l3.38-3.11a.53.53,0,0,1,.71,0,.46.46,0,0,1,0,.67l-3.38,3.1a.53.53,0,0,1-.36.13Z" transform="translate(-313.28 -279.29)"/><path class="cls-4" d="M374.22,298.19l-4.52-.05a.48.48,0,0,1-.5-.47.5.5,0,0,1,.51-.47l4.52.05a.49.49,0,0,1,.5.48.48.48,0,0,1-.51.46Z" transform="translate(-313.28 -279.29)"/><path class="cls-4" d="M371.82,303.65a.52.52,0,0,1-.35-.14l-3.32-3.17a.45.45,0,0,1,0-.66.52.52,0,0,1,.71,0l3.32,3.16a.46.46,0,0,1,0,.67.53.53,0,0,1-.36.13Z" transform="translate(-313.28 -279.29)"/><path class="cls-4" d="M365.94,305.79a.49.49,0,0,1-.5-.48l.05-4.23a.47.47,0,0,1,.5-.46.48.48,0,0,1,.5.47l0,4.23a.49.49,0,0,1-.51.47Z" transform="translate(-313.28 -279.29)"/><path class="cls-4" d="M360.1,303.54a.55.55,0,0,1-.35-.15.45.45,0,0,1,0-.66l3.38-3.1a.53.53,0,0,1,.71,0,.46.46,0,0,1,0,.67l-3.38,3.1a.54.54,0,0,1-.36.14Z" transform="translate(-313.28 -279.29)"/><path class="cls-4" d="M362.34,298.07l-4.52,0a.5.5,0,0,1-.5-.48.49.49,0,0,1,.51-.47l4.52.05a.47.47,0,1,1,0,.94Z" transform="translate(-313.28 -279.29)"/><path class="cls-4" d="M363.53,295.73a.5.5,0,0,1-.35-.14l-3.32-3.17a.45.45,0,0,1,0-.66.52.52,0,0,1,.71,0l3.31,3.17a.45.45,0,0,1,0,.67.53.53,0,0,1-.36.13Z" transform="translate(-313.28 -279.29)"/></svg>