<svg id="Layer_1" data-name="Layer 1" xmlns="http://www.w3.org/2000/svg" viewBox="0 0 88.79 58.2"><defs><style>.cls-1{fill:#fdd36a;}</style></defs><path class="cls-1" d="M412.06,320.94c0-4.67,4.14-8.46,9.2-8.46s9.16,3.79,9.19,8.46Zm9.2,33.6h0c6.82,0,12.36-5.12,12.36-11.44v-2.93h-4.73a1.29,1.29,0,1,1,0-2.57h3.86a.84.84,0,0,0,.87-.81h0a.84.84,0,0,0-.87-.8h-3.86a1.3,1.3,0,1,1,0-2.58h3.86a.84.84,0,0,0,.87-.81v-.2a.84.84,0,0,0-.87-.8h-3.86a1.29,1.29,0,1,1,0-2.57h3.86a.84.84,0,0,0,.87-.8h0a.84.84,0,0,0-.87-.81h-3.86a1.3,1.3,0,1,1,0-2.57h4.73V321c0-6.32-5.54-11.43-12.36-11.43h0c-6.83,0-12.37,5.11-12.37,11.43v3.86h4.74a1.3,1.3,0,1,1,0,2.57h-3.87a.84.84,0,0,0-.87.81h0a.84.84,0,0,0,.87.8h3.87a1.3,1.3,0,1,1,0,2.57h-3.87a.84.84,0,0,0-.87.8v.2a.84.84,0,0,0,.87.81h3.87a1.3,1.3,0,1,1,0,2.58h-3.87a.84.84,0,0,0-.87.8h0a.84.84,0,0,0,.87.81h3.87a1.3,1.3,0,1,1,0,2.57h-4.74v2.93c0,6.32,5.54,11.44,12.37,11.44Z" transform="translate(-377 -309.56)"/><path class="cls-1" d="M441.85,338.75l-1.7-1.88a10.26,10.26,0,0,0,.23-17l1.73-1.84a12.58,12.58,0,0,1-.26,20.73Z" transform="translate(-377 -309.56)"/><path class="cls-1" d="M448.94,342.73l-1.69-1.87c4.37-3.38,6.78-7.84,6.78-12.58s-2.29-9-6.45-12.32l1.73-1.84c4.74,3.81,7.36,8.84,7.36,14.16a16.55,16.55,0,0,1-2.09,8,21,21,0,0,1-5.64,6.46Z" transform="translate(-377 -309.56)"/><path class="cls-1" d="M456,346.65l-1.69-1.87c5.73-4.42,8.88-10.28,8.88-16.5,0-6-3-11.78-8.45-16.16l1.73-1.84c6,4.85,9.36,11.24,9.36,18a20.93,20.93,0,0,1-2.65,10.15,26.62,26.62,0,0,1-7.18,8.22Z" transform="translate(-377 -309.56)"/><path class="cls-1" d="M400.94,338.75c-3.6-2.78-5.59-6.5-5.59-10.47A13.19,13.19,0,0,1,400.67,318l1.74,1.84a10.25,10.25,0,0,0,.22,17l-1.69,1.88Z" transform="translate(-377 -309.56)"/><path class="cls-1" d="M393.84,342.73a20.91,20.91,0,0,1-5.63-6.46,16.44,16.44,0,0,1-2.09-8c0-5.32,2.61-10.35,7.35-14.16l1.74,1.84c-4.16,3.34-6.45,7.72-6.45,12.32s2.41,9.2,6.77,12.58l-1.69,1.87Z" transform="translate(-377 -309.56)"/><path class="cls-1" d="M386.82,346.65a26.59,26.59,0,0,1-7.17-8.22A20.93,20.93,0,0,1,377,328.28c0-6.76,3.32-13.15,9.35-18l1.73,1.84c-5.44,4.38-8.44,10.12-8.44,16.16,0,6.22,3.15,12.08,8.87,16.5l-1.69,1.87Z" transform="translate(-377 -309.56)"/><polygon class="cls-1" points="45.15 57.34 43.29 57.34 43.29 47.19 45.15 47.19 45.15 57.34 45.15 57.34"/><polygon class="cls-1" points="53.5 58.2 34.94 58.2 34.94 56.48 53.5 56.48 53.5 58.2 53.5 58.2"/><path class="cls-1" d="M421.22,357.61a16,16,0,0,1-9.24-2.86,14.38,14.38,0,0,1-5.47-7.23l1.79-.5a12.63,12.63,0,0,0,4.8,6.36,14.37,14.37,0,0,0,16.23,0,12.65,12.65,0,0,0,4.81-6.36l1.78.5a14.32,14.32,0,0,1-5.47,7.23,16,16,0,0,1-9.23,2.86Z" transform="translate(-377 -309.56)"/></svg>